<?xml version="1.0" standalone="no"?>
<!DOCTYPE svg PUBLIC "-//W3C//DTD SVG 1.1//EN" "http://www.w3.org/Graphics/SVG/1.1/DTD/svg11.dtd" >
<svg>
<metadata>
Created by FontForge 20090914 at Mon Apr  5 14:52:11 2010
 By Noah Diewald,,,
Copyright (c) 2000 by Chris Harvey. All rights reserved.
</metadata>
<defs>
<font id="AboriginalSans" horiz-adv-x="677" >
  <font-face 
    font-family="Aboriginal Sans"
    font-weight="400"
    font-stretch="normal"
    units-per-em="1000"
    panose-1="2 0 0 0 0 0 0 0 0 0"
    ascent="800"
    descent="-200"
    x-height="493"
    cap-height="686"
    bbox="-737 -489 1786 1067"
    underline-thickness="24"
    underline-position="-25"
    unicode-range="U+0020-U+FB06"
  />
<missing-glyph horiz-adv-x="457" 
d="M52 514q0 14 7.5 19t18.5 7h290q11 -1 19.5 -5t12.5 -18v-553q-4 -14 -12.5 -18t-19.5 -5h-290q-11 2 -18.5 7t-7.5 20v546zM352 -11h-29l15 -24zM126 -11h198q-15 31 -31 61t-31 61q-10 17 -18.5 33.5t-18.5 33.5zM225 304q13 22 25 45.5l23 46.5l51 96h-197zM193 241
l-40.5 78l-40.5 78v-313zM306 152l34 -66v309l-15.5 -28t-14.5 -29l-12 -22l-19.5 -37.5t-18.5 -37.5z" />
    <glyph glyph-name="dia" unicode="&#x20;&#x308;" horiz-adv-x="367" 
d="M37 657q0 21 15 36t35 15q23 0 37 -15t14 -36q0 -22 -14 -37t-37 -15q-21 0 -35.5 15t-14.5 37zM219 657q0 21 14.5 36t35.5 15t36 -15t15 -36q0 -22 -15 -37t-36 -15t-35.5 15t-14.5 37z" />
    <glyph glyph-name="ced" unicode="&#x20;&#x327;" horiz-adv-x="282" 
d="M180 38l-40 -73q42 -11 66.5 -26t24.5 -55q0 -29 -14.5 -45.5t-37 -25.5t-48.5 -11.5t-49 -2.5h-4h-4h-10l-33 2l6 52q15 -2 26 -3t19 -1l23.5 2t21.5 4t16 8.5t6 15.5q0 11 -8 18t-20 11t-26.5 5.5t-26.5 3.5l35 121h77z" />
    <glyph glyph-name="Agra" unicode="A&#x300;" horiz-adv-x="624" 
d="M210 283h191l-48 125.5l-47 126.5zM269 686h73l260 -686h-94l-76 195h-252l-76 -195h-94zM186 878q0 20 10 27t27 7q16 0 44.5 -19t57 -42.5t50 -44t22.5 -23.5q4 -7 4 -12q0 -11 -6.5 -14.5t-18.5 -3.5q-15 1 -46.5 16.5t-63.5 36.5t-56 41.5t-24 30.5z" />
    <glyph glyph-name="Aacu" unicode="A&#x301;" horiz-adv-x="624" 
d="M210 283h191l-48 125.5l-47 126.5zM269 686h73l260 -686h-94l-76 195h-252l-76 -195h-94zM456 878q0 -10 -24 -30.5t-56 -41.5t-64 -36.5t-47 -16.5q-11 0 -17.5 3.5t-6.5 14.5q0 5 4 12v-1q1 2 11 12.5t26 25l35.5 31t38.5 30t35.5 22.5t26.5 9q19 0 28.5 -7t9.5 -27z
" />
    <glyph glyph-name="Acir" unicode="A&#x302;" horiz-adv-x="624" 
d="M210 283h191l-48 125.5l-47 126.5zM269 686h73l260 -686h-94l-76 195h-252l-76 -195h-94zM276 897h67l117 -143h-67l-85 73l-80 -73h-71z" />
    <glyph glyph-name="Atil" unicode="A&#x303;" horiz-adv-x="624" 
d="M210 283h191l-48 125.5l-47 126.5zM269 686h73l260 -686h-94l-76 195h-252l-76 -195h-94zM150 795q18 30 32 47.5t26 26t24.5 11t28.5 2.5q30 0 49 -11t34 -23q13 -9 25 -16.5t27 -7.5q7 0 15 6.5t16.5 16.5t15.5 21.5l13 21.5l48 -48q-21 -40 -47 -61t-61 -21
q-31 0 -53.5 12t-40.5 25q-11 8 -20.5 14t-20.5 6q-17 0 -30 -18t-24 -37l-6 -7z" />
    <glyph glyph-name="Adia" unicode="A&#x308;" horiz-adv-x="624" 
d="M210 283h191l-48 125.5l-47 126.5zM269 686h73l260 -686h-94l-76 195h-252l-76 -195h-94zM167 827q0 21 15 36t35 15q23 0 37 -15t14 -36q0 -22 -14 -37t-37 -15q-21 0 -35.5 15t-14.5 37zM349 827q0 21 14.5 36t35.5 15t36 -15t15 -36q0 -22 -15 -37t-36 -15t-35.5 15
t-14.5 37z" />
    <glyph glyph-name="Arin" unicode="A&#x30a;" horiz-adv-x="624" 
d="M210 283h191l-48 125.5l-47 126.5zM269 686h73l260 -686h-94l-76 195h-252l-76 -195h-94zM267 823q0 -19 15 -33.5t36 -14.5q20 0 34.5 14.5t14.5 33.5q0 21 -14.5 36t-34.5 15q-21 0 -36 -15t-15 -36zM220 825q0 20 7.5 37.5t21 31t31.5 21.5t38 8q18 0 35.5 -8
t31 -21.5t21.5 -31t8 -37.5t-8 -37t-21.5 -30.5t-31 -21t-35.5 -7.5q-20 0 -38 7.5t-31.5 21t-21 30.5t-7.5 37z" />
    <glyph glyph-name="Cced" unicode="C&#x327;" horiz-adv-x="675" 
d="M39 349q0 59 17 107.5t46 86.5t66.5 66t79.5 46t84.5 27t81.5 9q37 0 71 -6.5t62.5 -16t49 -19.5t29.5 -17l-29 -72q-30 13 -54.5 21.5t-45.5 13.5t-41 7t-42 2q-52 0 -102.5 -16.5t-90 -49t-63.5 -80t-24 -108.5q0 -65 23 -115t61.5 -84t87 -51t99.5 -17q32 0 60 5
t52 12.5t43.5 16l34.5 15.5l26 -75q-14 -9 -34 -20t-46.5 -20.5t-60 -15.5t-72.5 -6q-66 0 -131.5 20.5t-118.5 64t-86 110t-33 159.5zM426 20l-40 -74q42 -11 66.5 -26t24.5 -55q0 -29 -14.5 -46t-37 -26t-48.5 -11.5t-49 -2.5q-14 0 -31 1t-18 1h-2l6 52q15 -2 26 -3t19 0
q12 0 23.5 1t21.5 4t16 9t6 16q0 11 -8 17.5t-20 10.5t-26.5 6t-26.5 4l35 122h77z" />
    <glyph glyph-name="Egra" unicode="E&#x300;" horiz-adv-x="458" 
d="M393 686v-87h-237v-195h231v-88h-231v-229h279v-87h-374v686h332zM110 878q0 20 10 27t27 7q16 0 44.5 -19t57 -42.5t50 -44t22.5 -23.5q4 -7 4 -12q0 -11 -6.5 -14.5t-18.5 -3.5q-15 1 -46.5 16.5t-63.5 36.5t-56 41.5t-24 30.5z" />
    <glyph glyph-name="Eacu" unicode="E&#x301;" horiz-adv-x="458" 
d="M393 686v-87h-237v-195h231v-88h-231v-229h279v-87h-374v686h332zM380 878q0 -10 -24 -30.5t-56 -41.5t-64 -36.5t-47 -16.5q-11 0 -17.5 3.5t-6.5 14.5q0 5 4 12v-1q1 2 11 12.5t26 25l35.5 31t38.5 30t35.5 22.5t26.5 9q19 0 28.5 -7t9.5 -27z" />
    <glyph glyph-name="Ecir" unicode="E&#x302;" horiz-adv-x="458" 
d="M393 686v-87h-237v-195h231v-88h-231v-229h279v-87h-374v686h332zM200 897h67l117 -143h-67l-85 73l-80 -73h-71z" />
    <glyph glyph-name="Edia" unicode="E&#x308;" horiz-adv-x="458" 
d="M393 686v-87h-237v-195h231v-88h-231v-229h279v-87h-374v686h332zM92 827q0 21 15 36t35 15q23 0 37 -15t14 -36q0 -22 -14 -37t-37 -15q-21 0 -35.5 15t-14.5 37zM274 827q0 21 14.5 36t35.5 15t36 -15t15 -36q0 -22 -15 -37t-36 -15t-35.5 15t-14.5 37z" />
    <glyph glyph-name="Igra" unicode="I&#x300;" horiz-adv-x="216" 
d="M59 686h94v-686h-94v686zM-19 878q0 20 10 27t27 7q16 0 44.5 -19t57 -42.5t50 -44t22.5 -23.5q4 -7 4 -12q0 -11 -6.5 -14.5t-18.5 -3.5q-15 1 -46.5 16.5t-63.5 36.5t-56 41.5t-24 30.5z" />
    <glyph glyph-name="Iacu" unicode="I&#x301;" horiz-adv-x="216" 
d="M59 686h94v-686h-94v686zM251 878q0 -10 -24 -30.5t-56 -41.5t-64 -36.5t-47 -16.5q-11 0 -17.5 3.5t-6.5 14.5q0 5 4 12v-1q1 2 11 12.5t26 25l35.5 31t38.5 30t35.5 22.5t26.5 9q19 0 28.5 -7t9.5 -27z" />
    <glyph glyph-name="Icir" unicode="I&#x302;" horiz-adv-x="216" 
d="M59 686h94v-686h-94v686zM70 897h67l117 -143h-67l-85 73l-80 -73h-71z" />
    <glyph glyph-name="Idia" unicode="I&#x308;" horiz-adv-x="216" 
d="M59 686h94v-686h-94v686zM-37 827q0 21 15 36t35 15q23 0 37 -15t14 -36q0 -22 -14 -37t-37 -15q-21 0 -35.5 15t-14.5 37zM145 827q0 21 14.5 36t35.5 15t36 -15t15 -36q0 -22 -15 -37t-36 -15t-35.5 15t-14.5 37z" />
    <glyph glyph-name="Ntil" unicode="N&#x303;" horiz-adv-x="752" 
d="M131 686l447 -517v517h96v-686h-69l-445 517v-517h-97v686h68zM205 795q18 30 32 47.5t26 26t24.5 11t28.5 2.5q30 0 49 -11t34 -23q13 -9 25 -16.5t27 -7.5q7 0 15 6.5t16.5 16.5t15.5 21.5l13 21.5l48 -48q-21 -40 -47 -61t-61 -21q-31 0 -53.5 12t-40.5 25
q-11 8 -20.5 14t-20.5 6q-17 0 -30 -18t-24 -37l-6 -7z" />
    <glyph glyph-name="Ogra" unicode="O&#x300;" horiz-adv-x="770" 
d="M135 352q0 -53 15.5 -101.5t46 -86t75.5 -59.5t103 -22q70 0 117 22t75.5 59.5t40.5 86t12 101.5q0 55 -13.5 101t-43 79.5t-76 52t-112.5 18.5q-60 0 -105 -18.5t-75 -52t-45 -79.5t-15 -101zM375 -5q-70 0 -122.5 17.5t-89.5 46.5t-61 66t-37.5 77t-19 79t-5.5 71
q0 74 24 136t68 107t105.5 70.5t137.5 25.5q88 0 152 -25.5t106 -70.5t62 -107t20 -136q0 -32 -5.5 -71t-20 -79t-39.5 -77t-62.5 -66t-90 -46.5t-122.5 -17.5zM257 878q0 20 10 27t27 7q16 0 44.5 -19t57 -42.5t50 -44t22.5 -23.5q4 -7 4 -12q0 -11 -6.5 -14.5t-18.5 -3.5
q-15 1 -46.5 16.5t-63.5 36.5t-56 41.5t-24 30.5z" />
    <glyph glyph-name="Oacu" unicode="O&#x301;" horiz-adv-x="770" 
d="M135 352q0 -53 15.5 -101.5t46 -86t75.5 -59.5t103 -22q70 0 117 22t75.5 59.5t40.5 86t12 101.5q0 55 -13.5 101t-43 79.5t-76 52t-112.5 18.5q-60 0 -105 -18.5t-75 -52t-45 -79.5t-15 -101zM375 -5q-70 0 -122.5 17.5t-89.5 46.5t-61 66t-37.5 77t-19 79t-5.5 71
q0 74 24 136t68 107t105.5 70.5t137.5 25.5q88 0 152 -25.5t106 -70.5t62 -107t20 -136q0 -32 -5.5 -71t-20 -79t-39.5 -77t-62.5 -66t-90 -46.5t-122.5 -17.5zM527 878q0 -10 -24 -30.5t-56 -41.5t-64 -36.5t-47 -16.5q-11 0 -17.5 3.5t-6.5 14.5q0 5 4 12v-1q1 2 11 12.5
t26 25l35.5 31t38.5 30t35.5 22.5t26.5 9q19 0 28.5 -7t9.5 -27z" />
    <glyph glyph-name="Ocir" unicode="O&#x302;" horiz-adv-x="770" 
d="M135 352q0 -53 15.5 -101.5t46 -86t75.5 -59.5t103 -22q70 0 117 22t75.5 59.5t40.5 86t12 101.5q0 55 -13.5 101t-43 79.5t-76 52t-112.5 18.5q-60 0 -105 -18.5t-75 -52t-45 -79.5t-15 -101zM375 -5q-70 0 -122.5 17.5t-89.5 46.5t-61 66t-37.5 77t-19 79t-5.5 71
q0 74 24 136t68 107t105.5 70.5t137.5 25.5q88 0 152 -25.5t106 -70.5t62 -107t20 -136q0 -32 -5.5 -71t-20 -79t-39.5 -77t-62.5 -66t-90 -46.5t-122.5 -17.5zM347 897h67l117 -143h-67l-85 73l-80 -73h-71z" />
    <glyph glyph-name="Otil" unicode="O&#x303;" horiz-adv-x="770" 
d="M135 352q0 -53 15.5 -101.5t46 -86t75.5 -59.5t103 -22q70 0 117 22t75.5 59.5t40.5 86t12 101.5q0 55 -13.5 101t-43 79.5t-76 52t-112.5 18.5q-60 0 -105 -18.5t-75 -52t-45 -79.5t-15 -101zM375 -5q-70 0 -122.5 17.5t-89.5 46.5t-61 66t-37.5 77t-19 79t-5.5 71
q0 74 24 136t68 107t105.5 70.5t137.5 25.5q88 0 152 -25.5t106 -70.5t62 -107t20 -136q0 -32 -5.5 -71t-20 -79t-39.5 -77t-62.5 -66t-90 -46.5t-122.5 -17.5zM220 795q18 30 32 47.5t26 26t24.5 11t28.5 2.5q30 0 49 -11t34 -23q13 -9 25 -16.5t27 -7.5q7 0 15 6.5
t16.5 16.5t15.5 21.5l13 21.5l48 -48q-21 -40 -47 -61t-61 -21q-31 0 -53.5 12t-40.5 25q-11 8 -20.5 14t-20.5 6q-17 0 -30 -18t-24 -37l-6 -7z" />
    <glyph glyph-name="Odia" unicode="O&#x308;" horiz-adv-x="770" 
d="M135 352q0 -53 15.5 -101.5t46 -86t75.5 -59.5t103 -22q70 0 117 22t75.5 59.5t40.5 86t12 101.5q0 55 -13.5 101t-43 79.5t-76 52t-112.5 18.5q-60 0 -105 -18.5t-75 -52t-45 -79.5t-15 -101zM375 -5q-70 0 -122.5 17.5t-89.5 46.5t-61 66t-37.5 77t-19 79t-5.5 71
q0 74 24 136t68 107t105.5 70.5t137.5 25.5q88 0 152 -25.5t106 -70.5t62 -107t20 -136q0 -32 -5.5 -71t-20 -79t-39.5 -77t-62.5 -66t-90 -46.5t-122.5 -17.5zM239 827q0 21 15 36t35 15q23 0 37 -15t14 -36q0 -22 -14 -37t-37 -15q-21 0 -35.5 15t-14.5 37zM421 827
q0 21 14.5 36t35.5 15t36 -15t15 -36q0 -22 -15 -37t-36 -15t-35.5 15t-14.5 37z" />
    <glyph glyph-name="Ugra" unicode="U&#x300;" horiz-adv-x="660" 
d="M62 686h96v-439q0 -47 13.5 -78.5t36 -50.5t52.5 -27t63 -8q28 0 58 10t54 30.5t39.5 51.5t15.5 73v438h95v-438q0 -55 -14.5 -95t-38 -68t-53 -46t-58.5 -27.5t-55 -13t-43 -3.5q-19 0 -45.5 2.5t-55.5 11t-58 24.5t-51.5 44.5t-36.5 70t-14 100.5v438zM204 878
q0 20 10 27t27 7q16 0 44.5 -19t57 -42.5t50 -44t22.5 -23.5q4 -7 4 -12q0 -11 -6.5 -14.5t-18.5 -3.5q-15 1 -46.5 16.5t-63.5 36.5t-56 41.5t-24 30.5z" />
    <glyph glyph-name="Uacu" unicode="U&#x301;" horiz-adv-x="660" 
d="M62 686h96v-439q0 -47 13.5 -78.5t36 -50.5t52.5 -27t63 -8q28 0 58 10t54 30.5t39.5 51.5t15.5 73v438h95v-438q0 -55 -14.5 -95t-38 -68t-53 -46t-58.5 -27.5t-55 -13t-43 -3.5q-19 0 -45.5 2.5t-55.5 11t-58 24.5t-51.5 44.5t-36.5 70t-14 100.5v438zM474 878
q0 -10 -24 -30.5t-56 -41.5t-64 -36.5t-47 -16.5q-11 0 -17.5 3.5t-6.5 14.5q0 5 4 12v-1q1 2 11 12.5t26 25l35.5 31t38.5 30t35.5 22.5t26.5 9q19 0 28.5 -7t9.5 -27z" />
    <glyph glyph-name="Ucir" unicode="U&#x302;" horiz-adv-x="660" 
d="M62 686h96v-439q0 -47 13.5 -78.5t36 -50.5t52.5 -27t63 -8q28 0 58 10t54 30.5t39.5 51.5t15.5 73v438h95v-438q0 -55 -14.5 -95t-38 -68t-53 -46t-58.5 -27.5t-55 -13t-43 -3.5q-19 0 -45.5 2.5t-55.5 11t-58 24.5t-51.5 44.5t-36.5 70t-14 100.5v438zM294 897h67
l117 -143h-67l-85 73l-80 -73h-71z" />
    <glyph glyph-name="Udia" unicode="U&#x308;" horiz-adv-x="660" 
d="M188 827q0 21 15 36t35 15q23 0 37 -15t14 -36q0 -22 -14 -37t-37 -15q-21 0 -35.5 15t-14.5 37zM370 827q0 21 14.5 36t35.5 15t36 -15t15 -36q0 -22 -15 -37t-36 -15t-35.5 15t-14.5 37zM62 686h96v-439q0 -47 13.5 -78.5t36 -50.5t52.5 -27t63 -8q28 0 58 10t54 30.5
t39.5 51.5t15.5 73v438h95v-438q0 -55 -14.5 -95t-38 -68t-53 -46t-58.5 -27.5t-55 -13t-43 -3.5q-19 0 -45.5 2.5t-55.5 11t-58 24.5t-51.5 44.5t-36.5 70t-14 100.5v438z" />
    <glyph glyph-name="Yacu" unicode="Y&#x301;" horiz-adv-x="522" 
d="M208 281l-99 199l-102 206h102l147 -299l105 215v-1l42 85h103l-202 -405v-281h-96v281zM405 878q0 -10 -24 -30.5t-56 -41.5t-64 -36.5t-47 -16.5q-11 0 -17.5 3.5t-6.5 14.5q0 5 4 12v-1q1 2 11 12.5t26 25l35.5 31t38.5 30t35.5 22.5t26.5 9q19 0 28.5 -7t9.5 -27z
" />
    <glyph glyph-name="agra" unicode="a&#x300;" horiz-adv-x="504" 
d="M150 143q0 -23 11.5 -42.5t41.5 -19.5q42 0 70 12t44.5 33t24 48t8.5 57q-28 -2 -63 -8.5t-65.5 -17.5t-51 -26.5t-20.5 -35.5zM56 139q0 32 14.5 57.5t38.5 44.5t54.5 32.5t63.5 22.5t65 15t58 10v28q0 23 -29.5 41.5t-83.5 18.5q-17 0 -36 -6.5t-36.5 -14.5t-31 -16
l-18.5 -11l-30 71q9 12 25.5 23.5t38 20.5t47.5 14t53 5q24 -1 57 -9t63 -23.5t51 -39t21 -55.5v-368h-85l-7 51q-32 -26 -75 -41t-87 -15q-32 0 -56 12t-41 32.5t-25.5 46.5t-8.5 53zM132 708q0 20 10 27t27 7q16 0 44.5 -19t57 -42.5t50 -44t22.5 -23.5q4 -7 4 -12
q0 -11 -6.5 -14.5t-18.5 -3.5q-15 1 -46.5 16.5t-63.5 36.5t-56 41.5t-24 30.5z" />
    <glyph glyph-name="aacu" unicode="a&#x301;" horiz-adv-x="504" 
d="M150 143q0 -23 11.5 -42.5t41.5 -19.5q42 0 70 12t44.5 33t24 48t8.5 57q-28 -2 -63 -8.5t-65.5 -17.5t-51 -26.5t-20.5 -35.5zM56 139q0 32 14.5 57.5t38.5 44.5t54.5 32.5t63.5 22.5t65 15t58 10v28q0 23 -29.5 41.5t-83.5 18.5q-17 0 -36 -6.5t-36.5 -14.5t-31 -16
l-18.5 -11l-30 71q9 12 25.5 23.5t38 20.5t47.5 14t53 5q24 -1 57 -9t63 -23.5t51 -39t21 -55.5v-368h-85l-7 51q-32 -26 -75 -41t-87 -15q-32 0 -56 12t-41 32.5t-25.5 46.5t-8.5 53zM402 708q0 -10 -24 -30.5t-56 -41.5t-64 -36.5t-47 -16.5q-11 0 -17.5 3.5t-6.5 14.5
q0 5 4 12v-1q1 2 11 12.5t26 25l35.5 31t38.5 30t35.5 22.5t26.5 9q19 0 28.5 -7t9.5 -27z" />
    <glyph glyph-name="acir" unicode="a&#x302;" horiz-adv-x="504" 
d="M150 143q0 -23 11.5 -42.5t41.5 -19.5q42 0 70 12t44.5 33t24 48t8.5 57q-28 -2 -63 -8.5t-65.5 -17.5t-51 -26.5t-20.5 -35.5zM56 139q0 32 14.5 57.5t38.5 44.5t54.5 32.5t63.5 22.5t65 15t58 10v28q0 23 -29.5 41.5t-83.5 18.5q-17 0 -36 -6.5t-36.5 -14.5t-31 -16
l-18.5 -11l-30 71q9 12 25.5 23.5t38 20.5t47.5 14t53 5q24 -1 57 -9t63 -23.5t51 -39t21 -55.5v-368h-85l-7 51q-32 -26 -75 -41t-87 -15q-32 0 -56 12t-41 32.5t-25.5 46.5t-8.5 53zM222 727h67l117 -143h-67l-85 73l-80 -73h-71z" />
    <glyph glyph-name="atil" unicode="a&#x303;" horiz-adv-x="504" 
d="M150 143q0 -23 11.5 -42.5t41.5 -19.5q42 0 70 12t44.5 33t24 48t8.5 57q-28 -2 -63 -8.5t-65.5 -17.5t-51 -26.5t-20.5 -35.5zM56 139q0 32 14.5 57.5t38.5 44.5t54.5 32.5t63.5 22.5t65 15t58 10v28q0 23 -29.5 41.5t-83.5 18.5q-17 0 -36 -6.5t-36.5 -14.5t-31 -16
l-18.5 -11l-30 71q9 12 25.5 23.5t38 20.5t47.5 14t53 5q24 -1 57 -9t63 -23.5t51 -39t21 -55.5v-368h-85l-7 51q-32 -26 -75 -41t-87 -15q-32 0 -56 12t-41 32.5t-25.5 46.5t-8.5 53zM96 625q18 30 32 47.5t26 26t24.5 11t28.5 2.5q30 0 49 -11t34 -23q13 -9 25 -16.5
t27 -7.5q7 0 15 6.5t16.5 16.5t15.5 21.5l13 21.5l48 -48q-21 -40 -47 -61t-61 -21q-31 0 -53.5 12t-40.5 25q-11 8 -20.5 14t-20.5 6q-17 0 -30 -18t-24 -37l-6 -7z" />
    <glyph glyph-name="adia" unicode="a&#x308;" horiz-adv-x="504" 
d="M150 143q0 -23 11.5 -42.5t41.5 -19.5q42 0 70 12t44.5 33t24 48t8.5 57q-28 -2 -63 -8.5t-65.5 -17.5t-51 -26.5t-20.5 -35.5zM56 139q0 32 14.5 57.5t38.5 44.5t54.5 32.5t63.5 22.5t65 15t58 10v28q0 23 -29.5 41.5t-83.5 18.5q-17 0 -36 -6.5t-36.5 -14.5t-31 -16
l-18.5 -11l-30 71q9 12 25.5 23.5t38 20.5t47.5 14t53 5q24 -1 57 -9t63 -23.5t51 -39t21 -55.5v-368h-85l-7 51q-32 -26 -75 -41t-87 -15q-32 0 -56 12t-41 32.5t-25.5 46.5t-8.5 53zM113 657q0 21 15 36t35 15q23 0 37 -15t14 -36q0 -22 -14 -37t-37 -15q-21 0 -35.5 15
t-14.5 37zM295 657q0 21 14.5 36t35.5 15t36 -15t15 -36q0 -22 -15 -37t-36 -15t-35.5 15t-14.5 37z" />
    <glyph glyph-name="arin" unicode="a&#x30a;" horiz-adv-x="504" 
d="M150 143q0 -23 11.5 -42.5t41.5 -19.5q42 0 70 12t44.5 33t24 48t8.5 57q-28 -2 -63 -8.5t-65.5 -17.5t-51 -26.5t-20.5 -35.5zM56 139q0 32 14.5 57.5t38.5 44.5t54.5 32.5t63.5 22.5t65 15t58 10v28q0 23 -29.5 41.5t-83.5 18.5q-17 0 -36 -6.5t-36.5 -14.5t-31 -16
l-18.5 -11l-30 71q9 12 25.5 23.5t38 20.5t47.5 14t53 5q24 -1 57 -9t63 -23.5t51 -39t21 -55.5v-368h-85l-7 51q-32 -26 -75 -41t-87 -15q-32 0 -56 12t-41 32.5t-25.5 46.5t-8.5 53zM213 653q0 -19 15 -33.5t36 -14.5q20 0 34.5 14.5t14.5 33.5q0 21 -14.5 36t-34.5 15
q-21 0 -36 -15t-15 -36zM166 655q0 20 7.5 37.5t21 31t31.5 21.5t38 8q18 0 35.5 -8t31 -21.5t21.5 -31t8 -37.5t-8 -37t-21.5 -30.5t-31 -21t-35.5 -7.5q-20 0 -38 7.5t-31.5 21t-21 30.5t-7.5 37z" />
    <glyph glyph-name="cced" unicode="c&#x327;" horiz-adv-x="481" 
d="M39 245q0 57 17 103.5t49 80.5t79 52.5t106 18.5q8 0 22.5 -1.5t32 -5.5t34.5 -9.5t30 -12.5l-33 -78q-31 12 -50 16.5t-29 4.5q-81 0 -123 -39.5t-42 -120.5q-1 -39 8.5 -71t29 -55t49.5 -35.5t69 -11.5q13 -1 28 2t31 8t32 11l31 12l21 -74q-11 -12 -30.5 -21
t-41.5 -14t-41.5 -7.5t-30.5 -2.5q-60 0 -106 18t-77.5 50.5t-48 78.5t-16.5 103zM323 20l-40 -74q42 -11 66.5 -26t24.5 -55q0 -29 -14.5 -46t-37 -26t-48.5 -11.5t-49 -2.5q-14 0 -31 1t-18 1h-2l6 52q15 -2 26 -3t19 0q12 0 23.5 1t21.5 4t16 9t6 16q0 11 -8 17.5
t-20 10.5t-26.5 6t-26.5 4l35 122h77z" />
    <glyph glyph-name="egra" unicode="e&#x300;" horiz-adv-x="500" 
d="M355 315q-2 48 -25 72t-77 24q-53 0 -84 -23.5t-35 -72.5h221zM133 227q2 -75 39 -109.5t117 -34.5q50 0 76.5 8t40.5 13l3 2q5 2 10 3t19 3l12 -65l-26 -12.5t-42.5 -16.5t-52 -14.5t-52.5 -6.5q-63 0 -109 22t-86 72q-11 15 -19 34.5t-13 40.5t-8 42t-3 38
q0 52 11.5 98t37.5 80.5t68 54t103 19.5q67 0 105 -29.5t56.5 -72t22.5 -89t4 -80.5h-314zM134 707q0 20 10 27t27 7q16 0 44.5 -19t57 -42.5t50 -44t22.5 -23.5q4 -7 4 -12q0 -11 -6.5 -14.5t-18.5 -3.5q-15 1 -46.5 16.5t-63.5 36.5t-56 41.5t-24 30.5z" />
    <glyph glyph-name="eacu" unicode="e&#x301;" horiz-adv-x="500" 
d="M355 315q-2 48 -25 72t-77 24q-53 0 -84 -23.5t-35 -72.5h221zM133 227q2 -75 39 -109.5t117 -34.5q50 0 76.5 8t40.5 13l3 2q5 2 10 3t19 3l12 -65l-26 -12.5t-42.5 -16.5t-52 -14.5t-52.5 -6.5q-63 0 -109 22t-86 72q-11 15 -19 34.5t-13 40.5t-8 42t-3 38
q0 52 11.5 98t37.5 80.5t68 54t103 19.5q67 0 105 -29.5t56.5 -72t22.5 -89t4 -80.5h-314zM404 707q0 -10 -24 -30.5t-56 -41.5t-64 -36.5t-47 -16.5q-11 0 -17.5 3.5t-6.5 14.5q0 5 4 12v-1q1 2 11 12.5t26 25l35.5 31t38.5 30t35.5 22.5t26.5 9q19 0 28.5 -7t9.5 -27z" />
    <glyph glyph-name="ecir" unicode="e&#x302;" horiz-adv-x="500" 
d="M355 315q-2 48 -25 72t-77 24q-53 0 -84 -23.5t-35 -72.5h221zM133 227q2 -75 39 -109.5t117 -34.5q50 0 76.5 8t40.5 13l3 2q5 2 10 3t19 3l12 -65l-26 -12.5t-42.5 -16.5t-52 -14.5t-52.5 -6.5q-63 0 -109 22t-86 72q-11 15 -19 34.5t-13 40.5t-8 42t-3 38
q0 52 11.5 98t37.5 80.5t68 54t103 19.5q67 0 105 -29.5t56.5 -72t22.5 -89t4 -80.5h-314zM223 726h67l117 -143h-67l-85 73l-80 -73h-71z" />
    <glyph glyph-name="edia" unicode="e&#x308;" horiz-adv-x="500" 
d="M355 315q-2 48 -25 72t-77 24q-53 0 -84 -23.5t-35 -72.5h221zM133 227q2 -75 39 -109.5t117 -34.5q50 0 76.5 8t40.5 13l3 2q5 2 10 3t19 3l12 -65l-26 -12.5t-42.5 -16.5t-52 -14.5t-52.5 -6.5q-63 0 -109 22t-86 72q-11 15 -19 34.5t-13 40.5t-8 42t-3 38
q0 52 11.5 98t37.5 80.5t68 54t103 19.5q67 0 105 -29.5t56.5 -72t22.5 -89t4 -80.5h-314zM115 656q0 21 15 36t35 15q23 0 37 -15t14 -36q0 -22 -14 -37t-37 -15q-21 0 -35.5 15t-14.5 37zM297 656q0 21 14.5 36t35.5 15t36 -15t15 -36q0 -22 -15 -37t-36 -15t-35.5 15
t-14.5 37z" />
    <glyph glyph-name="igra" unicode="i&#x300;" horiz-adv-x="237" 
d="M69 0v493h94v-493h-94zM-9 707q0 20 10 27t27 7q16 0 44.5 -19t57 -42.5t50 -44t22.5 -23.5q4 -7 4 -12q0 -11 -6.5 -14.5t-18.5 -3.5q-15 1 -46.5 16.5t-63.5 36.5t-56 41.5t-24 30.5z" />
    <glyph glyph-name="iacu" unicode="i&#x301;" horiz-adv-x="237" 
d="M69 0v493h94v-493h-94zM260 707q0 -10 -24 -30.5t-56 -41.5t-64 -36.5t-47 -16.5q-11 0 -17.5 3.5t-6.5 14.5q0 5 4 12v-1q1 2 11 12.5t26 25l35.5 31t38.5 30t35.5 22.5t26.5 9q19 0 28.5 -7t9.5 -27z" />
    <glyph glyph-name="icir" unicode="i&#x302;" horiz-adv-x="237" 
d="M69 0v493h94v-493h-94zM81 726h67l117 -143h-67l-85 73l-80 -73h-71z" />
    <glyph glyph-name="idia" unicode="i&#x308;" horiz-adv-x="237" 
d="M69 0v493h94v-493h-94zM-28 656q0 21 15 36t35 15q23 0 37 -15t14 -36q0 -22 -14 -37t-37 -15q-21 0 -35.5 15t-14.5 37zM154 656q0 21 14.5 36t35.5 15t36 -15t15 -36q0 -22 -15 -37t-36 -15t-35.5 15t-14.5 37z" />
    <glyph glyph-name="ntil" unicode="n&#x303;" horiz-adv-x="534" 
d="M62 493h94v-39q19 15 52 27t97 12q39 0 71.5 -12.5t55.5 -35.5t36 -55t13 -72v-318h-94v315q0 9 -2 24.5t-12.5 30.5t-34.5 26t-67 11q-24 0 -44.5 -10t-36.5 -24.5t-25 -30.5t-9 -29v-313h-94v493zM128 624q18 30 32 47.5t26 26t24.5 11t28.5 2.5q30 0 49 -11t34 -23
q13 -9 25 -16.5t27 -7.5q7 0 15 6.5t16.5 16.5t15.5 21.5l13 21.5l48 -48q-21 -40 -47 -61t-61 -21q-31 0 -53.5 12t-40.5 25q-11 8 -20.5 14t-20.5 6q-17 0 -30 -18t-24 -37l-6 -7z" />
    <glyph glyph-name="ogra" unicode="o&#x300;" horiz-adv-x="563" 
d="M40 246q0 53 18.5 99.5t50 81.5t74 55t90.5 20q49 0 91.5 -20t74.5 -55t50.5 -81.5t18.5 -99.5t-18.5 -99t-50.5 -81t-74.5 -55t-91.5 -20q-48 0 -90.5 20t-74 55t-50 81t-18.5 99zM133 246q0 -35 11 -65.5t30 -53.5t44.5 -36.5t54.5 -13.5t55 13.5t45 36.5t30 53.5
t11 65.5t-11 66t-30 54t-45 36.5t-55 13.5t-54.5 -13.5t-44.5 -36.5t-30 -54t-11 -66zM157 707q0 20 10 27t27 7q16 0 44.5 -19t57 -42.5t50 -44t22.5 -23.5q4 -7 4 -12q0 -11 -6.5 -14.5t-18.5 -3.5q-15 1 -46.5 16.5t-63.5 36.5t-56 41.5t-24 30.5z" />
    <glyph glyph-name="oacu" unicode="o&#x301;" horiz-adv-x="563" 
d="M40 246q0 53 18.5 99.5t50 81.5t74 55t90.5 20q49 0 91.5 -20t74.5 -55t50.5 -81.5t18.5 -99.5t-18.5 -99t-50.5 -81t-74.5 -55t-91.5 -20q-48 0 -90.5 20t-74 55t-50 81t-18.5 99zM133 246q0 -35 11 -65.5t30 -53.5t44.5 -36.5t54.5 -13.5t55 13.5t45 36.5t30 53.5
t11 65.5t-11 66t-30 54t-45 36.5t-55 13.5t-54.5 -13.5t-44.5 -36.5t-30 -54t-11 -66zM426 707q0 -10 -24 -30.5t-56 -41.5t-64 -36.5t-47 -16.5q-11 0 -17.5 3.5t-6.5 14.5q0 5 4 12v-1q1 2 11 12.5t26 25l35.5 31t38.5 30t35.5 22.5t26.5 9q19 0 28.5 -7t9.5 -27z" />
    <glyph glyph-name="ocir" unicode="o&#x302;" horiz-adv-x="563" 
d="M40 246q0 53 18.5 99.5t50 81.5t74 55t90.5 20q49 0 91.5 -20t74.5 -55t50.5 -81.5t18.5 -99.5t-18.5 -99t-50.5 -81t-74.5 -55t-91.5 -20q-48 0 -90.5 20t-74 55t-50 81t-18.5 99zM133 246q0 -35 11 -65.5t30 -53.5t44.5 -36.5t54.5 -13.5t55 13.5t45 36.5t30 53.5
t11 65.5t-11 66t-30 54t-45 36.5t-55 13.5t-54.5 -13.5t-44.5 -36.5t-30 -54t-11 -66zM246 726h67l117 -143h-67l-85 73l-80 -73h-71z" />
    <glyph glyph-name="otil" unicode="o&#x303;" horiz-adv-x="563" 
d="M40 246q0 53 18.5 99.5t50 81.5t74 55t90.5 20q49 0 91.5 -20t74.5 -55t50.5 -81.5t18.5 -99.5t-18.5 -99t-50.5 -81t-74.5 -55t-91.5 -20q-48 0 -90.5 20t-74 55t-50 81t-18.5 99zM133 246q0 -35 11 -65.5t30 -53.5t44.5 -36.5t54.5 -13.5t55 13.5t45 36.5t30 53.5
t11 65.5t-11 66t-30 54t-45 36.5t-55 13.5t-54.5 -13.5t-44.5 -36.5t-30 -54t-11 -66zM119 624q18 30 32 47.5t26 26t24.5 11t28.5 2.5q30 0 49 -11t34 -23q13 -9 25 -16.5t27 -7.5q7 0 15 6.5t16.5 16.5t15.5 21.5l13 21.5l48 -48q-21 -40 -47 -61t-61 -21q-31 0 -53.5 12
t-40.5 25q-11 8 -20.5 14t-20.5 6q-17 0 -30 -18t-24 -37l-6 -7z" />
    <glyph glyph-name="odia" unicode="o&#x308;" horiz-adv-x="563" 
d="M40 246q0 53 18.5 99.5t50 81.5t74 55t90.5 20q49 0 91.5 -20t74.5 -55t50.5 -81.5t18.5 -99.5t-18.5 -99t-50.5 -81t-74.5 -55t-91.5 -20q-48 0 -90.5 20t-74 55t-50 81t-18.5 99zM133 246q0 -35 11 -65.5t30 -53.5t44.5 -36.5t54.5 -13.5t55 13.5t45 36.5t30 53.5
t11 65.5t-11 66t-30 54t-45 36.5t-55 13.5t-54.5 -13.5t-44.5 -36.5t-30 -54t-11 -66zM138 656q0 21 15 36t35 15q23 0 37 -15t14 -36q0 -22 -14 -37t-37 -15q-21 0 -35.5 15t-14.5 37zM320 656q0 21 14.5 36t35.5 15t36 -15t15 -36q0 -22 -15 -37t-36 -15t-35.5 15
t-14.5 37z" />
    <glyph glyph-name="ugra" unicode="u&#x300;" horiz-adv-x="543" 
d="M388 0l-10 36q-39 -26 -72.5 -33.5t-71.5 -7.5q-88 0 -130 46.5t-42 136.5v315h94v-321q0 -27 10 -45t25.5 -28t34.5 -14t36 -4q21 0 40.5 5.5t35 16.5t25 28.5t9.5 40.5v321h94v-493h-78zM152 707q0 20 10 27t27 7q16 0 44.5 -19t57 -42.5t50 -44t22.5 -23.5q4 -7 4 -12
q0 -11 -6.5 -14.5t-18.5 -3.5q-15 1 -46.5 16.5t-63.5 36.5t-56 41.5t-24 30.5z" />
    <glyph glyph-name="uacu" unicode="u&#x301;" horiz-adv-x="543" 
d="M388 0l-10 36q-39 -26 -72.5 -33.5t-71.5 -7.5q-88 0 -130 46.5t-42 136.5v315h94v-321q0 -27 10 -45t25.5 -28t34.5 -14t36 -4q21 0 40.5 5.5t35 16.5t25 28.5t9.5 40.5v321h94v-493h-78zM422 707q0 -10 -24 -30.5t-56 -41.5t-64 -36.5t-47 -16.5q-11 0 -17.5 3.5
t-6.5 14.5q0 5 4 12v-1q1 2 11 12.5t26 25l35.5 31t38.5 30t35.5 22.5t26.5 9q19 0 28.5 -7t9.5 -27z" />
    <glyph glyph-name="ucir" unicode="u&#x302;" horiz-adv-x="543" 
d="M388 0l-10 36q-39 -26 -72.5 -33.5t-71.5 -7.5q-88 0 -130 46.5t-42 136.5v315h94v-321q0 -27 10 -45t25.5 -28t34.5 -14t36 -4q21 0 40.5 5.5t35 16.5t25 28.5t9.5 40.5v321h94v-493h-78zM242 726h67l117 -143h-67l-85 73l-80 -73h-71z" />
    <glyph glyph-name="udia" unicode="u&#x308;" horiz-adv-x="543" 
d="M388 0l-10 36q-39 -26 -72.5 -33.5t-71.5 -7.5q-88 0 -130 46.5t-42 136.5v315h94v-321q0 -27 10 -45t25.5 -28t34.5 -14t36 -4q21 0 40.5 5.5t35 16.5t25 28.5t9.5 40.5v321h94v-493h-78zM133 656q0 21 15 36t35 15q23 0 37 -15t14 -36q0 -22 -14 -37t-37 -15
q-21 0 -35.5 15t-14.5 37zM315 656q0 21 14.5 36t35.5 15t36 -15t15 -36q0 -22 -15 -37t-36 -15t-35.5 15t-14.5 37z" />
    <glyph glyph-name="yacu" unicode="y&#x301;" horiz-adv-x="515" 
d="M163 493l112 -339l57.5 169.5l57.5 169.5h101l-166 -456q-15 -39 -35.5 -85.5t-53.5 -86t-81.5 -66t-117.5 -26.5l-12 86q49 0 82.5 17t56 41.5t36 53t22.5 52.5v1q1 1 1 2t1 3l-33.5 96l-34.5 96l-49.5 138l-47.5 134h104zM429 707q0 -10 -24 -30.5t-56 -41.5t-64 -36.5
t-47 -16.5q-11 0 -17.5 3.5t-6.5 14.5q0 5 4 12v-1q1 2 11 12.5t26 25l35.5 31t38.5 30t35.5 22.5t26.5 9q19 0 28.5 -7t9.5 -27z" />
    <glyph glyph-name="ydia" unicode="y&#x308;" horiz-adv-x="515" 
d="M163 493l112 -339l57.5 169.5l57.5 169.5h101l-166 -456q-15 -39 -35.5 -85.5t-53.5 -86t-81.5 -66t-117.5 -26.5l-12 86q49 0 82.5 17t56 41.5t36 53t22.5 52.5v1q1 1 1 2t1 3l-33.5 96l-34.5 96l-49.5 138l-47.5 134h104zM140 656q0 21 15 36t35 15q23 0 37 -15t14 -36
q0 -22 -14 -37t-37 -15q-21 0 -35.5 15t-14.5 37zM322 656q0 21 14.5 36t35.5 15t36 -15t15 -36q0 -22 -15 -37t-36 -15t-35.5 15t-14.5 37z" />
    <glyph glyph-name="Amac" unicode="A&#x304;" horiz-adv-x="624" 
d="M210 283h191l-48 125.5l-47 126.5zM269 686h73l260 -686h-94l-76 195h-252l-76 -195h-94zM162 864h310v-77h-310v77z" />
    <glyph glyph-name="amac" unicode="a&#x304;" horiz-adv-x="504" 
d="M150 143q0 -23 11.5 -42.5t41.5 -19.5q42 0 70 12t44.5 33t24 48t8.5 57q-28 -2 -63 -8.5t-65.5 -17.5t-51 -26.5t-20.5 -35.5zM56 139q0 32 14.5 57.5t38.5 44.5t54.5 32.5t63.5 22.5t65 15t58 10v28q0 23 -29.5 41.5t-83.5 18.5q-17 0 -36 -6.5t-36.5 -14.5t-31 -16
l-18.5 -11l-30 71q9 12 25.5 23.5t38 20.5t47.5 14t53 5q24 -1 57 -9t63 -23.5t51 -39t21 -55.5v-368h-85l-7 51q-32 -26 -75 -41t-87 -15q-32 0 -56 12t-41 32.5t-25.5 46.5t-8.5 53zM109 694h310v-77h-310v77z" />
    <glyph glyph-name="Abre" unicode="A&#x306;" horiz-adv-x="624" 
d="M210 283h191l-48 125.5l-47 126.5zM269 686h73l260 -686h-94l-76 195h-252l-76 -195h-94zM233 897q0 -40 24 -58.5t60 -18.5q35 0 59.5 18.5t24.5 58.5h71q0 -39 -14.5 -66.5t-37 -44.5t-50 -24.5t-54.5 -7.5q-30 0 -57.5 7.5t-49 24.5t-34.5 44.5t-13 66.5h71z" />
    <glyph glyph-name="abre" unicode="a&#x306;" horiz-adv-x="504" 
d="M150 143q0 -23 11.5 -42.5t41.5 -19.5q42 0 70 12t44.5 33t24 48t8.5 57q-28 -2 -63 -8.5t-65.5 -17.5t-51 -26.5t-20.5 -35.5zM56 139q0 32 14.5 57.5t38.5 44.5t54.5 32.5t63.5 22.5t65 15t58 10v28q0 23 -29.5 41.5t-83.5 18.5q-17 0 -36 -6.5t-36.5 -14.5t-31 -16
l-18.5 -11l-30 71q9 12 25.5 23.5t38 20.5t47.5 14t53 5q24 -1 57 -9t63 -23.5t51 -39t21 -55.5v-368h-85l-7 51q-32 -26 -75 -41t-87 -15q-32 0 -56 12t-41 32.5t-25.5 46.5t-8.5 53zM180 727q0 -40 24 -58.5t60 -18.5q35 0 59.5 18.5t24.5 58.5h71q0 -39 -14.5 -66.5
t-37 -44.5t-50 -24.5t-54.5 -7.5q-30 0 -57.5 7.5t-49 24.5t-34.5 44.5t-13 66.5h71z" />
    <glyph glyph-name="Aogo" unicode="A&#x328;" horiz-adv-x="619" 
d="M572 0q-13 -14 -19.5 -39t-6.5 -43q0 -42 52 -42h48v-40q-33 -15 -71 -15q-46 0 -75 20t-29 61q0 23 11.5 50.5t26.5 47.5l-76 195h-253l-76 -195h-93l259 686h73l260 -686h-31zM210 283h191l-47.5 125.5l-46.5 126.5z" />
    <glyph glyph-name="aogo" unicode="a&#x328;" horiz-adv-x="485" 
d="M407 0q-14 -13 -20.5 -38t-6.5 -43q0 -42 51 -42h47v-39q-16 -8 -33.5 -11t-35.5 -3q-46 0 -74.5 19.5t-28.5 59.5q0 24 11.5 51t25.5 47l-7 49q-31 -26 -74 -40.5t-87 -14.5q-32 0 -56 12t-41 32.5t-25.5 46.5t-8.5 53q0 32 14.5 57.5t38.5 44.5t54.5 32.5t63.5 22.5
t65 15t58 10v28q0 23 -29.5 41.5t-83.5 18.5q-17 0 -36 -6.5t-36.5 -14.5t-31.5 -16l-19 -11l-29 71q17 25 63 44t102 19q24 -1 57 -9t62.5 -23.5t50.5 -39t21 -55.5v-368h-22zM138 143q0 -23 11.5 -42.5t41.5 -19.5q42 0 70 12t44.5 33t24 48t8.5 57q-28 -2 -63 -8.5
t-65.5 -17.5t-51 -26.5t-20.5 -35.5z" />
    <glyph glyph-name="Cacu" unicode="C&#x301;" horiz-adv-x="675" 
d="M39 349q0 59 17 107.5t46 86.5t66.5 66t79.5 46t84.5 27t81.5 9q37 0 71 -6.5t62.5 -16t49 -19.5t29.5 -17l-29 -72q-30 13 -54.5 21.5t-45.5 13.5t-41 7t-42 2q-52 0 -102.5 -16.5t-90 -49t-63.5 -80t-24 -108.5q0 -65 23 -115t61.5 -84t87 -51t99.5 -17q32 0 60 5
t52 12.5t43.5 16l34.5 15.5l26 -75q-14 -9 -34 -20t-46.5 -20.5t-60 -15.5t-72.5 -6q-66 0 -131.5 20.5t-118.5 64t-86 110t-33 159.5zM552 878q0 -10 -24 -30.5t-56 -41.5t-64 -36.5t-47 -16.5q-11 0 -17.5 3.5t-6.5 14.5q0 5 4 12v-1q1 2 11 12.5t26 25l35.5 31t38.5 30
t35.5 22.5t26.5 9q19 0 28.5 -7t9.5 -27z" />
    <glyph glyph-name="cacu" unicode="c&#x301;" horiz-adv-x="481" 
d="M39 245q0 57 17 103.5t49 80.5t79 52.5t106 18.5q8 0 22.5 -1.5t32 -5.5t34.5 -9.5t30 -12.5l-33 -78q-31 12 -50 16.5t-29 4.5q-81 0 -123 -39.5t-42 -120.5q-1 -39 8.5 -71t29 -55t49.5 -35.5t69 -11.5q13 -1 28 2t31 8t32 11l31 12l21 -74q-11 -12 -30.5 -21
t-41.5 -14t-41.5 -7.5t-30.5 -2.5q-60 0 -106 18t-77.5 50.5t-48 78.5t-16.5 103zM428 707q0 -10 -24 -30.5t-56 -41.5t-64 -36.5t-47 -16.5q-11 0 -17.5 3.5t-6.5 14.5q0 5 4 12v-1q1 2 11 12.5t26 25l35.5 31t38.5 30t35.5 22.5t26.5 9q19 0 28.5 -7t9.5 -27z" />
    <glyph glyph-name="Ccir" unicode="C&#x302;" horiz-adv-x="675" 
d="M39 349q0 59 17 107.5t46 86.5t66.5 66t79.5 46t84.5 27t81.5 9q37 0 71 -6.5t62.5 -16t49 -19.5t29.5 -17l-29 -72q-30 13 -54.5 21.5t-45.5 13.5t-41 7t-42 2q-52 0 -102.5 -16.5t-90 -49t-63.5 -80t-24 -108.5q0 -65 23 -115t61.5 -84t87 -51t99.5 -17q32 0 60 5
t52 12.5t43.5 16l34.5 15.5l26 -75q-14 -9 -34 -20t-46.5 -20.5t-60 -15.5t-72.5 -6q-66 0 -131.5 20.5t-118.5 64t-86 110t-33 159.5zM371 897h67l117 -143h-67l-85 73l-80 -73h-71z" />
    <glyph glyph-name="ccir" unicode="c&#x302;" horiz-adv-x="481" 
d="M39 245q0 57 17 103.5t49 80.5t79 52.5t106 18.5q8 0 22.5 -1.5t32 -5.5t34.5 -9.5t30 -12.5l-33 -78q-31 12 -50 16.5t-29 4.5q-81 0 -123 -39.5t-42 -120.5q-1 -39 8.5 -71t29 -55t49.5 -35.5t69 -11.5q13 -1 28 2t31 8t32 11l31 12l21 -74q-11 -12 -30.5 -21
t-41.5 -14t-41.5 -7.5t-30.5 -2.5q-60 0 -106 18t-77.5 50.5t-48 78.5t-16.5 103zM248 726h67l117 -143h-67l-85 73l-80 -73h-71z" />
    <glyph glyph-name="Cdot" unicode="C&#x307;" horiz-adv-x="675" 
d="M39 349q0 59 17 107.5t46 86.5t66.5 66t79.5 46t84.5 27t81.5 9q37 0 71 -6.5t62.5 -16t49 -19.5t29.5 -17l-29 -72q-30 13 -54.5 21.5t-45.5 13.5t-41 7t-42 2q-52 0 -102.5 -16.5t-90 -49t-63.5 -80t-24 -108.5q0 -65 23 -115t61.5 -84t87 -51t99.5 -17q32 0 60 5
t52 12.5t43.5 16l34.5 15.5l26 -75q-14 -9 -34 -20t-46.5 -20.5t-60 -15.5t-72.5 -6q-66 0 -131.5 20.5t-118.5 64t-86 110t-33 159.5zM366 827q0 22 15 38t38 16q24 0 39 -16t15 -38q0 -23 -15 -39.5t-39 -16.5q-23 0 -38 16.5t-15 39.5z" />
    <glyph glyph-name="cdot" unicode="c&#x307;" horiz-adv-x="481" 
d="M39 245q0 57 17 103.5t49 80.5t79 52.5t106 18.5q8 0 22.5 -1.5t32 -5.5t34.5 -9.5t30 -12.5l-33 -78q-31 12 -50 16.5t-29 4.5q-81 0 -123 -39.5t-42 -120.5q-1 -39 8.5 -71t29 -55t49.5 -35.5t69 -11.5q13 -1 28 2t31 8t32 11l31 12l21 -74q-11 -12 -30.5 -21
t-41.5 -14t-41.5 -7.5t-30.5 -2.5q-60 0 -106 18t-77.5 50.5t-48 78.5t-16.5 103zM243 656q0 22 15 38t38 16q24 0 39 -16t15 -38q0 -23 -15 -39.5t-39 -16.5q-23 0 -38 16.5t-15 39.5z" />
    <glyph glyph-name="Ccar" unicode="C&#x30c;" horiz-adv-x="675" 
d="M39 349q0 59 17 107.5t46 86.5t66.5 66t79.5 46t84.5 27t81.5 9q37 0 71 -6.5t62.5 -16t49 -19.5t29.5 -17l-29 -72q-30 13 -54.5 21.5t-45.5 13.5t-41 7t-42 2q-52 0 -102.5 -16.5t-90 -49t-63.5 -80t-24 -108.5q0 -65 23 -115t61.5 -84t87 -51t99.5 -17q32 0 60 5
t52 12.5t43.5 16l34.5 15.5l26 -75q-14 -9 -34 -20t-46.5 -20.5t-60 -15.5t-72.5 -6q-66 0 -131.5 20.5t-118.5 64t-86 110t-33 159.5zM435 754h-66l-118 143h68l84 -74l81 74h71z" />
    <glyph glyph-name="ccar" unicode="c&#x30c;" horiz-adv-x="481" 
d="M39 245q0 57 17 103.5t49 80.5t79 52.5t106 18.5q8 0 22.5 -1.5t32 -5.5t34.5 -9.5t30 -12.5l-33 -78q-31 12 -50 16.5t-29 4.5q-81 0 -123 -39.5t-42 -120.5q-1 -39 8.5 -71t29 -55t49.5 -35.5t69 -11.5q13 -1 28 2t31 8t32 11l31 12l21 -74q-11 -12 -30.5 -21
t-41.5 -14t-41.5 -7.5t-30.5 -2.5q-60 0 -106 18t-77.5 50.5t-48 78.5t-16.5 103zM312 583h-66l-118 143h68l84 -74l81 74h71z" />
    <glyph glyph-name="Dcar" unicode="D&#x30c;" horiz-adv-x="709" 
d="M159 599v-512h69q68 0 128.5 10t106 37.5t72 77.5t26.5 131q0 87 -24 138t-68 77t-105.5 33.5t-135.5 7.5h-69zM63 686h165q102 0 181.5 -17t134 -57t83 -106t28.5 -163q0 -101 -34.5 -167.5t-93 -105.5t-135.5 -54.5t-163 -15.5h-166v686zM348 754h-66l-118 143h68
l84 -74l81 74h71z" />
    <glyph glyph-name="dcar" unicode="d&#x30c;" horiz-adv-x="756" 
d="M425 0l-8 41q-32 -26 -72.5 -36t-76.5 -10q-113 0 -170.5 67.5t-57.5 181.5q0 67 20 114t51.5 77t69.5 44t74 14q15 0 34 -1.5t40 -6.5t42.5 -16t41.5 -30v257h94v-696h-82zM133 244q0 -32 7.5 -61.5t24.5 -52t43.5 -36t64.5 -13.5q43 0 71.5 14t45.5 37t23.5 53.5
t6.5 63.5q0 29 -10 57.5t-29 51t-46.5 36t-61.5 13.5q-39 0 -65.5 -13.5t-43 -36t-24 -52t-7.5 -61.5zM581 616q0 32 20 56t51 24q19 0 35 -7.5t26.5 -19.5t16.5 -27.5t6 -31.5q0 -35 -10.5 -69t-29 -61t-44.5 -43.5t-57 -16.5v50q11 0 23.5 8.5t22.5 20t16.5 24t6.5 20.5
q0 2 -2 2q-14 0 -28.5 5.5t-26 15.5t-19 23t-7.5 27z" />
    <glyph glyph-name="Emac" unicode="E&#x304;" horiz-adv-x="458" 
d="M393 686v-87h-237v-195h231v-88h-231v-229h279v-87h-374v686h332zM86 864h310v-77h-310v77z" />
    <glyph glyph-name="emac" unicode="e&#x304;" horiz-adv-x="500" 
d="M355 315q-2 48 -25 72t-77 24q-53 0 -84 -23.5t-35 -72.5h221zM133 227q2 -75 39 -109.5t117 -34.5q50 0 76.5 8t40.5 13l3 2q5 2 10 3t19 3l12 -65l-26 -12.5t-42.5 -16.5t-52 -14.5t-52.5 -6.5q-63 0 -109 22t-86 72q-11 15 -19 34.5t-13 40.5t-8 42t-3 38
q0 52 11.5 98t37.5 80.5t68 54t103 19.5q67 0 105 -29.5t56.5 -72t22.5 -89t4 -80.5h-314zM111 693h310v-77h-310v77z" />
    <glyph glyph-name="Ebre" unicode="E&#x306;" horiz-adv-x="458" 
d="M393 686v-87h-237v-195h231v-88h-231v-229h279v-87h-374v686h332zM157 897q0 -40 24 -58.5t60 -18.5q35 0 59.5 18.5t24.5 58.5h71q0 -39 -14.5 -66.5t-37 -44.5t-50 -24.5t-54.5 -7.5q-30 0 -57.5 7.5t-49 24.5t-34.5 44.5t-13 66.5h71z" />
    <glyph glyph-name="ebre" unicode="e&#x306;" horiz-adv-x="500" 
d="M355 315q-2 48 -25 72t-77 24q-53 0 -84 -23.5t-35 -72.5h221zM133 227q2 -75 39 -109.5t117 -34.5q50 0 76.5 8t40.5 13l3 2q5 2 10 3t19 3l12 -65l-26 -12.5t-42.5 -16.5t-52 -14.5t-52.5 -6.5q-63 0 -109 22t-86 72q-11 15 -19 34.5t-13 40.5t-8 42t-3 38
q0 52 11.5 98t37.5 80.5t68 54t103 19.5q67 0 105 -29.5t56.5 -72t22.5 -89t4 -80.5h-314zM182 726q0 -40 24 -58.5t60 -18.5q35 0 59.5 18.5t24.5 58.5h71q0 -39 -14.5 -66.5t-37 -44.5t-50 -24.5t-54.5 -7.5q-30 0 -57.5 7.5t-49 24.5t-34.5 44.5t-13 66.5h71z" />
    <glyph glyph-name="Edot" unicode="E&#x307;" horiz-adv-x="458" 
d="M393 686v-87h-237v-195h231v-88h-231v-229h279v-87h-374v686h332zM195 827q0 22 15 38t38 16q24 0 39 -16t15 -38q0 -23 -15 -39.5t-39 -16.5q-23 0 -38 16.5t-15 39.5z" />
    <glyph glyph-name="edot" unicode="e&#x307;" horiz-adv-x="500" 
d="M355 315q-2 48 -25 72t-77 24q-53 0 -84 -23.5t-35 -72.5h221zM133 227q2 -75 39 -109.5t117 -34.5q50 0 76.5 8t40.5 13l3 2q5 2 10 3t19 3l12 -65l-26 -12.5t-42.5 -16.5t-52 -14.5t-52.5 -6.5q-63 0 -109 22t-86 72q-11 15 -19 34.5t-13 40.5t-8 42t-3 38
q0 52 11.5 98t37.5 80.5t68 54t103 19.5q67 0 105 -29.5t56.5 -72t22.5 -89t4 -80.5h-314zM218 656q0 22 15 38t38 16q24 0 39 -16t15 -38q0 -23 -15 -39.5t-39 -16.5q-23 0 -38 16.5t-15 39.5z" />
    <glyph glyph-name="Eogo" unicode="E&#x328;" horiz-adv-x="487" 
d="M361 0q-14 -14 -20.5 -39t-6.5 -43q0 -42 53 -42h47v-40q-32 -15 -70 -15q-46 0 -74.5 20t-28.5 61q0 24 10.5 51t25.5 47h-236v686h332v-87h-237v-195h231v-88h-231v-229h279v-87h-74z" />
    <glyph glyph-name="eogo" unicode="e&#x328;" horiz-adv-x="490" 
d="M133 227q2 -75 39 -109.5t117 -34.5q50 0 76.5 8t40.5 13l3 2q5 2 10 3t19 3l12 -65q-6 -4 -19 -9.5l-29.5 -12t-35.5 -13t-37 -10.5q-4 -2 -10 -2q-12 -14 -19 -39t-7 -42q0 -42 51 -42h46v-39q-29 -14 -69 -14q-45 0 -73 19.5t-28 59.5q0 24 9 49.5t23 45.5
q-53 4 -94 26t-76 67q-11 15 -19 34.5t-13 40.5t-8 42t-3 38q0 52 11.5 98t37.5 80.5t68 54t103 19.5q67 0 105 -29.5t56.5 -72t22.5 -89t4 -80.5h-314zM355 315q-2 48 -25 72t-77 24q-53 0 -84 -23.5t-35 -72.5h221z" />
    <glyph glyph-name="Ecar" unicode="E&#x30c;" horiz-adv-x="458" 
d="M393 686v-87h-237v-195h231v-88h-231v-229h279v-87h-374v686h332zM264 754h-66l-118 143h68l84 -74l81 74h71z" />
    <glyph glyph-name="ecar" unicode="e&#x30c;" horiz-adv-x="500" 
d="M355 315q-2 48 -25 72t-77 24q-53 0 -84 -23.5t-35 -72.5h221zM133 227q2 -75 39 -109.5t117 -34.5q50 0 76.5 8t40.5 13l3 2q5 2 10 3t19 3l12 -65l-26 -12.5t-42.5 -16.5t-52 -14.5t-52.5 -6.5q-63 0 -109 22t-86 72q-11 15 -19 34.5t-13 40.5t-8 42t-3 38
q0 52 11.5 98t37.5 80.5t68 54t103 19.5q67 0 105 -29.5t56.5 -72t22.5 -89t4 -80.5h-314zM288 583h-66l-118 143h68l84 -74l81 74h71z" />
    <glyph glyph-name="Gcir" unicode="G&#x302;" horiz-adv-x="675" 
d="M39 349q0 59 17 107.5t46 86.5t66.5 66t79.5 46t84.5 27t81.5 9q37 0 71 -6.5t62.5 -16t49 -19.5t29.5 -17l-29 -72q-30 13 -54.5 21.5t-45.5 13.5t-41 7t-42 2q-52 0 -102.5 -16.5t-90 -49t-63.5 -80t-24 -108.5q0 -65 23 -115t61.5 -84t87 -51t99.5 -17q32 0 59 4.5
t48 11.5l8 3h4v216h94v-263q-13 -9 -33 -19.5t-46 -19.5t-59 -15t-72 -6q-66 0 -131.5 20.5t-118.5 64t-86 110t-33 159.5zM369 897h67l117 -143h-67l-85 73l-80 -73h-71z" />
    <glyph glyph-name="gcir" unicode="g&#x302;" horiz-adv-x="579" 
d="M501 493v-438q0 -46 -1 -70.5t-4 -34.5q-12 -42 -34.5 -74.5t-54 -55.5t-70 -35t-81.5 -12q-8 0 -30.5 3t-50.5 9t-56.5 14.5t-49.5 19.5l20 75q8 -2 22.5 -6l24.5 -7q29 -8 61 -15.5t57 -6.5q5 0 9.5 -0.5t8.5 -0.5q58 0 97 38t39 112v49q-38 -39 -79 -50t-76 -11
q-57 0 -97 22.5t-66 59t-38 83.5t-12 96q0 46 17 89.5t48 77.5t73.5 54t92.5 20q51 0 82 -10t55 -32v37h93zM133 259q0 -33 6.5 -65t22.5 -57t43.5 -40t68.5 -15q34 0 59.5 14.5t42 39t24.5 57.5t8 71q0 73 -35 110t-99 37q-70 0 -104.5 -38t-36.5 -114zM259 726h67
l117 -143h-67l-85 73l-80 -73h-71z" />
    <glyph glyph-name="Gbre" unicode="G&#x306;" horiz-adv-x="675" 
d="M39 349q0 59 17 107.5t46 86.5t66.5 66t79.5 46t84.5 27t81.5 9q37 0 71 -6.5t62.5 -16t49 -19.5t29.5 -17l-29 -72q-30 13 -54.5 21.5t-45.5 13.5t-41 7t-42 2q-52 0 -102.5 -16.5t-90 -49t-63.5 -80t-24 -108.5q0 -65 23 -115t61.5 -84t87 -51t99.5 -17q32 0 59 4.5
t48 11.5l8 3h4v216h94v-263q-13 -9 -33 -19.5t-46 -19.5t-59 -15t-72 -6q-66 0 -131.5 20.5t-118.5 64t-86 110t-33 159.5zM327 897q0 -40 24 -58.5t60 -18.5q35 0 59.5 18.5t24.5 58.5h71q0 -39 -14.5 -66.5t-37 -44.5t-50 -24.5t-54.5 -7.5q-30 0 -57.5 7.5t-49 24.5
t-34.5 44.5t-13 66.5h71z" />
    <glyph glyph-name="gbre" unicode="g&#x306;" horiz-adv-x="579" 
d="M501 493v-438q0 -46 -1 -70.5t-4 -34.5q-12 -42 -34.5 -74.5t-54 -55.5t-70 -35t-81.5 -12q-8 0 -30.5 3t-50.5 9t-56.5 14.5t-49.5 19.5l20 75q8 -2 22.5 -6l24.5 -7q29 -8 61 -15.5t57 -6.5q5 0 9.5 -0.5t8.5 -0.5q58 0 97 38t39 112v49q-38 -39 -79 -50t-76 -11
q-57 0 -97 22.5t-66 59t-38 83.5t-12 96q0 46 17 89.5t48 77.5t73.5 54t92.5 20q51 0 82 -10t55 -32v37h93zM133 259q0 -33 6.5 -65t22.5 -57t43.5 -40t68.5 -15q34 0 59.5 14.5t42 39t24.5 57.5t8 71q0 73 -35 110t-99 37q-70 0 -104.5 -38t-36.5 -114zM216 726
q0 -40 24 -58.5t60 -18.5q35 0 59.5 18.5t24.5 58.5h71q0 -39 -14.5 -66.5t-37 -44.5t-50 -24.5t-54.5 -7.5q-30 0 -57.5 7.5t-49 24.5t-34.5 44.5t-13 66.5h71z" />
    <glyph glyph-name="Gdot" unicode="G&#x307;" horiz-adv-x="675" 
d="M39 349q0 59 17 107.5t46 86.5t66.5 66t79.5 46t84.5 27t81.5 9q37 0 71 -6.5t62.5 -16t49 -19.5t29.5 -17l-29 -72q-30 13 -54.5 21.5t-45.5 13.5t-41 7t-42 2q-52 0 -102.5 -16.5t-90 -49t-63.5 -80t-24 -108.5q0 -65 23 -115t61.5 -84t87 -51t99.5 -17q32 0 59 4.5
t48 11.5l8 3h4v216h94v-263q-13 -9 -33 -19.5t-46 -19.5t-59 -15t-72 -6q-66 0 -131.5 20.5t-118.5 64t-86 110t-33 159.5zM363 827q0 22 15 38t38 16q24 0 39 -16t15 -38q0 -23 -15 -39.5t-39 -16.5q-23 0 -38 16.5t-15 39.5z" />
    <glyph glyph-name="gdot" unicode="g&#x307;" horiz-adv-x="579" 
d="M501 493v-438q0 -46 -1 -70.5t-4 -34.5q-12 -42 -34.5 -74.5t-54 -55.5t-70 -35t-81.5 -12q-8 0 -30.5 3t-50.5 9t-56.5 14.5t-49.5 19.5l20 75q8 -2 22.5 -6l24.5 -7q29 -8 61 -15.5t57 -6.5q5 0 9.5 -0.5t8.5 -0.5q58 0 97 38t39 112v49q-38 -39 -79 -50t-76 -11
q-57 0 -97 22.5t-66 59t-38 83.5t-12 96q0 46 17 89.5t48 77.5t73.5 54t92.5 20q51 0 82 -10t55 -32v37h93zM133 259q0 -33 6.5 -65t22.5 -57t43.5 -40t68.5 -15q34 0 59.5 14.5t42 39t24.5 57.5t8 71q0 73 -35 110t-99 37q-70 0 -104.5 -38t-36.5 -114zM254 656q0 22 15 38
t38 16q24 0 39 -16t15 -38q0 -23 -15 -39.5t-39 -16.5q-23 0 -38 16.5t-15 39.5z" />
    <glyph glyph-name="Gced" unicode="G&#x327;" horiz-adv-x="675" 
d="M39 349q0 59 17 107.5t46 86.5t66.5 66t79.5 46t84.5 27t81.5 9q37 0 71 -6.5t62.5 -16t49 -19.5t29.5 -17l-29 -72q-30 13 -54.5 21.5t-45.5 13.5t-41 7t-42 2q-52 0 -102.5 -16.5t-90 -49t-63.5 -80t-24 -108.5q0 -65 23 -115t61.5 -84t87 -51t99.5 -17q32 0 59 4.5
t48 11.5l8 3h4v216h94v-263q-13 -9 -33 -19.5t-46 -19.5t-59 -15t-72 -6q-66 0 -131.5 20.5t-118.5 64t-86 110t-33 159.5zM464 20l-40 -74q42 -11 66.5 -26t24.5 -55q0 -29 -14.5 -46t-37 -26t-48.5 -11.5t-49 -2.5q-14 0 -31 1t-18 1h-2l6 52q15 -2 26 -3t19 0
q12 0 23.5 1t21.5 4t16 9t6 16q0 11 -8 17.5t-20 10.5t-26.5 6t-26.5 4l35 122h77z" />
    <glyph glyph-name="gced" unicode="g&#x327;" horiz-adv-x="579" 
d="M501 493v-438q0 -46 -1 -70.5t-4 -34.5q-12 -42 -34.5 -74.5t-54 -55.5t-70 -35t-81.5 -12q-8 0 -30.5 3t-50.5 9t-56.5 14.5t-49.5 19.5l20 75q8 -2 22.5 -6l24.5 -7q29 -8 61 -15.5t57 -6.5q5 0 9.5 -0.5t8.5 -0.5q58 0 97 38t39 112v49q-38 -39 -79 -50t-76 -11
q-57 0 -97 22.5t-66 59t-38 83.5t-12 96q0 46 17 89.5t48 77.5t73.5 54t92.5 20q51 0 82 -10t55 -32v37h93zM133 259q0 -33 6.5 -65t22.5 -57t43.5 -40t68.5 -15q34 0 59.5 14.5t42 39t24.5 57.5t8 71q0 73 -35 110t-99 37q-70 0 -104.5 -38t-36.5 -114zM364 655
q0 -11 -5 -22.5t-13 -21t-18 -15.5t-21 -6q-15 0 -27.5 6.5t-21.5 16.5t-14.5 23t-5.5 25q0 26 8.5 52.5t23.5 47.5t36 34t46 13v-41q-10 0 -19.5 -7t-17 -16t-12 -18t-4.5 -13q10 0 21.5 -5t21 -13.5t16 -19t6.5 -20.5z" />
    <glyph glyph-name="Hcir" unicode="H&#x302;" horiz-adv-x="653" 
d="M62 686h96v-270h325v270h95v-686h-95v328h-325v-328h-96v686zM291 897h67l117 -143h-67l-85 73l-80 -73h-71z" />
    <glyph glyph-name="hcir" unicode="h&#x302;" horiz-adv-x="534" 
d="M62 696h94v-242q19 15 52 27t97 12q39 0 71.5 -12.5t55.5 -35.5t36 -55t13 -72v-318h-94v315q0 9 -2 24.5t-12.5 30.5t-34.5 26t-67 11q-24 0 -44.5 -10t-36.5 -24.5t-25 -30.5t-9 -29v-313h-94v696zM256 897h67l117 -143h-67l-85 73l-80 -73h-71z" />
    <glyph glyph-name="Itil" unicode="I&#x303;" horiz-adv-x="216" 
d="M59 686h94v-686h-94v686zM-55 795q18 30 32 47.5t26 26t24.5 11t28.5 2.5q30 0 49 -11t34 -23q13 -9 25 -16.5t27 -7.5q7 0 15 6.5t16.5 16.5t15.5 21.5l13 21.5l48 -48q-21 -40 -47 -61t-61 -21q-31 0 -53.5 12t-40.5 25q-11 8 -20.5 14t-20.5 6q-17 0 -30 -18t-24 -37
l-6 -7z" />
    <glyph glyph-name="itil" unicode="i&#x303;" horiz-adv-x="237" 
d="M69 0v493h94v-493h-94zM-45 624q18 30 32 47.5t26 26t24.5 11t28.5 2.5q30 0 49 -11t34 -23q13 -9 25 -16.5t27 -7.5q7 0 15 6.5t16.5 16.5t15.5 21.5l13 21.5l48 -48q-21 -40 -47 -61t-61 -21q-31 0 -53.5 12t-40.5 25q-11 8 -20.5 14t-20.5 6q-17 0 -30 -18t-24 -37
l-6 -7z" />
    <glyph glyph-name="Imac" unicode="I&#x304;" horiz-adv-x="216" 
d="M59 686h94v-686h-94v686zM-42 864h310v-77h-310v77z" />
    <glyph glyph-name="imac" unicode="i&#x304;" horiz-adv-x="253" 
d="M69 0v493h94v-493h-94zM-33 693h310v-77h-310v77z" />
    <glyph glyph-name="Ibre" unicode="I&#x306;" horiz-adv-x="216" 
d="M59 686h94v-686h-94v686zM29 897q0 -40 24 -58.5t60 -18.5q35 0 59.5 18.5t24.5 58.5h71q0 -39 -14.5 -66.5t-37 -44.5t-50 -24.5t-54.5 -7.5q-30 0 -57.5 7.5t-49 24.5t-34.5 44.5t-13 66.5h71z" />
    <glyph glyph-name="ibre" unicode="i&#x306;" horiz-adv-x="237" 
d="M69 0v493h94v-493h-94zM38 726q0 -40 24 -58.5t60 -18.5q35 0 59.5 18.5t24.5 58.5h71q0 -39 -14.5 -66.5t-37 -44.5t-50 -24.5t-54.5 -7.5q-30 0 -57.5 7.5t-49 24.5t-34.5 44.5t-13 66.5h71z" />
    <glyph glyph-name="Iogo" unicode="I&#x328;" horiz-adv-x="242" 
d="M126 0q-13 -14 -19.5 -39t-6.5 -43q0 -42 52 -42h48v-40q-33 -15 -71 -15q-46 0 -75 20t-29 61q0 24 11 51t26 47h-3v686h95v-686h-28z" />
    <glyph glyph-name="iogo" unicode="i&#x328;" horiz-adv-x="228" 
d="M122 0q-14 -13 -20.5 -38t-6.5 -43q0 -42 51 -42h47v-39q-31 -14 -70 -14q-45 0 -73.5 19.5t-28.5 59.5q0 24 11 50.5t25 46.5h-7v493h94v-493h-22zM44 626q0 22 15 37.5t38 15.5t38.5 -15.5t15.5 -37.5q0 -23 -15.5 -39.5t-38.5 -16.5t-38 16.5t-15 39.5z" />
    <glyph glyph-name="Jcir" unicode="J&#x302;" horiz-adv-x="238" 
d="M80 686h95v-731q0 -39 -16 -64.5t-38.5 -40t-48 -20.5t-44.5 -6q-11 0 -20 8.5t-9 16.5q0 19 24 33q7 4 16.5 13t18.5 22.5t15.5 32.5t6.5 43v693zM95 897h67l117 -143h-67l-85 73l-80 -73h-71z" />
    <glyph glyph-name="jcir" unicode="j&#x302;" horiz-adv-x="243" 
d="M179 493v-583q0 -13 -5 -35.5t-18.5 -44.5t-38 -38.5t-64.5 -16.5q-16 0 -22.5 11.5t-6.5 16.5q0 21 19 35l9 7q13 11 23 24.5t10 46.5v577h94zM106 726h67l117 -143h-67l-85 73l-80 -73h-71z" />
    <glyph glyph-name="Kced" unicode="K&#x327;" horiz-adv-x="555" 
d="M170 314l-13 -13v-301h-95v686h95v-268l280 279l78 -48l-280 -276l303 -336l-90 -41zM325 20l-40 -74q42 -11 66.5 -26t24.5 -55q0 -29 -14.5 -46t-37 -26t-48.5 -11.5t-49 -2.5q-14 0 -31 1t-18 1h-2l6 52q15 -2 26 -3t19 0q12 0 23.5 1t21.5 4t16 9t6 16q0 11 -8 17.5
t-20 10.5t-26.5 6t-26.5 4l35 122h77z" />
    <glyph glyph-name="kced" unicode="k&#x327;" horiz-adv-x="482" 
d="M62 0v696h93v-378l175 175h122l-224 -225l230 -268h-114l-178 209l-11 -11v-198h-93zM292 20l-40 -74q42 -11 66.5 -26t24.5 -55q0 -29 -14.5 -46t-37 -26t-48.5 -11.5t-49 -2.5q-14 0 -31 1t-18 1h-2l6 52q15 -2 26 -3t19 0q12 0 23.5 1t21.5 4t16 9t6 16q0 11 -8 17.5
t-20 10.5t-26.5 6t-26.5 4l35 122h77z" />
    <glyph glyph-name="Lacu" unicode="L&#x301;" horiz-adv-x="458" 
d="M61 686h95v-599h279v-87h-374v686zM253 878q0 -10 -24 -30.5t-56 -41.5t-64 -36.5t-47 -16.5q-11 0 -17.5 3.5t-6.5 14.5q0 5 4 12v-1q1 2 11 12.5t26 25l35.5 31t38.5 30t35.5 22.5t26.5 9q19 0 28.5 -7t9.5 -27z" />
    <glyph glyph-name="lacu" unicode="l&#x301;" horiz-adv-x="216" 
d="M58 696h94v-696h-94v696zM250 878q0 -10 -24 -30.5t-56 -41.5t-64 -36.5t-47 -16.5q-11 0 -17.5 3.5t-6.5 14.5q0 5 4 12v-1q1 2 11 12.5t26 25l35.5 31t38.5 30t35.5 22.5t26.5 9q19 0 28.5 -7t9.5 -27z" />
    <glyph glyph-name="Lced" unicode="L&#x327;" horiz-adv-x="458" 
d="M61 686h95v-599h279v-87h-374v686zM300 20l-40 -74q42 -11 66.5 -26t24.5 -55q0 -29 -14.5 -46t-37 -26t-48.5 -11.5t-49 -2.5q-14 0 -31 1t-18 1h-2l6 52q15 -2 26 -3t19 0q12 0 23.5 1t21.5 4t16 9t6 16q0 11 -8 17.5t-20 10.5t-26.5 6t-26.5 4l35 122h77z" />
    <glyph glyph-name="lced" unicode="l&#x327;" horiz-adv-x="216" 
d="M58 696h94v-696h-94v696zM152 20l-40 -74q42 -11 66.5 -26t24.5 -55q0 -29 -14.5 -46t-37 -26t-48.5 -11.5t-49 -2.5q-14 0 -31 1t-18 1h-2l6 52q15 -2 26 -3t19 0q12 0 23.5 1t21.5 4t16 9t6 16q0 11 -8 17.5t-20 10.5t-26.5 6t-26.5 4l35 122h77z" />
    <glyph glyph-name="Lcar" unicode="L&#x30c;" horiz-adv-x="528" 
d="M61 686h95v-599h279v-87h-374v686zM354 616q0 32 20 56t51 24q19 0 35 -7.5t26.5 -19.5t16.5 -27.5t6 -31.5q0 -35 -10.5 -69t-29 -61t-44.5 -43.5t-57 -16.5v50q11 0 23.5 8.5t22.5 20t16.5 24t6.5 20.5q0 2 -2 2q-14 0 -28.5 5.5t-26 15.5t-19 23t-7.5 27z" />
    <glyph glyph-name="lcar" unicode="l&#x30c;" horiz-adv-x="386" 
d="M58 696h94v-696h-94v696zM212 616q0 32 20 56t51 24q19 0 35 -7.5t26.5 -19.5t16.5 -27.5t6 -31.5q0 -35 -10.5 -69t-29 -61t-44.5 -43.5t-57 -16.5v50q11 0 23.5 8.5t22.5 20t16.5 24t6.5 20.5q0 2 -2 2q-14 0 -28.5 5.5t-26 15.5t-19 23t-7.5 27z" />
    <glyph glyph-name="Nacu" unicode="N&#x301;" horiz-adv-x="752" 
d="M131 686l447 -517v517h96v-686h-69l-445 517v-517h-97v686h68zM512 878q0 -10 -24 -30.5t-56 -41.5t-64 -36.5t-47 -16.5q-11 0 -17.5 3.5t-6.5 14.5q0 5 4 12v-1q1 2 11 12.5t26 25l35.5 31t38.5 30t35.5 22.5t26.5 9q19 0 28.5 -7t9.5 -27z" />
    <glyph glyph-name="nacu" unicode="n&#x301;" horiz-adv-x="534" 
d="M62 493h94v-39q19 15 52 27t97 12q39 0 71.5 -12.5t55.5 -35.5t36 -55t13 -72v-318h-94v315q0 9 -2 24.5t-12.5 30.5t-34.5 26t-67 11q-24 0 -44.5 -10t-36.5 -24.5t-25 -30.5t-9 -29v-313h-94v493zM434 707q0 -10 -24 -30.5t-56 -41.5t-64 -36.5t-47 -16.5
q-11 0 -17.5 3.5t-6.5 14.5q0 5 4 12v-1q1 2 11 12.5t26 25l35.5 31t38.5 30t35.5 22.5t26.5 9q19 0 28.5 -7t9.5 -27z" />
    <glyph glyph-name="Nced" unicode="N&#x327;" horiz-adv-x="752" 
d="M131 686l447 -517v517h96v-686h-69l-445 517v-517h-97v686h68zM413 20l-40 -74q42 -11 66.5 -26t24.5 -55q0 -29 -14.5 -46t-37 -26t-48.5 -11.5t-49 -2.5q-14 0 -31 1t-18 1h-2l6 52q15 -2 26 -3t19 0q12 0 23.5 1t21.5 4t16 9t6 16q0 11 -8 17.5t-20 10.5t-26.5 6
t-26.5 4l35 122h77z" />
    <glyph glyph-name="nced" unicode="n&#x327;" horiz-adv-x="534" 
d="M62 493h94v-39q19 15 52 27t97 12q39 0 71.5 -12.5t55.5 -35.5t36 -55t13 -72v-318h-94v315q0 9 -2 24.5t-12.5 30.5t-34.5 26t-67 11q-24 0 -44.5 -10t-36.5 -24.5t-25 -30.5t-9 -29v-313h-94v493zM325 20l-40 -74q42 -11 66.5 -26t24.5 -55q0 -29 -14.5 -46t-37 -26
t-48.5 -11.5t-49 -2.5q-14 0 -31 1t-18 1h-2l6 52q15 -2 26 -3t19 0q12 0 23.5 1t21.5 4t16 9t6 16q0 11 -8 17.5t-20 10.5t-26.5 6t-26.5 4l35 122h77z" />
    <glyph glyph-name="Ncar" unicode="N&#x30c;" horiz-adv-x="752" 
d="M131 686l447 -517v517h96v-686h-69l-445 517v-517h-97v686h68zM395 754h-66l-118 143h68l84 -74l81 74h71z" />
    <glyph glyph-name="ncar" unicode="n&#x30c;" horiz-adv-x="534" 
d="M62 493h94v-39q19 15 52 27t97 12q39 0 71.5 -12.5t55.5 -35.5t36 -55t13 -72v-318h-94v315q0 9 -2 24.5t-12.5 30.5t-34.5 26t-67 11q-24 0 -44.5 -10t-36.5 -24.5t-25 -30.5t-9 -29v-313h-94v493zM319 583h-66l-118 143h68l84 -74l81 74h71z" />
    <glyph glyph-name="Omac" unicode="O&#x304;" horiz-adv-x="770" 
d="M135 352q0 -53 15.5 -101.5t46 -86t75.5 -59.5t103 -22q70 0 117 22t75.5 59.5t40.5 86t12 101.5q0 55 -13.5 101t-43 79.5t-76 52t-112.5 18.5q-60 0 -105 -18.5t-75 -52t-45 -79.5t-15 -101zM375 -5q-70 0 -122.5 17.5t-89.5 46.5t-61 66t-37.5 77t-19 79t-5.5 71
q0 74 24 136t68 107t105.5 70.5t137.5 25.5q88 0 152 -25.5t106 -70.5t62 -107t20 -136q0 -32 -5.5 -71t-20 -79t-39.5 -77t-62.5 -66t-90 -46.5t-122.5 -17.5zM233 864h310v-77h-310v77z" />
    <glyph glyph-name="omac" unicode="o&#x304;" horiz-adv-x="563" 
d="M40 246q0 53 18.5 99.5t50 81.5t74 55t90.5 20q49 0 91.5 -20t74.5 -55t50.5 -81.5t18.5 -99.5t-18.5 -99t-50.5 -81t-74.5 -55t-91.5 -20q-48 0 -90.5 20t-74 55t-50 81t-18.5 99zM133 246q0 -35 11 -65.5t30 -53.5t44.5 -36.5t54.5 -13.5t55 13.5t45 36.5t30 53.5
t11 65.5t-11 66t-30 54t-45 36.5t-55 13.5t-54.5 -13.5t-44.5 -36.5t-30 -54t-11 -66zM132 693h310v-77h-310v77z" />
    <glyph glyph-name="Obre" unicode="O&#x306;" horiz-adv-x="770" 
d="M135 352q0 -53 15.5 -101.5t46 -86t75.5 -59.5t103 -22q70 0 117 22t75.5 59.5t40.5 86t12 101.5q0 55 -13.5 101t-43 79.5t-76 52t-112.5 18.5q-60 0 -105 -18.5t-75 -52t-45 -79.5t-15 -101zM375 -5q-70 0 -122.5 17.5t-89.5 46.5t-61 66t-37.5 77t-19 79t-5.5 71
q0 74 24 136t68 107t105.5 70.5t137.5 25.5q88 0 152 -25.5t106 -70.5t62 -107t20 -136q0 -32 -5.5 -71t-20 -79t-39.5 -77t-62.5 -66t-90 -46.5t-122.5 -17.5zM304 897q0 -40 24 -58.5t60 -18.5q35 0 59.5 18.5t24.5 58.5h71q0 -39 -14.5 -66.5t-37 -44.5t-50 -24.5
t-54.5 -7.5q-30 0 -57.5 7.5t-49 24.5t-34.5 44.5t-13 66.5h71z" />
    <glyph glyph-name="obre" unicode="o&#x306;" horiz-adv-x="563" 
d="M40 246q0 53 18.5 99.5t50 81.5t74 55t90.5 20q49 0 91.5 -20t74.5 -55t50.5 -81.5t18.5 -99.5t-18.5 -99t-50.5 -81t-74.5 -55t-91.5 -20q-48 0 -90.5 20t-74 55t-50 81t-18.5 99zM133 246q0 -35 11 -65.5t30 -53.5t44.5 -36.5t54.5 -13.5t55 13.5t45 36.5t30 53.5
t11 65.5t-11 66t-30 54t-45 36.5t-55 13.5t-54.5 -13.5t-44.5 -36.5t-30 -54t-11 -66zM203 726q0 -40 24 -58.5t60 -18.5q35 0 59.5 18.5t24.5 58.5h71q0 -39 -14.5 -66.5t-37 -44.5t-50 -24.5t-54.5 -7.5q-30 0 -57.5 7.5t-49 24.5t-34.5 44.5t-13 66.5h71z" />
    <glyph glyph-name="Odac" unicode="O&#x30b;" horiz-adv-x="770" 
d="M135 352q0 -53 15.5 -101.5t46 -86t75.5 -59.5t103 -22q70 0 117 22t75.5 59.5t40.5 86t12 101.5q0 55 -13.5 101t-43 79.5t-76 52t-112.5 18.5q-60 0 -105 -18.5t-75 -52t-45 -79.5t-15 -101zM375 -5q-70 0 -122.5 17.5t-89.5 46.5t-61 66t-37.5 77t-19 79t-5.5 71
q0 74 24 136t68 107t105.5 70.5t137.5 25.5q88 0 152 -25.5t106 -70.5t62 -107t20 -136q0 -32 -5.5 -71t-20 -79t-39.5 -77t-62.5 -66t-90 -46.5t-122.5 -17.5zM639 878q0 -10 -24 -30.5t-56 -41t-63.5 -36.5t-46.5 -17q-12 0 -17.5 3.5t-5.5 15.5q0 3 0.5 5.5t1.5 5.5
q1 2 11.5 12.5t26.5 24.5l35.5 30.5t38.5 30t35.5 22.5t26.5 9q18 0 27.5 -7t9.5 -27zM461 878q0 -10 -24 -30.5t-56 -41t-63.5 -36.5t-46.5 -17q-12 0 -18 3.5t-6 15.5q0 3 0.5 5.5t1.5 5.5q1 2 11.5 12.5t26.5 24.5l35.5 30.5t38.5 30t36 22.5t27 9q18 0 27.5 -7t9.5 -27z
" />
    <glyph glyph-name="odac" unicode="o&#x30b;" horiz-adv-x="563" 
d="M40 246q0 53 18.5 99.5t50 81.5t74 55t90.5 20q49 0 91.5 -20t74.5 -55t50.5 -81.5t18.5 -99.5t-18.5 -99t-50.5 -81t-74.5 -55t-91.5 -20q-48 0 -90.5 20t-74 55t-50 81t-18.5 99zM133 246q0 -35 11 -65.5t30 -53.5t44.5 -36.5t54.5 -13.5t55 13.5t45 36.5t30 53.5
t11 65.5t-11 66t-30 54t-45 36.5t-55 13.5t-54.5 -13.5t-44.5 -36.5t-30 -54t-11 -66zM538 707q0 -10 -24 -30.5t-56 -41t-63.5 -36.5t-46.5 -17q-12 0 -17.5 3.5t-5.5 15.5q0 3 0.5 5.5t1.5 5.5q1 2 11.5 12.5t26.5 24.5l35.5 30.5t38.5 30t35.5 22.5t26.5 9q18 0 27.5 -7
t9.5 -27zM360 707q0 -10 -24 -30.5t-56 -41t-63.5 -36.5t-46.5 -17q-12 0 -18 3.5t-6 15.5q0 3 0.5 5.5t1.5 5.5q1 2 11.5 12.5t26.5 24.5l35.5 30.5t38.5 30t36 22.5t27 9q18 0 27.5 -7t9.5 -27z" />
    <glyph glyph-name="Racu" unicode="R&#x301;" horiz-adv-x="537" 
d="M157 599v-255h39q34 0 65 8t54.5 25.5t37.5 44t14 63.5q0 25 -9 46t-24.5 36t-37 23.5t-45.5 8.5h-94zM61 686h127q50 0 99 -6t88 -27t63 -61t24 -108q0 -74 -35 -121.5t-90 -73.5l159 -269l-90 -29l-160 269q-14 -2 -32.5 -2.5t-56.5 -0.5v-257h-96v686zM388 878
q0 -10 -24 -30.5t-56 -41.5t-64 -36.5t-47 -16.5q-11 0 -17.5 3.5t-6.5 14.5q0 5 4 12v-1q1 2 11 12.5t26 25l35.5 31t38.5 30t35.5 22.5t26.5 9q19 0 28.5 -7t9.5 -27z" />
    <glyph glyph-name="racu" unicode="r&#x301;" horiz-adv-x="346" 
d="M61 493h93v-39q25 23 48.5 35.5t45.5 12.5q10 0 23 -2.5t24.5 -8.5t19.5 -16.5t8 -25.5q0 -12 -11.5 -24t-25.5 -16q-6 -2 -14.5 -2.5t-17.5 -1.5t-17 -1h-13q-23 0 -36.5 -18.5t-21 -42.5t-10 -47.5t-2.5 -33.5v-262h-93v493zM335 707q0 -10 -24 -30.5t-56 -41.5
t-64 -36.5t-47 -16.5q-11 0 -17.5 3.5t-6.5 14.5q0 5 4 12v-1q1 2 11 12.5t26 25l35.5 31t38.5 30t35.5 22.5t26.5 9q19 0 28.5 -7t9.5 -27z" />
    <glyph glyph-name="Rced" unicode="R&#x327;" horiz-adv-x="537" 
d="M157 599v-255h39q34 0 65 8t54.5 25.5t37.5 44t14 63.5q0 25 -9 46t-24.5 36t-37 23.5t-45.5 8.5h-94zM61 686h127q50 0 99 -6t88 -27t63 -61t24 -108q0 -74 -35 -121.5t-90 -73.5l159 -269l-90 -29l-160 269q-14 -2 -32.5 -2.5t-56.5 -0.5v-257h-96v686zM309 20l-40 -74
q42 -11 66.5 -26t24.5 -55q0 -29 -14.5 -46t-37 -26t-48.5 -11.5t-49 -2.5q-14 0 -31 1t-18 1h-2l6 52q15 -2 26 -3t19 0q12 0 23.5 1t21.5 4t16 9t6 16q0 11 -8 17.5t-20 10.5t-26.5 6t-26.5 4l35 122h77z" />
    <glyph glyph-name="rced" unicode="r&#x327;" horiz-adv-x="346" 
d="M61 493h93v-39q25 23 48.5 35.5t45.5 12.5q10 0 23 -2.5t24.5 -8.5t19.5 -16.5t8 -25.5q0 -12 -11.5 -24t-25.5 -16q-6 -2 -14.5 -2.5t-17.5 -1.5t-17 -1h-13q-23 0 -36.5 -18.5t-21 -42.5t-10 -47.5t-2.5 -33.5v-262h-93v493zM157 20l-40 -74q42 -11 66.5 -26t24.5 -55
q0 -29 -14.5 -46t-37 -26t-48.5 -11.5t-49 -2.5q-14 0 -31 1t-18 1h-2l6 52q15 -2 26 -3t19 0q12 0 23.5 1t21.5 4t16 9t6 16q0 11 -8 17.5t-20 10.5t-26.5 6t-26.5 4l35 122h77z" />
    <glyph glyph-name="Rcar" unicode="R&#x30c;" horiz-adv-x="537" 
d="M157 599v-255h39q34 0 65 8t54.5 25.5t37.5 44t14 63.5q0 25 -9 46t-24.5 36t-37 23.5t-45.5 8.5h-94zM61 686h127q50 0 99 -6t88 -27t63 -61t24 -108q0 -74 -35 -121.5t-90 -73.5l159 -269l-90 -29l-160 269q-14 -2 -32.5 -2.5t-56.5 -0.5v-257h-96v686zM269 754h-66
l-118 143h68l84 -74l81 74h71z" />
    <glyph glyph-name="rcar" unicode="r&#x30c;" horiz-adv-x="346" 
d="M61 493h93v-39q25 23 48.5 35.5t45.5 12.5q10 0 23 -2.5t24.5 -8.5t19.5 -16.5t8 -25.5q0 -12 -11.5 -24t-25.5 -16q-6 -2 -14.5 -2.5t-17.5 -1.5t-17 -1h-13q-23 0 -36.5 -18.5t-21 -42.5t-10 -47.5t-2.5 -33.5v-262h-93v493zM217 583h-66l-118 143h68l84 -74l81 74h71z
" />
    <glyph glyph-name="Sacu" unicode="S&#x301;" horiz-adv-x="465" 
d="M213 -5q-15 0 -40 5t-52.5 14.5t-54 23t-45.5 30.5l57 72q34 -23 67.5 -40t71.5 -17q25 0 46 5t37 15.5t25 27.5t9 41q0 27 -11 48.5t-28.5 39.5t-40 33.5l-45.5 30.5q-28 17 -56.5 36.5t-51 44.5t-37 57t-14.5 74q0 26 12.5 53.5t37 50t60 37t80.5 14.5q36 0 64 -5.5
t49 -14t36 -18.5t24 -19l-45 -73q-28 15 -57.5 26.5t-59.5 11.5q-20 0 -39 -4t-34 -12.5t-24 -21t-9 -30.5t9.5 -34t25.5 -31.5t35.5 -30t40.5 -28.5q29 -20 60 -44t56 -52.5t41 -63t16 -76.5t-19.5 -75t-50 -55.5t-69 -34t-77.5 -11.5zM390 878q0 -10 -24 -30.5t-56 -41.5
t-64 -36.5t-47 -16.5q-11 0 -17.5 3.5t-6.5 14.5q0 5 4 12v-1q1 2 11 12.5t26 25l35.5 31t38.5 30t35.5 22.5t26.5 9q19 0 28.5 -7t9.5 -27z" />
    <glyph glyph-name="sacu" unicode="s&#x301;" horiz-adv-x="395" 
d="M73 124q23 -15 49 -29.5t55 -13.5q28 0 52 10t24 34q0 36 -21.5 55t-52.5 37q-1 0 -2 1t-1.5 1t-1.5 1l-3 2q-20 13 -39.5 28.5t-36 35t-26.5 44.5t-10 56q0 28 12 49t33 35t49 21t60 7q7 0 21 -1.5t30.5 -5.5t32.5 -10.5t28 -15.5l-36 -70q-20 7 -37.5 11.5t-32.5 4.5
q-28 0 -47.5 -7.5t-19.5 -24.5q0 -32 19 -48.5t46 -31.5l21 -12q20 -12 39 -26.5t34.5 -34t25 -44.5t10.5 -57q0 -32 -14 -56.5t-38 -41t-55.5 -24.5t-66.5 -8q-23 0 -54.5 8.5t-85.5 41.5zM352 707q0 -10 -24 -30.5t-56 -41.5t-64 -36.5t-47 -16.5q-11 0 -17.5 3.5
t-6.5 14.5q0 5 4 12v-1q1 2 11 12.5t26 25l35.5 31t38.5 30t35.5 22.5t26.5 9q19 0 28.5 -7t9.5 -27z" />
    <glyph glyph-name="Scir" unicode="S&#x302;" horiz-adv-x="465" 
d="M213 -5q-15 0 -40 5t-52.5 14.5t-54 23t-45.5 30.5l57 72q34 -23 67.5 -40t71.5 -17q25 0 46 5t37 15.5t25 27.5t9 41q0 27 -11 48.5t-28.5 39.5t-40 33.5l-45.5 30.5q-28 17 -56.5 36.5t-51 44.5t-37 57t-14.5 74q0 26 12.5 53.5t37 50t60 37t80.5 14.5q36 0 64 -5.5
t49 -14t36 -18.5t24 -19l-45 -73q-28 15 -57.5 26.5t-59.5 11.5q-20 0 -39 -4t-34 -12.5t-24 -21t-9 -30.5t9.5 -34t25.5 -31.5t35.5 -30t40.5 -28.5q29 -20 60 -44t56 -52.5t41 -63t16 -76.5t-19.5 -75t-50 -55.5t-69 -34t-77.5 -11.5zM210 897h67l117 -143h-67l-85 73
l-80 -73h-71z" />
    <glyph glyph-name="scir" unicode="s&#x302;" horiz-adv-x="395" 
d="M73 124q23 -15 49 -29.5t55 -13.5q28 0 52 10t24 34q0 36 -21.5 55t-52.5 37q-1 0 -2 1t-1.5 1t-1.5 1l-3 2q-20 13 -39.5 28.5t-36 35t-26.5 44.5t-10 56q0 28 12 49t33 35t49 21t60 7q7 0 21 -1.5t30.5 -5.5t32.5 -10.5t28 -15.5l-36 -70q-20 7 -37.5 11.5t-32.5 4.5
q-28 0 -47.5 -7.5t-19.5 -24.5q0 -32 19 -48.5t46 -31.5l21 -12q20 -12 39 -26.5t34.5 -34t25 -44.5t10.5 -57q0 -32 -14 -56.5t-38 -41t-55.5 -24.5t-66.5 -8q-23 0 -54.5 8.5t-85.5 41.5zM171 726h67l117 -143h-67l-85 73l-80 -73h-71z" />
    <glyph glyph-name="Sced" unicode="S&#x327;" horiz-adv-x="465" 
d="M213 -5q-15 0 -40 5t-52.5 14.5t-54 23t-45.5 30.5l57 72q34 -23 67.5 -40t71.5 -17q25 0 46 5t37 15.5t25 27.5t9 41q0 27 -11 48.5t-28.5 39.5t-40 33.5l-45.5 30.5q-28 17 -56.5 36.5t-51 44.5t-37 57t-14.5 74q0 26 12.5 53.5t37 50t60 37t80.5 14.5q36 0 64 -5.5
t49 -14t36 -18.5t24 -19l-45 -73q-28 15 -57.5 26.5t-59.5 11.5q-20 0 -39 -4t-34 -12.5t-24 -21t-9 -30.5t9.5 -34t25.5 -31.5t35.5 -30t40.5 -28.5q29 -20 60 -44t56 -52.5t41 -63t16 -76.5t-19.5 -75t-50 -55.5t-69 -34t-77.5 -11.5zM272 20l-40 -74q42 -11 66.5 -26
t24.5 -55q0 -29 -14.5 -46t-37 -26t-48.5 -11.5t-49 -2.5q-14 0 -31 1t-18 1h-2l6 52q15 -2 26 -3t19 0q12 0 23.5 1t21.5 4t16 9t6 16q0 11 -8 17.5t-20 10.5t-26.5 6t-26.5 4l35 122h77z" />
    <glyph glyph-name="sced" unicode="s&#x327;" horiz-adv-x="395" 
d="M73 124q23 -15 49 -29.5t55 -13.5q28 0 52 10t24 34q0 36 -21.5 55t-52.5 37q-1 0 -2 1t-1.5 1t-1.5 1l-3 2q-20 13 -39.5 28.5t-36 35t-26.5 44.5t-10 56q0 28 12 49t33 35t49 21t60 7q7 0 21 -1.5t30.5 -5.5t32.5 -10.5t28 -15.5l-36 -70q-20 7 -37.5 11.5t-32.5 4.5
q-28 0 -47.5 -7.5t-19.5 -24.5q0 -32 19 -48.5t46 -31.5l21 -12q20 -12 39 -26.5t34.5 -34t25 -44.5t10.5 -57q0 -32 -14 -56.5t-38 -41t-55.5 -24.5t-66.5 -8q-23 0 -54.5 8.5t-85.5 41.5zM233 20l-40 -74q42 -11 66.5 -26t24.5 -55q0 -29 -14.5 -46t-37 -26t-48.5 -11.5
t-49 -2.5q-14 0 -31 1t-18 1h-2l6 52q15 -2 26 -3t19 0q12 0 23.5 1t21.5 4t16 9t6 16q0 11 -8 17.5t-20 10.5t-26.5 6t-26.5 4l35 122h77z" />
    <glyph glyph-name="Scar" unicode="S&#x30c;" horiz-adv-x="465" 
d="M213 -5q-15 0 -40 5t-52.5 14.5t-54 23t-45.5 30.5l57 72q34 -23 67.5 -40t71.5 -17q25 0 46 5t37 15.5t25 27.5t9 41q0 27 -11 48.5t-28.5 39.5t-40 33.5l-45.5 30.5q-28 17 -56.5 36.5t-51 44.5t-37 57t-14.5 74q0 26 12.5 53.5t37 50t60 37t80.5 14.5q36 0 64 -5.5
t49 -14t36 -18.5t24 -19l-45 -73q-28 15 -57.5 26.5t-59.5 11.5q-20 0 -39 -4t-34 -12.5t-24 -21t-9 -30.5t9.5 -34t25.5 -31.5t35.5 -30t40.5 -28.5q29 -20 60 -44t56 -52.5t41 -63t16 -76.5t-19.5 -75t-50 -55.5t-69 -34t-77.5 -11.5zM274 754h-66l-118 143h68l84 -74
l81 74h71z" />
    <glyph glyph-name="scar" unicode="s&#x30c;" horiz-adv-x="395" 
d="M73 124q23 -15 49 -29.5t55 -13.5q28 0 52 10t24 34q0 36 -21.5 55t-52.5 37q-1 0 -2 1t-1.5 1t-1.5 1l-3 2q-20 13 -39.5 28.5t-36 35t-26.5 44.5t-10 56q0 28 12 49t33 35t49 21t60 7q7 0 21 -1.5t30.5 -5.5t32.5 -10.5t28 -15.5l-36 -70q-20 7 -37.5 11.5t-32.5 4.5
q-28 0 -47.5 -7.5t-19.5 -24.5q0 -32 19 -48.5t46 -31.5l21 -12q20 -12 39 -26.5t34.5 -34t25 -44.5t10.5 -57q0 -32 -14 -56.5t-38 -41t-55.5 -24.5t-66.5 -8q-23 0 -54.5 8.5t-85.5 41.5zM235 583h-66l-118 143h68l84 -74l81 74h71z" />
    <glyph glyph-name="Tced" unicode="T&#x327;" horiz-adv-x="560" 
d="M227 599h-211v87h518v-87h-212v-599h-95v599zM325 20l-40 -74q42 -11 66.5 -26t24.5 -55q0 -29 -14.5 -46t-37 -26t-48.5 -11.5t-49 -2.5q-14 0 -31 1t-18 1h-2l6 52q15 -2 26 -3t19 0q12 0 23.5 1t21.5 4t16 9t6 16q0 11 -8 17.5t-20 10.5t-26.5 6t-26.5 4l35 122h77z
" />
    <glyph glyph-name="tced" unicode="t&#x327;" horiz-adv-x="332" 
d="M223 0q-70 0 -106.5 39t-36.5 117v251h-66v86h66v102l93 26v-128h120v-86h-120v-268q0 -25 13 -39t48 -14l14 1h-1l17 2l14 2l23 4l10 -81q-22 -6 -45 -10t-43 -4zM246 20l-40 -74q42 -11 66.5 -26t24.5 -55q0 -29 -14.5 -46t-37 -26t-48.5 -11.5t-49 -2.5q-14 0 -31 1
t-18 1h-2l6 52q15 -2 26 -3t19 0q12 0 23.5 1t21.5 4t16 9t6 16q0 11 -8 17.5t-20 10.5t-26.5 6t-26.5 4l35 122h77z" />
    <glyph glyph-name="Tcar" unicode="T&#x30c;" horiz-adv-x="560" 
d="M227 599h-211v87h518v-87h-212v-599h-95v599zM308 754h-66l-118 143h68l84 -74l81 74h71z" />
    <glyph glyph-name="tcar" unicode="t&#x30c;" horiz-adv-x="503" 
d="M223 0q-70 0 -106.5 39t-36.5 117v251h-66v86h66v102l93 26v-128h120v-86h-120v-268q0 -25 13 -39t48 -14l14 1h-1l17 2l14 2l23 4l10 -81q-22 -6 -45 -10t-43 -4zM328 616q0 32 20 56t51 24q19 0 35 -7.5t26.5 -19.5t16.5 -27.5t6 -31.5q0 -35 -10.5 -69t-29 -61
t-44.5 -43.5t-57 -16.5v50q11 0 23.5 8.5t22.5 20t16.5 24t6.5 20.5q0 2 -2 2q-14 0 -28.5 5.5t-26 15.5t-19 23t-7.5 27z" />
    <glyph glyph-name="Util" unicode="U&#x303;" horiz-adv-x="660" 
d="M62 686h96v-439q0 -47 13.5 -78.5t36 -50.5t52.5 -27t63 -8q28 0 58 10t54 30.5t39.5 51.5t15.5 73v438h95v-438q0 -55 -14.5 -95t-38 -68t-53 -46t-58.5 -27.5t-55 -13t-43 -3.5q-19 0 -45.5 2.5t-55.5 11t-58 24.5t-51.5 44.5t-36.5 70t-14 100.5v438zM167 795
q18 30 32 47.5t26 26t24.5 11t28.5 2.5q30 0 49 -11t34 -23q13 -9 25 -16.5t27 -7.5q7 0 15 6.5t16.5 16.5t15.5 21.5l13 21.5l48 -48q-21 -40 -47 -61t-61 -21q-31 0 -53.5 12t-40.5 25q-11 8 -20.5 14t-20.5 6q-17 0 -30 -18t-24 -37l-6 -7z" />
    <glyph glyph-name="util" unicode="u&#x303;" horiz-adv-x="543" 
d="M388 0l-10 36q-39 -26 -72.5 -33.5t-71.5 -7.5q-88 0 -130 46.5t-42 136.5v315h94v-321q0 -27 10 -45t25.5 -28t34.5 -14t36 -4q21 0 40.5 5.5t35 16.5t25 28.5t9.5 40.5v321h94v-493h-78zM115 624q18 30 32 47.5t26 26t24.5 11t28.5 2.5q30 0 49 -11t34 -23
q13 -9 25 -16.5t27 -7.5q7 0 15 6.5t16.5 16.5t15.5 21.5l13 21.5l48 -48q-21 -40 -47 -61t-61 -21q-31 0 -53.5 12t-40.5 25q-11 8 -20.5 14t-20.5 6q-17 0 -30 -18t-24 -37l-6 -7z" />
    <glyph glyph-name="Umac" unicode="U&#x304;" horiz-adv-x="660" 
d="M62 686h96v-439q0 -47 13.5 -78.5t36 -50.5t52.5 -27t63 -8q28 0 58 10t54 30.5t39.5 51.5t15.5 73v438h95v-438q0 -55 -14.5 -95t-38 -68t-53 -46t-58.5 -27.5t-55 -13t-43 -3.5q-19 0 -45.5 2.5t-55.5 11t-58 24.5t-51.5 44.5t-36.5 70t-14 100.5v438zM180 864h310v-77
h-310v77z" />
    <glyph glyph-name="umac" unicode="u&#x304;" horiz-adv-x="543" 
d="M388 0l-10 36q-39 -26 -72.5 -33.5t-71.5 -7.5q-88 0 -130 46.5t-42 136.5v315h94v-321q0 -27 10 -45t25.5 -28t34.5 -14t36 -4q21 0 40.5 5.5t35 16.5t25 28.5t9.5 40.5v321h94v-493h-78zM128 693h310v-77h-310v77z" />
    <glyph glyph-name="Ubre" unicode="U&#x306;" horiz-adv-x="660" 
d="M62 686h96v-439q0 -47 13.5 -78.5t36 -50.5t52.5 -27t63 -8q28 0 58 10t54 30.5t39.5 51.5t15.5 73v438h95v-438q0 -55 -14.5 -95t-38 -68t-53 -46t-58.5 -27.5t-55 -13t-43 -3.5q-19 0 -45.5 2.5t-55.5 11t-58 24.5t-51.5 44.5t-36.5 70t-14 100.5v438zM251 897
q0 -40 24 -58.5t60 -18.5q35 0 59.5 18.5t24.5 58.5h71q0 -39 -14.5 -66.5t-37 -44.5t-50 -24.5t-54.5 -7.5q-30 0 -57.5 7.5t-49 24.5t-34.5 44.5t-13 66.5h71z" />
    <glyph glyph-name="ubre" unicode="u&#x306;" horiz-adv-x="543" 
d="M388 0l-10 36q-39 -26 -72.5 -33.5t-71.5 -7.5q-88 0 -130 46.5t-42 136.5v315h94v-321q0 -27 10 -45t25.5 -28t34.5 -14t36 -4q21 0 40.5 5.5t35 16.5t25 28.5t9.5 40.5v321h94v-493h-78zM199 726q0 -40 24 -58.5t60 -18.5q35 0 59.5 18.5t24.5 58.5h71
q0 -39 -14.5 -66.5t-37 -44.5t-50 -24.5t-54.5 -7.5q-30 0 -57.5 7.5t-49 24.5t-34.5 44.5t-13 66.5h71z" />
    <glyph glyph-name="Urin" unicode="U&#x30a;" horiz-adv-x="660" 
d="M62 686h96v-439q0 -47 13.5 -78.5t36 -50.5t52.5 -27t63 -8q28 0 58 10t54 30.5t39.5 51.5t15.5 73v438h95v-438q0 -55 -14.5 -95t-38 -68t-53 -46t-58.5 -27.5t-55 -13t-43 -3.5q-19 0 -45.5 2.5t-55.5 11t-58 24.5t-51.5 44.5t-36.5 70t-14 100.5v438zM286 823
q0 -19 15 -33.5t36 -14.5q20 0 34.5 14.5t14.5 33.5q0 21 -14.5 36t-34.5 15q-21 0 -36 -15t-15 -36zM239 825q0 20 7.5 37.5t21 31t31.5 21.5t38 8q18 0 35.5 -8t31 -21.5t21.5 -31t8 -37.5t-8 -37t-21.5 -30.5t-31 -21t-35.5 -7.5q-20 0 -38 7.5t-31.5 21t-21 30.5
t-7.5 37z" />
    <glyph glyph-name="urin" unicode="u&#x30a;" horiz-adv-x="543" 
d="M388 0l-10 36q-39 -26 -72.5 -33.5t-71.5 -7.5q-88 0 -130 46.5t-42 136.5v315h94v-321q0 -27 10 -45t25.5 -28t34.5 -14t36 -4q21 0 40.5 5.5t35 16.5t25 28.5t9.5 40.5v321h94v-493h-78zM233 652q0 -19 15 -33.5t36 -14.5q20 0 34.5 14.5t14.5 33.5q0 21 -14.5 36
t-34.5 15q-21 0 -36 -15t-15 -36zM186 654q0 20 7.5 37.5t21 31t31.5 21.5t38 8q18 0 35.5 -8t31 -21.5t21.5 -31t8 -37.5t-8 -37t-21.5 -30.5t-31 -21t-35.5 -7.5q-20 0 -38 7.5t-31.5 21t-21 30.5t-7.5 37z" />
    <glyph glyph-name="Udac" unicode="U&#x30b;" horiz-adv-x="660" 
d="M62 686h96v-439q0 -47 13.5 -78.5t36 -50.5t52.5 -27t63 -8q28 0 58 10t54 30.5t39.5 51.5t15.5 73v438h95v-438q0 -55 -14.5 -95t-38 -68t-53 -46t-58.5 -27.5t-55 -13t-43 -3.5q-19 0 -45.5 2.5t-55.5 11t-58 24.5t-51.5 44.5t-36.5 70t-14 100.5v438zM586 878
q0 -10 -24 -30.5t-56 -41t-63.5 -36.5t-46.5 -17q-12 0 -17.5 3.5t-5.5 15.5q0 3 0.5 5.5t1.5 5.5q1 2 11.5 12.5t26.5 24.5l35.5 30.5t38.5 30t35.5 22.5t26.5 9q18 0 27.5 -7t9.5 -27zM408 878q0 -10 -24 -30.5t-56 -41t-63.5 -36.5t-46.5 -17q-12 0 -18 3.5t-6 15.5
q0 3 0.5 5.5t1.5 5.5q1 2 11.5 12.5t26.5 24.5l35.5 30.5t38.5 30t36 22.5t27 9q18 0 27.5 -7t9.5 -27z" />
    <glyph glyph-name="udac" unicode="u&#x30b;" horiz-adv-x="543" 
d="M388 0l-10 36q-39 -26 -72.5 -33.5t-71.5 -7.5q-88 0 -130 46.5t-42 136.5v315h94v-321q0 -27 10 -45t25.5 -28t34.5 -14t36 -4q21 0 40.5 5.5t35 16.5t25 28.5t9.5 40.5v321h94v-493h-78zM534 707q0 -10 -24 -30.5t-56 -41t-63.5 -36.5t-46.5 -17q-12 0 -17.5 3.5
t-5.5 15.5q0 3 0.5 5.5t1.5 5.5q1 2 11.5 12.5t26.5 24.5l35.5 30.5t38.5 30t35.5 22.5t26.5 9q18 0 27.5 -7t9.5 -27zM356 707q0 -10 -24 -30.5t-56 -41t-63.5 -36.5t-46.5 -17q-12 0 -18 3.5t-6 15.5q0 3 0.5 5.5t1.5 5.5q1 2 11.5 12.5t26.5 24.5l35.5 30.5t38.5 30
t36 22.5t27 9q18 0 27.5 -7t9.5 -27z" />
    <glyph glyph-name="Uogo" unicode="U&#x328;" horiz-adv-x="687" 
d="M62 686h96v-439q0 -47 13.5 -78.5t36 -50.5t52.5 -27t63 -8q28 0 58 10t54 30.5t39.5 51.5t15.5 73v438h95v-438q0 -55 -15 -95t-38.5 -68t-53 -45.5t-58.5 -27.5q-11 -4 -22 -7t-22 -5q-4 -4 -8 -12q-8 -17 -13 -36.5t-5 -33.5q0 -42 52 -42h48v-40q-33 -15 -71 -15
q-46 0 -75 20t-29 61q0 23 9.5 48t23.5 45q-21 1 -47.5 4.5t-53.5 13t-53.5 26.5t-46.5 45t-32.5 68t-12.5 96v438z" />
    <glyph glyph-name="uogo" unicode="u&#x328;" horiz-adv-x="541" 
d="M348 -97q0 26 12 54t28 48l-5 15.5l-5 15.5q-39 -26 -72 -33.5t-71 -7.5q-88 0 -130 46.5t-42 136.5v315h94v-321q0 -27 10 -45t26 -28t34 -14t35 -4q21 0 40.5 5.5t35.5 16.5t25.5 28.5t9.5 40.5v321h94v-493h-19q-14 -13 -20.5 -38t-6.5 -43q0 -42 51 -42h48v-39
q-17 -8 -34.5 -11t-35.5 -3q-45 0 -73.5 19.5t-28.5 59.5z" />
    <glyph glyph-name="Wcir" unicode="W&#x302;" horiz-adv-x="951" 
d="M15 686h101l153 -525l34 115.5l35 116.5l42.5 143.5l41.5 142.5h92l152 -516l76.5 261.5l76.5 261.5h99l-202 -686h-97l-154 526l-151 -526h-97zM438 897h67l117 -143h-67l-85 73l-80 -73h-71z" />
    <glyph glyph-name="wcir" unicode="w&#x302;" horiz-adv-x="788" 
d="M15 493h100l109 -337l133 337h55l131 -333l23.5 72.5t24.5 72.5l32 94.5l31 93.5h100l-179 -493h-65l-127 311l-29 -73l-96 -238h-66zM358 726h67l117 -143h-67l-85 73l-80 -73h-71z" />
    <glyph glyph-name="Ycir" unicode="Y&#x302;" horiz-adv-x="522" 
d="M208 281l-99 199l-102 206h102l147 -299l105 215v-1l42 85h103l-202 -405v-281h-96v281zM224 897h67l117 -143h-67l-85 73l-80 -73h-71z" />
    <glyph glyph-name="ycir" unicode="y&#x302;" horiz-adv-x="515" 
d="M163 493l112 -339l57.5 169.5l57.5 169.5h101l-166 -456q-15 -39 -35.5 -85.5t-53.5 -86t-81.5 -66t-117.5 -26.5l-12 86q49 0 82.5 17t56 41.5t36 53t22.5 52.5v1q1 1 1 2t1 3l-33.5 96l-34.5 96l-49.5 138l-47.5 134h104zM249 726h67l117 -143h-67l-85 73l-80 -73h-71z
" />
    <glyph glyph-name="Ydia" unicode="Y&#x308;" horiz-adv-x="522" 
d="M208 281l-99 199l-102 206h102l147 -299l105 215v-1l42 85h103l-202 -405v-281h-96v281zM116 827q0 21 15 36t35 15q23 0 37 -15t14 -36q0 -22 -14 -37t-37 -15q-21 0 -35.5 15t-14.5 37zM298 827q0 21 14.5 36t35.5 15t36 -15t15 -36q0 -22 -15 -37t-36 -15t-35.5 15
t-14.5 37z" />
    <glyph glyph-name="Zacu" unicode="Z&#x301;" horiz-adv-x="568" 
d="M383 599h-320v87h460v-39l-366 -560h385v-87h-526v40zM454 878q0 -10 -24 -30.5t-56 -41.5t-64 -36.5t-47 -16.5q-11 0 -17.5 3.5t-6.5 14.5q0 5 4 12v-1q1 2 11 12.5t26 25l35.5 31t38.5 30t35.5 22.5t26.5 9q19 0 28.5 -7t9.5 -27z" />
    <glyph glyph-name="zacu" unicode="&#x7a;&#x301;" horiz-adv-x="457" 
d="M269 407h-217v86h388l-266 -407h246v-86h-416zM408 707q0 -10 -24 -30.5t-56 -41.5t-64 -36.5t-47 -16.5q-11 0 -17.5 3.5t-6.5 14.5q0 5 4 12v-1q1 2 11 12.5t26 25l35.5 31t38.5 30t35.5 22.5t26.5 9q19 0 28.5 -7t9.5 -27z" />
    <glyph glyph-name="Zdot" unicode="Z&#x307;" horiz-adv-x="568" 
d="M383 599h-320v87h460v-39l-366 -560h385v-87h-526v40zM268 827q0 22 15 38t38 16q24 0 39 -16t15 -38q0 -23 -15 -39.5t-39 -16.5q-23 0 -38 16.5t-15 39.5z" />
    <glyph glyph-name="zdot" unicode="&#x7a;&#x307;" horiz-adv-x="457" 
d="M269 407h-217v86h388l-266 -407h246v-86h-416zM221 656q0 22 15 38t38 16q24 0 39 -16t15 -38q0 -23 -15 -39.5t-39 -16.5q-23 0 -38 16.5t-15 39.5z" />
    <glyph glyph-name="Zcar" unicode="Z&#x30c;" horiz-adv-x="568" 
d="M383 599h-320v87h460v-39l-366 -560h385v-87h-526v40zM337 754h-66l-118 143h68l84 -74l81 74h71z" />
    <glyph glyph-name="zcar" unicode="&#x7a;&#x30c;" horiz-adv-x="457" 
d="M269 407h-217v86h388l-266 -407h246v-86h-416zM291 583h-66l-118 143h68l84 -74l81 74h71z" />
    <glyph glyph-name="lbar" unicode="l&#x335;" horiz-adv-x="355" 
d="M25 412h103v284h94v-284h97v-87h-97v-325h-94v325h-103v87z" />
    <glyph glyph-name="Ohor" unicode="O&#x31b;" horiz-adv-x="851" 
d="M654 624q0 15 6 30t16 27t23.5 19t28.5 7q19 0 35.5 -8t28 -21t18 -28.5t6.5 -31.5q0 -59 -21.5 -107.5t-56.5 -73.5q-7 -5 -14 -8t-13 -6q2 -17 3.5 -34.5t1.5 -36.5q0 -32 -5.5 -71t-20 -79t-39.5 -77t-62.5 -66t-90 -46.5t-122.5 -17.5t-122.5 17.5t-89.5 46.5t-61 66
t-37.5 77t-19 79t-5.5 71q0 74 24 136t68 107t105.5 70.5t137.5 25.5q129 0 209 -56t111 -147l4 -15q1 -1 1 -2q14 17 26.5 39.5t12.5 36.5q0 3 -2 3q-15 0 -30 6t-27 16t-19.5 23.5t-7.5 28.5zM136 352q0 -53 15.5 -101.5t46 -86t75.5 -59.5t103 -22q70 0 117 22t75.5 59.5
t40.5 86t12 101.5q0 55 -14 101t-43.5 79.5t-76 52t-111.5 18.5q-60 0 -105 -18.5t-75 -52t-45 -79.5t-15 -101z" />
    <glyph glyph-name="ohor" unicode="o&#x31b;" horiz-adv-x="658" 
d="M463 447q0 15 6 29.5t15.5 25.5t23 18t28.5 7q19 0 35 -8t27 -20t17.5 -27.5t6.5 -30.5q0 -60 -21 -107.5t-56 -71.5q-17 -12 -35 -16q0 -53 -18.5 -99t-50.5 -81t-75 -55t-91 -20t-90.5 20t-74.5 55t-50.5 81t-18.5 99t18.5 99.5t50.5 81.5t74.5 55t90.5 20
q36 0 69.5 -11.5t61.5 -32t49.5 -49.5t35.5 -63q5 -14 9 -27.5t6 -26.5q8 8 15.5 18.5t13.5 21.5t9.5 21t3.5 16q0 3 -2 3q-15 0 -30 6t-27 16t-19 24t-7 29zM135 246q0 -35 11 -65.5t30 -53.5t44.5 -36.5t54.5 -13.5t55 13.5t45 36.5t30 53.5t11 65.5t-11 66t-30 54
t-45 36.5t-55 13.5t-54.5 -13.5t-44.5 -36.5t-30 -54t-11 -66z" />
    <glyph glyph-name="Uhor" unicode="U&#x31b;" horiz-adv-x="802" 
d="M64 686h95v-439q0 -47 13.5 -78.5t36 -50.5t53 -27t63.5 -8q29 0 58.5 10t53.5 30.5t39 51.5t15 73v438h96v-438q0 -55 -14.5 -95t-38 -68t-53 -46t-58.5 -27.5t-55 -13t-43 -3.5q-19 0 -45.5 2.5t-55.5 11t-58 24.5t-51.5 44.5t-36.5 70t-14 100.5v438zM608 624
q0 15 6 30t15.5 27t23 19t28.5 7q20 0 36 -8t27.5 -21t18 -28.5t6.5 -31.5q0 -40 -11 -76t-30.5 -63.5t-46.5 -43.5t-59 -16v39q11 0 23.5 10.5t23 25t17.5 29.5t7 24q0 3 -1 3q-16 0 -31 6t-27 16t-19 23.5t-7 28.5z" />
    <glyph glyph-name="uhor" unicode="u&#x31b;" horiz-adv-x="680" 
d="M391 0l-11 36q-39 -26 -72.5 -33.5t-71.5 -7.5q-88 0 -129.5 46.5t-41.5 136.5v315h94v-321q0 -27 10 -45t25.5 -28t34 -14t35.5 -4q20 0 40 5.5t35.5 16.5t25.5 28.5t10 40.5v321h94v-493h-78zM484 447q0 15 6 29.5t16 25.5t23.5 18t28.5 7q19 0 35 -8t27 -20
t17.5 -27.5t6.5 -30.5q0 -39 -11 -74.5t-30 -62.5t-45.5 -43t-57.5 -16v38q10 0 22 10.5t22 24.5t17 28.5t7 22.5q0 3 -2 3q-15 0 -29.5 6t-26.5 16t-19 24t-7 29z" />
    <glyph glyph-name="Acar" unicode="A&#x30c;" horiz-adv-x="624" 
d="M210 283h191l-48 125.5l-47 126.5zM269 686h73l260 -686h-94l-76 195h-252l-76 -195h-94zM337 754h-66l-118 143h68l84 -74l81 74h71z" />
    <glyph glyph-name="acar" unicode="a&#x30c;" horiz-adv-x="504" 
d="M150 143q0 -23 11.5 -42.5t41.5 -19.5q42 0 70 12t44.5 33t24 48t8.5 57q-28 -2 -63 -8.5t-65.5 -17.5t-51 -26.5t-20.5 -35.5zM56 139q0 32 14.5 57.5t38.5 44.5t54.5 32.5t63.5 22.5t65 15t58 10v28q0 23 -29.5 41.5t-83.5 18.5q-17 0 -36 -6.5t-36.5 -14.5t-31 -16
l-18.5 -11l-30 71q9 12 25.5 23.5t38 20.5t47.5 14t53 5q24 -1 57 -9t63 -23.5t51 -39t21 -55.5v-368h-85l-7 51q-32 -26 -75 -41t-87 -15q-32 0 -56 12t-41 32.5t-25.5 46.5t-8.5 53zM283 584h-66l-118 143h68l84 -74l81 74h71z" />
    <glyph glyph-name="Icar" unicode="I&#x30c;" horiz-adv-x="216" 
d="M59 686h94v-686h-94v686zM132 754h-66l-118 143h68l84 -74l81 74h71z" />
    <glyph glyph-name="icar" unicode="i&#x30c;" horiz-adv-x="186" 
d="M45 0v493h94v-493h-94zM119 583h-66l-118 143h68l84 -74l81 74h71z" />
    <glyph glyph-name="Ocar" unicode="O&#x30c;" horiz-adv-x="770" 
d="M135 352q0 -53 15.5 -101.5t46 -86t75.5 -59.5t103 -22q70 0 117 22t75.5 59.5t40.5 86t12 101.5q0 55 -13.5 101t-43 79.5t-76 52t-112.5 18.5q-60 0 -105 -18.5t-75 -52t-45 -79.5t-15 -101zM375 -5q-70 0 -122.5 17.5t-89.5 46.5t-61 66t-37.5 77t-19 79t-5.5 71
q0 74 24 136t68 107t105.5 70.5t137.5 25.5q88 0 152 -25.5t106 -70.5t62 -107t20 -136q0 -32 -5.5 -71t-20 -79t-39.5 -77t-62.5 -66t-90 -46.5t-122.5 -17.5zM408 754h-66l-118 143h68l84 -74l81 74h71z" />
    <glyph glyph-name="ocar" unicode="o&#x30c;" horiz-adv-x="563" 
d="M40 246q0 53 18.5 99.5t50 81.5t74 55t90.5 20q49 0 91.5 -20t74.5 -55t50.5 -81.5t18.5 -99.5t-18.5 -99t-50.5 -81t-74.5 -55t-91.5 -20q-48 0 -90.5 20t-74 55t-50 81t-18.5 99zM133 246q0 -35 11 -65.5t30 -53.5t44.5 -36.5t54.5 -13.5t55 13.5t45 36.5t30 53.5
t11 65.5t-11 66t-30 54t-45 36.5t-55 13.5t-54.5 -13.5t-44.5 -36.5t-30 -54t-11 -66zM307 583h-66l-118 143h68l84 -74l81 74h71z" />
    <glyph glyph-name="Ucar" unicode="U&#x30c;" horiz-adv-x="660" 
d="M62 686h96v-439q0 -47 13.5 -78.5t36 -50.5t52.5 -27t63 -8q28 0 58 10t54 30.5t39.5 51.5t15.5 73v438h95v-438q0 -55 -14.5 -95t-38 -68t-53 -46t-58.5 -27.5t-55 -13t-43 -3.5q-19 0 -45.5 2.5t-55.5 11t-58 24.5t-51.5 44.5t-36.5 70t-14 100.5v438zM355 754h-66
l-118 143h68l84 -74l81 74h71z" />
    <glyph glyph-name="ucar" unicode="u&#x30c;" horiz-adv-x="543" 
d="M388 0l-10 36q-39 -26 -72.5 -33.5t-71.5 -7.5q-88 0 -130 46.5t-42 136.5v315h94v-321q0 -27 10 -45t25.5 -28t34.5 -14t36 -4q21 0 40.5 5.5t35 16.5t25 28.5t9.5 40.5v321h94v-493h-78zM303 583h-66l-118 143h68l84 -74l81 74h71z" />
    <glyph glyph-name="Udiamac" unicode="U&#x308;&#x304;" horiz-adv-x="660" 
d="M62 686h96v-439q0 -47 13.5 -78.5t36 -50.5t52.5 -27t63 -8q28 0 58 10t54 30.5t39.5 51.5t15.5 73v438h95v-438q0 -55 -14.5 -95t-38 -68t-53 -46t-58.5 -27.5t-55 -13t-43 -3.5q-19 0 -45.5 2.5t-55.5 11t-58 24.5t-51.5 44.5t-36.5 70t-14 100.5v438zM183 792
q0 21 15 36t35 15q23 0 37 -15t14 -36t-14 -36.5t-37 -15.5q-21 0 -35.5 15.5t-14.5 36.5zM365 792q0 21 14.5 36t35.5 15t36 -15t15 -36t-15 -36.5t-36 -15.5t-35.5 15.5t-14.5 36.5zM169 986h310v-77h-310v77z" />
    <glyph glyph-name="udiamac" unicode="u&#x308;&#x304;" horiz-adv-x="543" 
d="M388 0l-10 36q-39 -26 -72.5 -33.5t-71.5 -7.5q-88 0 -130 46.5t-42 136.5v315h94v-321q0 -27 10 -45t25.5 -28t34.5 -14t36 -4q21 0 40.5 5.5t35 16.5t25 28.5t9.5 40.5v321h94v-493h-78zM131 621q0 21 15 36t35 15q23 0 37 -15t14 -36t-14 -36.5t-37 -15.5
q-21 0 -35.5 15.5t-14.5 36.5zM313 621q0 21 14.5 36t35.5 15t36 -15t15 -36t-15 -36.5t-36 -15.5t-35.5 15.5t-14.5 36.5zM117 815h310v-77h-310v77z" />
    <glyph glyph-name="Udiaacu" unicode="U&#x308;&#x301;" horiz-adv-x="660" 
d="M62 686h96v-439q0 -47 13.5 -78.5t36 -50.5t52.5 -27t63 -8q28 0 58 10t54 30.5t39.5 51.5t15.5 73v438h95v-438q0 -55 -14.5 -95t-38 -68t-53 -46t-58.5 -27.5t-55 -13t-43 -3.5q-19 0 -45.5 2.5t-55.5 11t-58 24.5t-51.5 44.5t-36.5 70t-14 100.5v438zM183 792
q0 21 15 36t35 15q23 0 37 -15t14 -36t-14 -36.5t-37 -15.5q-21 0 -35.5 15.5t-14.5 36.5zM365 792q0 21 14.5 36t35.5 15t36 -15t15 -36t-15 -36.5t-36 -15.5t-35.5 15.5t-14.5 36.5zM451 975q0 -11 -24 -24.5t-56 -25.5t-64 -20t-47 -9q-11 0 -17.5 3.5t-6.5 15.5
q0 6 4 11q1 3 22.5 16.5t50 28.5t57 27t43.5 12q19 0 28.5 -7.5t9.5 -27.5z" />
    <glyph glyph-name="udiaacu" unicode="u&#x308;&#x301;" horiz-adv-x="543" 
d="M388 0l-10 36q-39 -26 -72.5 -33.5t-71.5 -7.5q-88 0 -130 46.5t-42 136.5v315h94v-321q0 -27 10 -45t25.5 -28t34.5 -14t36 -4q21 0 40.5 5.5t35 16.5t25 28.5t9.5 40.5v321h94v-493h-78zM131 621q0 21 15 36t35 15q23 0 37 -15t14 -36t-14 -36.5t-37 -15.5
q-21 0 -35.5 15.5t-14.5 36.5zM313 621q0 21 14.5 36t35.5 15t36 -15t15 -36t-15 -36.5t-36 -15.5t-35.5 15.5t-14.5 36.5zM398 804q0 -11 -24 -24.5t-56 -25.5t-64 -20t-47 -9q-11 0 -17.5 3.5t-6.5 15.5q0 6 4 11q1 3 22.5 16.5t50 28.5t57 27t43.5 12q19 0 28.5 -7.5
t9.5 -27.5z" />
    <glyph glyph-name="Udiacar" unicode="U&#x308;&#x30c;" horiz-adv-x="660" 
d="M62 686h96v-439q0 -47 13.5 -78.5t36 -50.5t52.5 -27t63 -8q28 0 58 10t54 30.5t39.5 51.5t15.5 73v438h95v-438q0 -55 -14.5 -95t-38 -68t-53 -46t-58.5 -27.5t-55 -13t-43 -3.5q-19 0 -45.5 2.5t-55.5 11t-58 24.5t-51.5 44.5t-36.5 70t-14 100.5v438zM183 792
q0 21 15 36t35 15q23 0 37 -15t14 -36t-14 -36.5t-37 -15.5q-21 0 -35.5 15.5t-14.5 36.5zM365 792q0 21 14.5 36t35.5 15t36 -15t15 -36t-15 -36.5t-36 -15.5t-35.5 15.5t-14.5 36.5zM355 894h-65l-137 116h92l78 -48l38 24l39 24h93z" />
    <glyph glyph-name="udiacar" unicode="u&#x308;&#x30c;" horiz-adv-x="543" 
d="M388 0l-10 36q-39 -26 -72.5 -33.5t-71.5 -7.5q-88 0 -130 46.5t-42 136.5v315h94v-321q0 -27 10 -45t25.5 -28t34.5 -14t36 -4q21 0 40.5 5.5t35 16.5t25 28.5t9.5 40.5v321h94v-493h-78zM131 621q0 21 15 36t35 15q23 0 37 -15t14 -36t-14 -36.5t-37 -15.5
q-21 0 -35.5 15.5t-14.5 36.5zM313 621q0 21 14.5 36t35.5 15t36 -15t15 -36t-15 -36.5t-36 -15.5t-35.5 15.5t-14.5 36.5zM303 723h-65l-137 116h92l78 -48l38 24l39 24h93z" />
    <glyph glyph-name="Udiagra" unicode="U&#x308;&#x300;" horiz-adv-x="660" 
d="M62 686h96v-439q0 -47 13.5 -78.5t36 -50.5t52.5 -27t63 -8q28 0 58 10t54 30.5t39.5 51.5t15.5 73v438h95v-438q0 -55 -14.5 -95t-38 -68t-53 -46t-58.5 -27.5t-55 -13t-43 -3.5q-19 0 -45.5 2.5t-55.5 11t-58 24.5t-51.5 44.5t-36.5 70t-14 100.5v438zM183 792
q0 21 15 36t35 15q23 0 37 -15t14 -36t-14 -36.5t-37 -15.5q-21 0 -35.5 15.5t-14.5 36.5zM365 792q0 21 14.5 36t35.5 15t36 -15t15 -36t-15 -36.5t-36 -15.5t-35.5 15.5t-14.5 36.5zM192 975q0 20 10 27.5t27 7.5q15 0 42.5 -11.5t55 -26t49.5 -28t27 -17.5q4 -10 4 -12
q0 -12 -6.5 -15.5t-18.5 -3.5q-15 1 -46.5 9t-63.5 20t-56 25.5t-24 24.5z" />
    <glyph glyph-name="udiagra" unicode="u&#x308;&#x300;" horiz-adv-x="543" 
d="M388 0l-10 36q-39 -26 -72.5 -33.5t-71.5 -7.5q-88 0 -130 46.5t-42 136.5v315h94v-321q0 -27 10 -45t25.5 -28t34.5 -14t36 -4q21 0 40.5 5.5t35 16.5t25 28.5t9.5 40.5v321h94v-493h-78zM131 621q0 21 15 36t35 15q23 0 37 -15t14 -36t-14 -36.5t-37 -15.5
q-21 0 -35.5 15.5t-14.5 36.5zM313 621q0 21 14.5 36t35.5 15t36 -15t15 -36t-15 -36.5t-36 -15.5t-35.5 15.5t-14.5 36.5zM140 804q0 20 10 27.5t27 7.5q15 0 42.5 -11.5t55 -26t49.5 -28t27 -17.5q4 -10 4 -12q0 -12 -6.5 -15.5t-18.5 -3.5q-15 1 -46.5 9t-63.5 20
t-56 25.5t-24 24.5z" />
    <glyph glyph-name="Adiamac" unicode="A&#x308;&#x304;" horiz-adv-x="624" 
d="M210 283h191l-48 125.5l-47 126.5zM269 686h73l260 -686h-94l-76 195h-252l-76 -195h-94zM165 792q0 21 15 36t35 15q23 0 37 -15t14 -36t-14 -36.5t-37 -15.5q-21 0 -35.5 15.5t-14.5 36.5zM347 792q0 21 14.5 36t35.5 15t36 -15t15 -36t-15 -36.5t-36 -15.5t-35.5 15.5
t-14.5 36.5zM152 986h310v-77h-310v77z" />
    <glyph glyph-name="adiamac" unicode="a&#x308;&#x304;" horiz-adv-x="504" 
d="M150 143q0 -23 11.5 -42.5t41.5 -19.5q42 0 70 12t44.5 33t24 48t8.5 57q-28 -2 -63 -8.5t-65.5 -17.5t-51 -26.5t-20.5 -35.5zM56 139q0 32 14.5 57.5t38.5 44.5t54.5 32.5t63.5 22.5t65 15t58 10v28q0 23 -29.5 41.5t-83.5 18.5q-17 0 -36 -6.5t-36.5 -14.5t-31 -16
l-18.5 -11l-30 71q9 12 25.5 23.5t38 20.5t47.5 14t53 5q24 -1 57 -9t63 -23.5t51 -39t21 -55.5v-368h-85l-7 51q-32 -26 -75 -41t-87 -15q-32 0 -56 12t-41 32.5t-25.5 46.5t-8.5 53zM111 622q0 21 15 36t35 15q23 0 37 -15t14 -36t-14 -36.5t-37 -15.5q-21 0 -35.5 15.5
t-14.5 36.5zM293 622q0 21 14.5 36t35.5 15t36 -15t15 -36t-15 -36.5t-36 -15.5t-35.5 15.5t-14.5 36.5zM98 816h310v-77h-310v77z" />
    <glyph glyph-name="Adotmac" unicode="A&#x307;&#x304;" horiz-adv-x="624" 
d="M210 283h191l-48 125.5l-47 126.5zM269 686h73l260 -686h-94l-76 195h-252l-76 -195h-94zM255 792q0 23 16 39t38 16q25 0 39.5 -16t14.5 -39t-14.5 -39t-39.5 -16q-22 0 -38 16t-16 39zM152 986h310v-77h-310v77z" />
    <glyph glyph-name="adotmac" unicode="a&#x307;&#x304;" horiz-adv-x="504" 
d="M150 143q0 -23 11.5 -42.5t41.5 -19.5q42 0 70 12t44.5 33t24 48t8.5 57q-28 -2 -63 -8.5t-65.5 -17.5t-51 -26.5t-20.5 -35.5zM56 139q0 32 14.5 57.5t38.5 44.5t54.5 32.5t63.5 22.5t65 15t58 10v28q0 23 -29.5 41.5t-83.5 18.5q-17 0 -36 -6.5t-36.5 -14.5t-31 -16
l-18.5 -11l-30 71q9 12 25.5 23.5t38 20.5t47.5 14t53 5q24 -1 57 -9t63 -23.5t51 -39t21 -55.5v-368h-85l-7 51q-32 -26 -75 -41t-87 -15q-32 0 -56 12t-41 32.5t-25.5 46.5t-8.5 53zM202 622q0 23 16 39t38 16q25 0 39.5 -16t14.5 -39t-14.5 -39t-39.5 -16q-22 0 -38 16
t-16 39zM98 816h310v-77h-310v77z" />
    <glyph glyph-name="AEmac" unicode="&#xc6;&#x304;" horiz-adv-x="827" 
d="M733 686v-87h-236v-195h230v-88h-230v-229h279v-87h-374v187h-199l-104 -187h-98l382 686h350zM402 275v270l-154 -270h154zM406 864h310v-77h-310v77z" />
    <glyph glyph-name="aemac" unicode="&#xe6;&#x304;" horiz-adv-x="805" 
d="M435 227q2 -75 39 -109.5t117 -34.5q50 0 77 8t41 13h-1l2 2q5 2 10.5 3t19.5 3l12 -65q-7 -4 -25 -12.5t-42.5 -16.5t-52 -14.5t-53.5 -6.5q-62 0 -107.5 21.5t-84.5 69.5q-3 -7 -7 -11v1q-35 -47 -85.5 -65t-116.5 -18q-31 0 -55.5 12t-41 32.5t-25 46.5t-8.5 53
q0 49 31 81.5t76.5 53t96 31t89.5 16.5v28q0 23 -29.5 41.5t-82.5 18.5q-17 0 -36 -6.5t-36.5 -14.5t-31.5 -16l-19 -11l-31 71q9 12 26 23.5t39 20.5t48 14t53 5q16 -1 36 -4.5t41 -10t41.5 -16.5t36.5 -23h-1l4 -3l2 -2q11 11 26 22t32 19q21 10 46 15.5t56 5.5
q67 0 105 -29.5t56.5 -72t23 -89t4.5 -80.5h-315zM142 143q0 -23 11.5 -42.5t41.5 -19.5q42 0 69.5 12t44.5 33t24 48t8 57q-28 -2 -62.5 -8.5t-65 -17.5t-51 -26.5t-20.5 -35.5zM657 315q-2 48 -24.5 72t-76.5 24q-53 0 -85 -23.5t-36 -72.5h222zM254 693h310v-77h-310v77z
" />
    <glyph glyph-name="Gcar" unicode="G&#x30c;" horiz-adv-x="675" 
d="M39 349q0 59 17 107.5t46 86.5t66.5 66t79.5 46t84.5 27t81.5 9q37 0 71 -6.5t62.5 -16t49 -19.5t29.5 -17l-29 -72q-30 13 -54.5 21.5t-45.5 13.5t-41 7t-42 2q-52 0 -102.5 -16.5t-90 -49t-63.5 -80t-24 -108.5q0 -65 23 -115t61.5 -84t87 -51t99.5 -17q32 0 59 4.5
t48 11.5l8 3h4v216h94v-263q-13 -9 -33 -19.5t-46 -19.5t-59 -15t-72 -6q-66 0 -131.5 20.5t-118.5 64t-86 110t-33 159.5zM430 754h-66l-118 143h68l84 -74l81 74h71z" />
    <glyph glyph-name="gcar" unicode="g&#x30c;" horiz-adv-x="579" 
d="M501 493v-438q0 -46 -1 -70.5t-4 -34.5q-12 -42 -34.5 -74.5t-54 -55.5t-70 -35t-81.5 -12q-8 0 -30.5 3t-50.5 9t-56.5 14.5t-49.5 19.5l20 75q8 -2 22.5 -6l24.5 -7q29 -8 61 -15.5t57 -6.5q5 0 9.5 -0.5t8.5 -0.5q58 0 97 38t39 112v49q-38 -39 -79 -50t-76 -11
q-57 0 -97 22.5t-66 59t-38 83.5t-12 96q0 46 17 89.5t48 77.5t73.5 54t92.5 20q51 0 82 -10t55 -32v37h93zM133 259q0 -33 6.5 -65t22.5 -57t43.5 -40t68.5 -15q34 0 59.5 14.5t42 39t24.5 57.5t8 71q0 73 -35 110t-99 37q-70 0 -104.5 -38t-36.5 -114zM320 583h-66
l-118 143h68l84 -74l81 74h71z" />
    <glyph glyph-name="Kcar" unicode="K&#x30c;" horiz-adv-x="555" 
d="M170 314l-13 -13v-301h-95v686h95v-268l280 279l78 -48l-280 -276l303 -336l-90 -41zM313 754h-66l-118 143h68l84 -74l81 74h71z" />
    <glyph glyph-name="kcar" unicode="k&#x30c;" horiz-adv-x="482" 
d="M62 0v696h93v-378l175 175h122l-224 -225l230 -268h-114l-178 209l-11 -11v-198h-93zM358 583h-66l-118 143h68l84 -74l81 74h71z" />
    <glyph glyph-name="Oogo" unicode="O&#x328;" horiz-adv-x="770" 
d="M324 -98q0 24 9.5 49.5t23.5 44.5q-66 2 -115.5 21t-85 48t-58 65.5t-35.5 75.5t-18 76.5t-5 69.5q0 74 24 136t68 107t105.5 70.5t137.5 25.5q88 0 152 -25.5t106 -70.5t62 -107t20 -136q0 -40 -9.5 -90t-33.5 -98.5t-66.5 -89t-108.5 -61.5h1q-17 -6 -36.5 -10
t-39.5 -6q-3 -3 -6 -9q-8 -17 -13 -36.5t-5 -33.5q0 -42 52 -42h48v-40q-33 -15 -71 -15q-45 0 -74 20t-29 61zM135 352q0 -53 15.5 -101.5t46 -86t75.5 -59.5t103 -22q70 0 117 22t75.5 59.5t40.5 86t12 101.5q0 55 -13.5 101t-43 79.5t-76 52t-112.5 18.5
q-60 0 -105 -18.5t-75 -52t-45 -79.5t-15 -101z" />
    <glyph glyph-name="oogo" unicode="o&#x328;" horiz-adv-x="563" 
d="M40 246q0 53 18.5 99.5t50 81.5t74 55t90.5 20q49 0 91.5 -20t74.5 -55t50.5 -81.5t18.5 -99.5q0 -39 -10.5 -75.5t-29.5 -67t-45 -54t-57 -37.5q-15 -8 -30.5 -12.5t-29.5 -6.5q0 -2 -1 -3t-1 -2q-10 -16 -14.5 -35.5t-4.5 -33.5q0 -42 51 -42h47v-39q-15 -8 -33 -11
t-36 -3q-46 0 -74 19.5t-28 59.5q0 22 8.5 46.5t21.5 43.5q-16 2 -30.5 7t-29.5 12q-31 15 -57 38.5t-45 54t-29.5 66.5t-10.5 75zM133 246q0 -35 11 -65.5t30 -53.5t44.5 -36.5t54.5 -13.5t55 13.5t45 36.5t30 53.5t11 65.5t-11 66t-30 54t-45 36.5t-55 13.5t-54.5 -13.5
t-44.5 -36.5t-30 -54t-11 -66z" />
    <glyph glyph-name="Omacogo" unicode="O&#x304;&#x328;" horiz-adv-x="770" 
d="M324 -98q0 24 9.5 49.5t23.5 44.5q-66 2 -115.5 21t-85 48t-58 65.5t-35.5 75.5t-18 76.5t-5 69.5q0 74 24 136t68 107t105.5 70.5t137.5 25.5q88 0 152 -25.5t106 -70.5t62 -107t20 -136q0 -40 -9.5 -90t-33.5 -98.5t-66.5 -89t-108.5 -61.5h1q-17 -6 -36.5 -10
t-39.5 -6q-3 -3 -6 -9q-8 -17 -13 -36.5t-5 -33.5q0 -42 52 -42h48v-40q-33 -15 -71 -15q-45 0 -74 20t-29 61zM135 352q0 -53 15.5 -101.5t46 -86t75.5 -59.5t103 -22q70 0 117 22t75.5 59.5t40.5 86t12 101.5q0 55 -13.5 101t-43 79.5t-76 52t-112.5 18.5
q-60 0 -105 -18.5t-75 -52t-45 -79.5t-15 -101zM221 864h310v-77h-310v77z" />
    <glyph glyph-name="omacogo" unicode="o&#x304;&#x328;" horiz-adv-x="563" 
d="M40 246q0 53 18.5 99.5t50 81.5t74 55t90.5 20q49 0 91.5 -20t74.5 -55t50.5 -81.5t18.5 -99.5q0 -39 -10.5 -75.5t-29.5 -67t-45 -54t-57 -37.5q-15 -8 -30.5 -12.5t-29.5 -6.5q0 -2 -1 -3t-1 -2q-10 -16 -14.5 -35.5t-4.5 -33.5q0 -42 51 -42h47v-39q-15 -8 -33 -11
t-36 -3q-46 0 -74 19.5t-28 59.5q0 22 8.5 46.5t21.5 43.5q-16 2 -30.5 7t-29.5 12q-31 15 -57 38.5t-45 54t-29.5 66.5t-10.5 75zM133 246q0 -35 11 -65.5t30 -53.5t44.5 -36.5t54.5 -13.5t55 13.5t45 36.5t30 53.5t11 65.5t-11 66t-30 54t-45 36.5t-55 13.5t-54.5 -13.5
t-44.5 -36.5t-30 -54t-11 -66zM119 693h310v-77h-310v77z" />
    <glyph glyph-name="Ezhcar" unicode="&#x1b7;&#x30c;" horiz-adv-x="576" 
d="M186 415l18 19l151 165h-302v87h460v-41l-201 -218q39 -9 75 -27t63.5 -44.5t44 -62t16.5 -81.5q0 -45 -24 -84t-62 -68.5t-85.5 -46.5t-94.5 -17q-73 0 -127 19t-83 38l31 77q36 -16 78.5 -31.5t96.5 -15.5q32 0 63.5 8.5t56 25t40 41t15.5 56.5q0 36 -17.5 62.5t-46 44
t-64 26.5t-72.5 9h-30v59zM325 754h-66l-118 143h68l84 -74l81 74h71z" />
    <glyph glyph-name="ezhcar" unicode="&#x292;&#x30c;" horiz-adv-x="487" 
d="M128 191l141 216h-217v86h389l-183 -278l7 -2q75 -23 122 -78t48 -140q1 -44 -19 -84t-53.5 -70.5t-77 -48.5t-89.5 -18q-15 0 -34.5 1t-40 5t-40 10t-34.5 17l30 75q34 -10 60.5 -16t53.5 -6q31 0 58.5 12t48 31t32 43.5t11.5 50.5q0 38 -18.5 65t-49 44.5t-68.5 26
t-77 8.5v50zM288 583h-66l-118 143h68l84 -74l81 74h71z" />
    <glyph glyph-name="jcar" unicode="j&#x30c;" horiz-adv-x="243" 
d="M179 493v-583q0 -13 -5 -35.5t-18.5 -44.5t-38 -38.5t-64.5 -16.5q-16 0 -22.5 11.5t-6.5 16.5q0 21 19 35l9 7q13 11 23 24.5t10 46.5v577h94zM167 583h-66l-118 143h68l84 -74l81 74h71z" />
    <glyph glyph-name="Gacu" unicode="G&#x301;" horiz-adv-x="675" 
d="M39 349q0 59 17 107.5t46 86.5t66.5 66t79.5 46t84.5 27t81.5 9q37 0 71 -6.5t62.5 -16t49 -19.5t29.5 -17l-29 -72q-30 13 -54.5 21.5t-45.5 13.5t-41 7t-42 2q-52 0 -102.5 -16.5t-90 -49t-63.5 -80t-24 -108.5q0 -65 23 -115t61.5 -84t87 -51t99.5 -17q32 0 59 4.5
t48 11.5l8 3h4v216h94v-263q-13 -9 -33 -19.5t-46 -19.5t-59 -15t-72 -6q-66 0 -131.5 20.5t-118.5 64t-86 110t-33 159.5zM540 878q0 -10 -24 -30.5t-56 -41.5t-64 -36.5t-47 -16.5q-11 0 -17.5 3.5t-6.5 14.5q0 5 4 12v-1q1 2 11 12.5t26 25l35.5 31t38.5 30t35.5 22.5
t26.5 9q19 0 28.5 -7t9.5 -27z" />
    <glyph glyph-name="gacu" unicode="g&#x301;" horiz-adv-x="579" 
d="M501 493v-438q0 -46 -1 -70.5t-4 -34.5q-12 -42 -34.5 -74.5t-54 -55.5t-70 -35t-81.5 -12q-8 0 -30.5 3t-50.5 9t-56.5 14.5t-49.5 19.5l20 75q8 -2 22.5 -6l24.5 -7q29 -8 61 -15.5t57 -6.5q5 0 9.5 -0.5t8.5 -0.5q58 0 97 38t39 112v49q-38 -39 -79 -50t-76 -11
q-57 0 -97 22.5t-66 59t-38 83.5t-12 96q0 46 17 89.5t48 77.5t73.5 54t92.5 20q51 0 82 -10t55 -32v37h93zM133 259q0 -33 6.5 -65t22.5 -57t43.5 -40t68.5 -15q34 0 59.5 14.5t42 39t24.5 57.5t8 71q0 73 -35 110t-99 37q-70 0 -104.5 -38t-36.5 -114zM430 707
q0 -10 -24 -30.5t-56 -41.5t-64 -36.5t-47 -16.5q-11 0 -17.5 3.5t-6.5 14.5q0 5 4 12v-1q1 2 11 12.5t26 25l35.5 31t38.5 30t35.5 22.5t26.5 9q19 0 28.5 -7t9.5 -27z" />
    <glyph glyph-name="Ngra" unicode="N&#x300;" horiz-adv-x="752" 
d="M131 686l447 -517v517h96v-686h-69l-445 517v-517h-97v686h68zM233 878q0 20 10 27t27 7q16 0 44.5 -19t57 -42.5t50 -44t22.5 -23.5q4 -7 4 -12q0 -11 -6.5 -14.5t-18.5 -3.5q-15 1 -46.5 16.5t-63.5 36.5t-56 41.5t-24 30.5z" />
    <glyph glyph-name="ngra" unicode="n&#x300;" horiz-adv-x="534" 
d="M62 493h94v-39q19 15 52 27t97 12q39 0 71.5 -12.5t55.5 -35.5t36 -55t13 -72v-318h-94v315q0 9 -2 24.5t-12.5 30.5t-34.5 26t-67 11q-24 0 -44.5 -10t-36.5 -24.5t-25 -30.5t-9 -29v-313h-94v493zM156 707q0 20 10 27t27 7q16 0 44.5 -19t57 -42.5t50 -44t22.5 -23.5
q4 -7 4 -12q0 -11 -6.5 -14.5t-18.5 -3.5q-15 1 -46.5 16.5t-63.5 36.5t-56 41.5t-24 30.5z" />
    <glyph glyph-name="Arinacu" unicode="A&#x30a;&#x301;" horiz-adv-x="624" 
d="M210 283h191l-48 125.5l-47 126.5zM269 686h73l260 -686h-94l-76 195h-252l-76 -195h-94zM274.067 749.298q0 -16.4902 13.0244 -29.0752t31.2588 -12.585q17.3652 0 29.9561 12.585q12.5898 12.585 12.5898 29.0752q0 18.2266 -12.5898 31.2451
q-12.5908 13.0195 -29.9561 13.0195q-18.2344 0 -31.2588 -13.0195q-13.0244 -13.0186 -13.0244 -31.2451zM233.258 751.034q0 17.3584 6.5127 32.5469q6.51172 15.1885 18.2344 26.9053q11.7217 11.7168 27.3506 18.6602t32.9951 6.94336q15.6289 0 30.8242 -6.94336
q15.1943 -6.94336 26.917 -18.6602q11.7217 -11.7168 18.668 -26.9053t6.94629 -32.5469t-6.94629 -32.1133t-18.668 -26.4717q-11.7227 -11.7168 -26.917 -18.2266q-15.1953 -6.50879 -30.8242 -6.50879q-17.3662 0 -32.9951 6.50879q-15.6289 6.50977 -27.3506 18.2266
q-11.7227 11.7168 -18.2344 26.4717q-6.5127 14.7549 -6.5127 32.1133zM442 975q0 -11 -24 -24.5t-56 -25.5t-64 -20t-47 -9q-11 0 -17.5 3.5t-6.5 15.5q0 6 4 11q1 3 22.5 16.5t50 28.5t57 27t43.5 12q19 0 28.5 -7.5t9.5 -27.5z" />
    <glyph glyph-name="arinacu" unicode="a&#x30a;&#x301;" horiz-adv-x="504" 
d="M150 143q0 -23 11.5 -42.5t41.5 -19.5q42 0 70 12t44.5 33t24 48t8.5 57q-28 -2 -63 -8.5t-65.5 -17.5t-51 -26.5t-20.5 -35.5zM56 139q0 32 14.5 57.5t38.5 44.5t54.5 32.5t63.5 22.5t65 15t58 10v28q0 23 -29.5 41.5t-83.5 18.5q-17 0 -36 -6.5t-36.5 -14.5t-31 -16
l-18.5 -11l-30 71q9 12 25.5 23.5t38 20.5t47.5 14t53 5q24 -1 57 -9t63 -23.5t51 -39t21 -55.5v-368h-85l-7 51q-32 -26 -75 -41t-87 -15q-32 0 -56 12t-41 32.5t-25.5 46.5t-8.5 53zM219.21 575.006q0 -16.5293 13.0498 -29.1445t31.3193 -12.6152
q17.4004 0 30.0146 12.6152q12.6152 12.6152 12.6152 29.1445q0 18.2695 -12.6152 31.3203q-12.6143 13.0498 -30.0146 13.0498q-18.2695 0 -31.3193 -13.0498q-13.0498 -13.0508 -13.0498 -31.3203zM178.32 576.746q0 17.3994 6.52441 32.625
q6.52539 15.2246 18.2695 26.9697q11.7451 11.7451 27.4053 18.7051t33.0596 6.95996q15.6602 0 30.8848 -6.95996q15.2256 -6.95996 26.9697 -18.7051q11.7451 -11.7451 18.7051 -26.9697q6.95996 -15.2256 6.95996 -32.625q0 -17.4004 -6.95996 -32.1895
q-6.95996 -14.79 -18.7051 -26.5352q-11.7441 -11.7451 -26.9697 -18.2705q-15.2246 -6.52441 -30.8848 -6.52441q-17.3994 0 -33.0596 6.52441q-15.6602 6.52539 -27.4053 18.2705q-11.7441 11.7451 -18.2695 26.5352q-6.52441 14.7891 -6.52441 32.1895zM383 805
q0 -11 -24 -24.5t-56 -25.5t-64 -20t-47 -9q-11 0 -17.5 3.5t-6.5 15.5q0 6 4 11q1 3 22.5 16.5t50 28.5t57 27t43.5 12q19 0 28.5 -7.5t9.5 -27.5z" />
    <glyph glyph-name="AEacu" unicode="&#xc6;&#x301;" horiz-adv-x="827" 
d="M733 686v-87h-236v-195h230v-88h-230v-229h279v-87h-374v187h-199l-104 -187h-98l382 686h350zM402 275v270l-154 -270h154zM702 878q0 -10 -24 -30.5t-56 -41.5t-64 -36.5t-47 -16.5q-11 0 -17.5 3.5t-6.5 14.5q0 5 4 12v-1q1 2 11 12.5t26 25l35.5 31t38.5 30
t35.5 22.5t26.5 9q19 0 28.5 -7t9.5 -27z" />
    <glyph glyph-name="aeacu" unicode="&#xe6;&#x301;" horiz-adv-x="805" 
d="M435 227q2 -75 39 -109.5t117 -34.5q50 0 77 8t41 13h-1l2 2q5 2 10.5 3t19.5 3l12 -65q-7 -4 -25 -12.5t-42.5 -16.5t-52 -14.5t-53.5 -6.5q-62 0 -107.5 21.5t-84.5 69.5q-3 -7 -7 -11v1q-35 -47 -85.5 -65t-116.5 -18q-31 0 -55.5 12t-41 32.5t-25 46.5t-8.5 53
q0 49 31 81.5t76.5 53t96 31t89.5 16.5v28q0 23 -29.5 41.5t-82.5 18.5q-17 0 -36 -6.5t-36.5 -14.5t-31.5 -16l-19 -11l-31 71q9 12 26 23.5t39 20.5t48 14t53 5q16 -1 36 -4.5t41 -10t41.5 -16.5t36.5 -23h-1l4 -3l2 -2q11 11 26 22t32 19q21 10 46 15.5t56 5.5
q67 0 105 -29.5t56.5 -72t23 -89t4.5 -80.5h-315zM142 143q0 -23 11.5 -42.5t41.5 -19.5q42 0 69.5 12t44.5 33t24 48t8 57q-28 -2 -62.5 -8.5t-65 -17.5t-51 -26.5t-20.5 -35.5zM657 315q-2 48 -24.5 72t-76.5 24q-53 0 -85 -23.5t-36 -72.5h222zM549 707q0 -10 -24 -30.5
t-56 -41.5t-64 -36.5t-47 -16.5q-11 0 -17.5 3.5t-6.5 14.5q0 5 4 12v-1q1 2 11 12.5t26 25l35.5 31t38.5 30t35.5 22.5t26.5 9q19 0 28.5 -7t9.5 -27z" />
    <glyph glyph-name="Oslashacu" unicode="&#xd8;&#x301;" horiz-adv-x="775" 
d="M133 -35l43 85q-4 4 -12 10q-35 29 -58.5 66.5t-38 77.5t-21 78.5t-6.5 69.5q0 74 24 136t68 107t105.5 70.5t137.5 25.5q68 0 119 -15q11 20 21 41l20 41l73 -37l-39 -76q19 -11 34 -24l30 -27q39 -45 60.5 -107.5t21.5 -134.5q0 -32 -5.5 -71t-20 -79t-39.5 -77
t-62.5 -66t-90 -46.5t-122.5 -17.5q-67 0 -120 17l-6 3l-22 -44l-21 -43zM375 83q70 0 117 22t75.5 59.5t40.5 86t12 101.5q0 54 -14 101t-43 80l-16 16t-19 15l-68 -134l-67 -131l-102 -202q18 -6 39.5 -10t44.5 -4zM135 352q0 -54 16.5 -102.5t46.5 -85.5q5 -7 11 -13.5
l11 -11.5l22 41l105 206.5l106 208.5q-18 5 -36.5 6.5t-41.5 1.5q-60 0 -105 -18.5t-75 -52t-45 -79.5t-15 -101zM516 878q0 -10 -24 -30.5t-56 -41.5t-64 -36.5t-47 -16.5q-11 0 -17.5 3.5t-6.5 14.5q0 5 4 12v-1q1 2 11 12.5t26 25l35.5 31t38.5 30t35.5 22.5t26.5 9
q19 0 28.5 -7t9.5 -27z" />
    <glyph glyph-name="oslashacu" unicode="&#xf8;&#x301;" horiz-adv-x="563" 
d="M415 707q0 -10 -24 -30.5t-56 -41.5t-64 -36.5t-47 -16.5q-11 0 -17.5 3.5t-6.5 14.5q0 5 4 12v-1q1 2 11 12.5t26 25l35.5 31t38.5 30t35.5 22.5t26.5 9q19 0 28.5 -7t9.5 -27zM68 -28l50 85q-6 4 -10 10q-31 34 -49.5 80t-18.5 99q0 27 4 52t15 48q13 34 34.5 63
t49.5 49.5t61 32t69 11.5q24 0 46 -5t43 -14q11 20 23.5 40.5l23.5 39.5l70 -41l-49 -86l3 -3l7 -7q31 -35 49.5 -80.5t18.5 -99.5q0 -53 -18.5 -99t-50.5 -81t-74.5 -55t-91.5 -20q-43 0 -89 19q-10 -20 -22 -40.5l-23 -40.5zM218 90l-2 -7h-2l1 8zM216 65l11 19l-7 5l-8 9
zM396 377l-30 -4l6 -6l9 -12zM414 246q0 29 -9.5 57t-23.5 51l-76.5 -134l-77.5 -135q24 -8 46 -8q29 0 55 13.5t45 36.5t30 53.5t11 65.5zM326 403l11 -6l-8 31l-11 -21zM133 246q0 -27 9 -55t22 -51l51 86l51.5 90.5l51.5 90.5q-21 9 -45 9q-29 0 -54.5 -13.5t-44.5 -36.5
t-30 -54t-11 -66z" />
    <glyph glyph-name="Adgr" unicode="A&#x30f;" horiz-adv-x="624" 
d="M210 283h191l-48 125.5l-47 126.5zM269 686h73l260 -686h-94l-76 195h-252l-76 -195h-94zM81 878q0 20 9.5 27t27.5 7q10 0 26.5 -9t35.5 -22.5t38.5 -30l35.5 -30.5t26.5 -24.5t11.5 -12.5q3 -6 3 -11q0 -12 -6.5 -15.5t-18.5 -3.5q-10 0 -28 8t-39 19.5t-42.5 26
t-39.5 28t-29 25t-11 18.5zM260 878q0 20 9 27t28 7q10 0 26.5 -9t35.5 -22.5t38 -30l35 -30.5t26.5 -24.5t11.5 -12.5v1q3 -8 3 -12q0 -12 -6 -15.5t-17 -3.5q-10 0 -28 8t-39.5 19.5t-43 26t-39.5 28t-29 25t-11 18.5z" />
    <glyph glyph-name="adgr" unicode="a&#x30f;" horiz-adv-x="504" 
d="M150 143q0 -23 11.5 -42.5t41.5 -19.5q42 0 70 12t44.5 33t24 48t8.5 57q-28 -2 -63 -8.5t-65.5 -17.5t-51 -26.5t-20.5 -35.5zM56 139q0 32 14.5 57.5t38.5 44.5t54.5 32.5t63.5 22.5t65 15t58 10v28q0 23 -29.5 41.5t-83.5 18.5q-17 0 -36 -6.5t-36.5 -14.5t-31 -16
l-18.5 -11l-30 71q9 12 25.5 23.5t38 20.5t47.5 14t53 5q24 -1 57 -9t63 -23.5t51 -39t21 -55.5v-368h-85l-7 51q-32 -26 -75 -41t-87 -15q-32 0 -56 12t-41 32.5t-25.5 46.5t-8.5 53zM28 708q0 20 9.5 27t27.5 7q10 0 26.5 -9t35.5 -22.5t38.5 -30l35.5 -30.5t26.5 -24.5
t11.5 -12.5q3 -6 3 -11q0 -12 -6.5 -15.5t-18.5 -3.5q-10 0 -28 8t-39 19.5t-42.5 26t-39.5 28t-29 25t-11 18.5zM207 708q0 20 9 27t28 7q10 0 26.5 -9t35.5 -22.5t38 -30l35 -30.5t26.5 -24.5t11.5 -12.5v1q3 -8 3 -12q0 -12 -6 -15.5t-17 -3.5q-10 0 -28 8t-39.5 19.5
t-43 26t-39.5 28t-29 25t-11 18.5z" />
    <glyph glyph-name="Arbr" unicode="A&#x311;" horiz-adv-x="624" 
d="M210 283h191l-48 125.5l-47 126.5zM269 686h73l260 -686h-94l-76 195h-252l-76 -195h-94zM391 754q0 39 -24 57.5t-59 18.5q-36 0 -60 -18.5t-24 -57.5h-71q0 39 14 66t36.5 44t50 25t54.5 8q30 0 58 -8t49.5 -25t34.5 -44t13 -66h-72z" />
    <glyph glyph-name="arbr" unicode="a&#x311;" horiz-adv-x="504" 
d="M150 143q0 -23 11.5 -42.5t41.5 -19.5q42 0 70 12t44.5 33t24 48t8.5 57q-28 -2 -63 -8.5t-65.5 -17.5t-51 -26.5t-20.5 -35.5zM56 139q0 32 14.5 57.5t38.5 44.5t54.5 32.5t63.5 22.5t65 15t58 10v28q0 23 -29.5 41.5t-83.5 18.5q-17 0 -36 -6.5t-36.5 -14.5t-31 -16
l-18.5 -11l-30 71q9 12 25.5 23.5t38 20.5t47.5 14t53 5q24 -1 57 -9t63 -23.5t51 -39t21 -55.5v-368h-85l-7 51q-32 -26 -75 -41t-87 -15q-32 0 -56 12t-41 32.5t-25.5 46.5t-8.5 53zM337 584q0 39 -24 57.5t-59 18.5q-36 0 -60 -18.5t-24 -57.5h-71q0 39 14 66t36.5 44
t50 25t54.5 8q30 0 58 -8t49.5 -25t34.5 -44t13 -66h-72z" />
    <glyph glyph-name="Edgr" unicode="E&#x30f;" horiz-adv-x="458" 
d="M393 686v-87h-237v-195h231v-88h-231v-229h279v-87h-374v686h332zM7 878q0 20 9.5 27t27.5 7q10 0 26.5 -9t35.5 -22.5t38.5 -30l35.5 -30.5t26.5 -24.5t11.5 -12.5q3 -6 3 -11q0 -12 -6.5 -15.5t-18.5 -3.5q-10 0 -28 8t-39 19.5t-42.5 26t-39.5 28t-29 25t-11 18.5z
M186 878q0 20 9 27t28 7q10 0 26.5 -9t35.5 -22.5t38 -30l35 -30.5t26.5 -24.5t11.5 -12.5v1q3 -8 3 -12q0 -12 -6 -15.5t-17 -3.5q-10 0 -28 8t-39.5 19.5t-43 26t-39.5 28t-29 25t-11 18.5z" />
    <glyph glyph-name="edgr" unicode="e&#x30f;" horiz-adv-x="500" 
d="M355 315q-2 48 -25 72t-77 24q-53 0 -84 -23.5t-35 -72.5h221zM133 227q2 -75 39 -109.5t117 -34.5q50 0 76.5 8t40.5 13l3 2q5 2 10 3t19 3l12 -65l-26 -12.5t-42.5 -16.5t-52 -14.5t-52.5 -6.5q-63 0 -109 22t-86 72q-11 15 -19 34.5t-13 40.5t-8 42t-3 38
q0 52 11.5 98t37.5 80.5t68 54t103 19.5q67 0 105 -29.5t56.5 -72t22.5 -89t4 -80.5h-314zM30 707q0 20 9.5 27t27.5 7q10 0 26.5 -9t35.5 -22.5t38.5 -30l35.5 -30.5t26.5 -24.5t11.5 -12.5q3 -6 3 -11q0 -12 -6.5 -15.5t-18.5 -3.5q-10 0 -28 8t-39 19.5t-42.5 26
t-39.5 28t-29 25t-11 18.5zM209 707q0 20 9 27t28 7q10 0 26.5 -9t35.5 -22.5t38 -30l35 -30.5t26.5 -24.5t11.5 -12.5v1q3 -8 3 -12q0 -12 -6 -15.5t-17 -3.5q-10 0 -28 8t-39.5 19.5t-43 26t-39.5 28t-29 25t-11 18.5z" />
    <glyph glyph-name="Erbr" unicode="E&#x311;" horiz-adv-x="458" 
d="M393 686v-87h-237v-195h231v-88h-231v-229h279v-87h-374v686h332zM314 754q0 39 -24 57.5t-59 18.5q-36 0 -60 -18.5t-24 -57.5h-71q0 39 14 66t36.5 44t50 25t54.5 8q30 0 58 -8t49.5 -25t34.5 -44t13 -66h-72z" />
    <glyph glyph-name="erbr" unicode="e&#x311;" horiz-adv-x="500" 
d="M355 315q-2 48 -25 72t-77 24q-53 0 -84 -23.5t-35 -72.5h221zM133 227q2 -75 39 -109.5t117 -34.5q50 0 76.5 8t40.5 13l3 2q5 2 10 3t19 3l12 -65l-26 -12.5t-42.5 -16.5t-52 -14.5t-52.5 -6.5q-63 0 -109 22t-86 72q-11 15 -19 34.5t-13 40.5t-8 42t-3 38
q0 52 11.5 98t37.5 80.5t68 54t103 19.5q67 0 105 -29.5t56.5 -72t22.5 -89t4 -80.5h-314zM338 583q0 39 -24 57.5t-59 18.5q-36 0 -60 -18.5t-24 -57.5h-71q0 39 14 66t36.5 44t50 25t54.5 8q30 0 58 -8t49.5 -25t34.5 -44t13 -66h-72z" />
    <glyph glyph-name="Idgr" unicode="I&#x30f;" horiz-adv-x="216" 
d="M59 686h94v-686h-94v686zM-124 878q0 20 9.5 27t27.5 7q10 0 26.5 -9t35.5 -22.5t38.5 -30l35.5 -30.5t26.5 -24.5t11.5 -12.5q3 -6 3 -11q0 -12 -6.5 -15.5t-18.5 -3.5q-10 0 -28 8t-39 19.5t-42.5 26t-39.5 28t-29 25t-11 18.5zM55 878q0 20 9 27t28 7q10 0 26.5 -9
t35.5 -22.5t38 -30l35 -30.5t26.5 -24.5t11.5 -12.5v1q3 -8 3 -12q0 -12 -6 -15.5t-17 -3.5q-10 0 -28 8t-39.5 19.5t-43 26t-39.5 28t-29 25t-11 18.5z" />
    <glyph glyph-name="idgr" unicode="i&#x30f;" horiz-adv-x="186" 
d="M45 0v493h94v-493h-94zM-137 707q0 20 9.5 27t27.5 7q10 0 26.5 -9t35.5 -22.5t38.5 -30l35.5 -30.5t26.5 -24.5t11.5 -12.5q3 -6 3 -11q0 -12 -6.5 -15.5t-18.5 -3.5q-10 0 -28 8t-39 19.5t-42.5 26t-39.5 28t-29 25t-11 18.5zM42 707q0 20 9 27t28 7q10 0 26.5 -9
t35.5 -22.5t38 -30l35 -30.5t26.5 -24.5t11.5 -12.5v1q3 -8 3 -12q0 -12 -6 -15.5t-17 -3.5q-10 0 -28 8t-39.5 19.5t-43 26t-39.5 28t-29 25t-11 18.5z" />
    <glyph glyph-name="Irbr" unicode="I&#x311;" horiz-adv-x="216" 
d="M59 686h94v-686h-94v686zM185 754q0 39 -24 57.5t-59 18.5q-36 0 -60 -18.5t-24 -57.5h-71q0 39 14 66t36.5 44t50 25t54.5 8q30 0 58 -8t49.5 -25t34.5 -44t13 -66h-72z" />
    <glyph glyph-name="irbr" unicode="i&#x311;" horiz-adv-x="186" 
d="M138 493v-493h-94v493h94zM172 583q0 39 -24 57.5t-59 18.5q-36 0 -60 -18.5t-24 -57.5h-71q0 39 14 66t36.5 44t50 25t54.5 8q30 0 58 -8t49.5 -25t34.5 -44t13 -66h-72z" />
    <glyph glyph-name="Odgr" unicode="O&#x30f;" horiz-adv-x="770" 
d="M135 352q0 -53 15.5 -101.5t46 -86t75.5 -59.5t103 -22q70 0 117 22t75.5 59.5t40.5 86t12 101.5q0 55 -13.5 101t-43 79.5t-76 52t-112.5 18.5q-60 0 -105 -18.5t-75 -52t-45 -79.5t-15 -101zM375 -5q-70 0 -122.5 17.5t-89.5 46.5t-61 66t-37.5 77t-19 79t-5.5 71
q0 74 24 136t68 107t105.5 70.5t137.5 25.5q88 0 152 -25.5t106 -70.5t62 -107t20 -136q0 -32 -5.5 -71t-20 -79t-39.5 -77t-62.5 -66t-90 -46.5t-122.5 -17.5zM153 878q0 20 9.5 27t27.5 7q10 0 26.5 -9t35.5 -22.5t38.5 -30l35.5 -30.5t26.5 -24.5t11.5 -12.5q3 -6 3 -11
q0 -12 -6.5 -15.5t-18.5 -3.5q-10 0 -28 8t-39 19.5t-42.5 26t-39.5 28t-29 25t-11 18.5zM332 878q0 20 9 27t28 7q10 0 26.5 -9t35.5 -22.5t38 -30l35 -30.5t26.5 -24.5t11.5 -12.5v1q3 -8 3 -12q0 -12 -6 -15.5t-17 -3.5q-10 0 -28 8t-39.5 19.5t-43 26t-39.5 28t-29 25
t-11 18.5z" />
    <glyph glyph-name="odgr" unicode="o&#x30f;" horiz-adv-x="563" 
d="M40 246q0 53 18.5 99.5t50 81.5t74 55t90.5 20q49 0 91.5 -20t74.5 -55t50.5 -81.5t18.5 -99.5t-18.5 -99t-50.5 -81t-74.5 -55t-91.5 -20q-48 0 -90.5 20t-74 55t-50 81t-18.5 99zM133 246q0 -35 11 -65.5t30 -53.5t44.5 -36.5t54.5 -13.5t55 13.5t45 36.5t30 53.5
t11 65.5t-11 66t-30 54t-45 36.5t-55 13.5t-54.5 -13.5t-44.5 -36.5t-30 -54t-11 -66zM52 707q0 20 9.5 27t27.5 7q10 0 26.5 -9t35.5 -22.5t38.5 -30l35.5 -30.5t26.5 -24.5t11.5 -12.5q3 -6 3 -11q0 -12 -6.5 -15.5t-18.5 -3.5q-10 0 -28 8t-39 19.5t-42.5 26t-39.5 28
t-29 25t-11 18.5zM231 707q0 20 9 27t28 7q10 0 26.5 -9t35.5 -22.5t38 -30l35 -30.5t26.5 -24.5t11.5 -12.5v1q3 -8 3 -12q0 -12 -6 -15.5t-17 -3.5q-10 0 -28 8t-39.5 19.5t-43 26t-39.5 28t-29 25t-11 18.5z" />
    <glyph glyph-name="Orbr" unicode="O&#x311;" horiz-adv-x="770" 
d="M135 352q0 -53 15.5 -101.5t46 -86t75.5 -59.5t103 -22q70 0 117 22t75.5 59.5t40.5 86t12 101.5q0 55 -13.5 101t-43 79.5t-76 52t-112.5 18.5q-60 0 -105 -18.5t-75 -52t-45 -79.5t-15 -101zM375 -5q-70 0 -122.5 17.5t-89.5 46.5t-61 66t-37.5 77t-19 79t-5.5 71
q0 74 24 136t68 107t105.5 70.5t137.5 25.5q88 0 152 -25.5t106 -70.5t62 -107t20 -136q0 -32 -5.5 -71t-20 -79t-39.5 -77t-62.5 -66t-90 -46.5t-122.5 -17.5zM461 754q0 39 -24 57.5t-59 18.5q-36 0 -60 -18.5t-24 -57.5h-71q0 39 14 66t36.5 44t50 25t54.5 8q30 0 58 -8
t49.5 -25t34.5 -44t13 -66h-72z" />
    <glyph glyph-name="orbr" unicode="o&#x311;" horiz-adv-x="563" 
d="M40 246q0 53 18.5 99.5t50 81.5t74 55t90.5 20q49 0 91.5 -20t74.5 -55t50.5 -81.5t18.5 -99.5t-18.5 -99t-50.5 -81t-74.5 -55t-91.5 -20q-48 0 -90.5 20t-74 55t-50 81t-18.5 99zM133 246q0 -35 11 -65.5t30 -53.5t44.5 -36.5t54.5 -13.5t55 13.5t45 36.5t30 53.5
t11 65.5t-11 66t-30 54t-45 36.5t-55 13.5t-54.5 -13.5t-44.5 -36.5t-30 -54t-11 -66zM360 583q0 39 -24 57.5t-59 18.5q-36 0 -60 -18.5t-24 -57.5h-71q0 39 14 66t36.5 44t50 25t54.5 8q30 0 58 -8t49.5 -25t34.5 -44t13 -66h-72z" />
    <glyph glyph-name="Rdgr" unicode="R&#x30f;" horiz-adv-x="537" 
d="M157 599v-255h39q34 0 65 8t54.5 25.5t37.5 44t14 63.5q0 25 -9 46t-24.5 36t-37 23.5t-45.5 8.5h-94zM61 686h127q50 0 99 -6t88 -27t63 -61t24 -108q0 -74 -35 -121.5t-90 -73.5l159 -269l-90 -29l-160 269q-14 -2 -32.5 -2.5t-56.5 -0.5v-257h-96v686zM15 878
q0 20 9.5 27t27.5 7q10 0 26.5 -9t35.5 -22.5t38.5 -30l35.5 -30.5t26.5 -24.5t11.5 -12.5q3 -6 3 -11q0 -12 -6.5 -15.5t-18.5 -3.5q-10 0 -28 8t-39 19.5t-42.5 26t-39.5 28t-29 25t-11 18.5zM194 878q0 20 9 27t28 7q10 0 26.5 -9t35.5 -22.5t38 -30l35 -30.5t26.5 -24.5
t11.5 -12.5v1q3 -8 3 -12q0 -12 -6 -15.5t-17 -3.5q-10 0 -28 8t-39.5 19.5t-43 26t-39.5 28t-29 25t-11 18.5z" />
    <glyph glyph-name="rdgr" unicode="r&#x30f;" horiz-adv-x="346" 
d="M61 493h93v-39q25 23 48.5 35.5t45.5 12.5q10 0 23 -2.5t24.5 -8.5t19.5 -16.5t8 -25.5q0 -12 -11.5 -24t-25.5 -16q-6 -2 -14.5 -2.5t-17.5 -1.5t-17 -1h-13q-23 0 -36.5 -18.5t-21 -42.5t-10 -47.5t-2.5 -33.5v-262h-93v493zM-38 707q0 20 9.5 27t27.5 7q10 0 26.5 -9
t35.5 -22.5t38.5 -30l35.5 -30.5t26.5 -24.5t11.5 -12.5q3 -6 3 -11q0 -12 -6.5 -15.5t-18.5 -3.5q-10 0 -28 8t-39 19.5t-42.5 26t-39.5 28t-29 25t-11 18.5zM141 707q0 20 9 27t28 7q10 0 26.5 -9t35.5 -22.5t38 -30l35 -30.5t26.5 -24.5t11.5 -12.5v1q3 -8 3 -12
q0 -12 -6 -15.5t-17 -3.5q-10 0 -28 8t-39.5 19.5t-43 26t-39.5 28t-29 25t-11 18.5z" />
    <glyph glyph-name="Rrbr" unicode="R&#x311;" horiz-adv-x="537" 
d="M157 599v-255h39q34 0 65 8t54.5 25.5t37.5 44t14 63.5q0 25 -9 46t-24.5 36t-37 23.5t-45.5 8.5h-94zM61 686h127q50 0 99 -6t88 -27t63 -61t24 -108q0 -74 -35 -121.5t-90 -73.5l159 -269l-90 -29l-160 269q-14 -2 -32.5 -2.5t-56.5 -0.5v-257h-96v686zM322 754
q0 39 -24 57.5t-59 18.5q-36 0 -60 -18.5t-24 -57.5h-71q0 39 14 66t36.5 44t50 25t54.5 8q30 0 58 -8t49.5 -25t34.5 -44t13 -66h-72z" />
    <glyph glyph-name="rrbr" unicode="r&#x311;" horiz-adv-x="346" 
d="M61 493h93v-39q25 23 48.5 35.5t45.5 12.5q10 0 23 -2.5t24.5 -8.5t19.5 -16.5t8 -25.5q0 -12 -11.5 -24t-25.5 -16q-6 -2 -14.5 -2.5t-17.5 -1.5t-17 -1h-13q-23 0 -36.5 -18.5t-21 -42.5t-10 -47.5t-2.5 -33.5v-262h-93v493zM271 583q0 39 -24 57.5t-59 18.5
q-36 0 -60 -18.5t-24 -57.5h-71q0 39 14 66t36.5 44t50 25t54.5 8q30 0 58 -8t49.5 -25t34.5 -44t13 -66h-72z" />
    <glyph glyph-name="Udgr" unicode="U&#x30f;" horiz-adv-x="660" 
d="M62 686h96v-439q0 -47 13.5 -78.5t36 -50.5t52.5 -27t63 -8q28 0 58 10t54 30.5t39.5 51.5t15.5 73v438h95v-438q0 -55 -14.5 -95t-38 -68t-53 -46t-58.5 -27.5t-55 -13t-43 -3.5q-19 0 -45.5 2.5t-55.5 11t-58 24.5t-51.5 44.5t-36.5 70t-14 100.5v438zM100 878
q0 20 9.5 27t27.5 7q10 0 26.5 -9t35.5 -22.5t38.5 -30l35.5 -30.5t26.5 -24.5t11.5 -12.5q3 -6 3 -11q0 -12 -6.5 -15.5t-18.5 -3.5q-10 0 -28 8t-39 19.5t-42.5 26t-39.5 28t-29 25t-11 18.5zM279 878q0 20 9 27t28 7q10 0 26.5 -9t35.5 -22.5t38 -30l35 -30.5t26.5 -24.5
t11.5 -12.5v1q3 -8 3 -12q0 -12 -6 -15.5t-17 -3.5q-10 0 -28 8t-39.5 19.5t-43 26t-39.5 28t-29 25t-11 18.5z" />
    <glyph glyph-name="udgr" unicode="u&#x30f;" horiz-adv-x="543" 
d="M388 0l-10 36q-39 -26 -72.5 -33.5t-71.5 -7.5q-88 0 -130 46.5t-42 136.5v315h94v-321q0 -27 10 -45t25.5 -28t34.5 -14t36 -4q21 0 40.5 5.5t35 16.5t25 28.5t9.5 40.5v321h94v-493h-78zM47 707q0 20 9.5 27t27.5 7q10 0 26.5 -9t35.5 -22.5t38.5 -30l35.5 -30.5
t26.5 -24.5t11.5 -12.5q3 -6 3 -11q0 -12 -6.5 -15.5t-18.5 -3.5q-10 0 -28 8t-39 19.5t-42.5 26t-39.5 28t-29 25t-11 18.5zM226 707q0 20 9 27t28 7q10 0 26.5 -9t35.5 -22.5t38 -30l35 -30.5t26.5 -24.5t11.5 -12.5v1q3 -8 3 -12q0 -12 -6 -15.5t-17 -3.5q-10 0 -28 8
t-39.5 19.5t-43 26t-39.5 28t-29 25t-11 18.5z" />
    <glyph glyph-name="Urbr" unicode="U&#x311;" horiz-adv-x="660" 
d="M62 686h96v-439q0 -47 13.5 -78.5t36 -50.5t52.5 -27t63 -8q28 0 58 10t54 30.5t39.5 51.5t15.5 73v438h95v-438q0 -55 -14.5 -95t-38 -68t-53 -46t-58.5 -27.5t-55 -13t-43 -3.5q-19 0 -45.5 2.5t-55.5 11t-58 24.5t-51.5 44.5t-36.5 70t-14 100.5v438zM408 754
q0 39 -24 57.5t-59 18.5q-36 0 -60 -18.5t-24 -57.5h-71q0 39 14 66t36.5 44t50 25t54.5 8q30 0 58 -8t49.5 -25t34.5 -44t13 -66h-72z" />
    <glyph glyph-name="urbr" unicode="u&#x311;" horiz-adv-x="543" 
d="M388 0l-10 36q-39 -26 -72.5 -33.5t-71.5 -7.5q-88 0 -130 46.5t-42 136.5v315h94v-321q0 -27 10 -45t25.5 -28t34.5 -14t36 -4q21 0 40.5 5.5t35 16.5t25 28.5t9.5 40.5v321h94v-493h-78zM356 583q0 39 -24 57.5t-59 18.5q-36 0 -60 -18.5t-24 -57.5h-71q0 39 14 66
t36.5 44t50 25t54.5 8q30 0 58 -8t49.5 -25t34.5 -44t13 -66h-72z" />
    <glyph glyph-name="Scom" unicode="S&#x326;" horiz-adv-x="465" 
d="M213 -5q-15 0 -40 5t-52.5 14.5t-54 23t-45.5 30.5l57 72q34 -23 67.5 -40t71.5 -17q25 0 46 5t37 15.5t25 27.5t9 41q0 27 -11 48.5t-28.5 39.5t-40 33.5l-45.5 30.5q-28 17 -56.5 36.5t-51 44.5t-37 57t-14.5 74q0 26 12.5 53.5t37 50t60 37t80.5 14.5q36 0 64 -5.5
t49 -14t36 -18.5t24 -19l-45 -73q-28 15 -57.5 26.5t-59.5 11.5q-20 0 -39 -4t-34 -12.5t-24 -21t-9 -30.5t9.5 -34t25.5 -31.5t35.5 -30t40.5 -28.5q29 -20 60 -44t56 -52.5t41 -63t16 -76.5t-19.5 -75t-50 -55.5t-69 -34t-77.5 -11.5zM169 -86q0 22 15.5 40.5t37.5 18.5
q29 0 46 -20.5t17 -43.5q0 -27 -7.5 -51t-21.5 -42t-33.5 -29t-43.5 -11v31q16 8 28.5 22.5t16.5 29.5q-21 2 -38 17t-17 38z" />
    <glyph glyph-name="scom" unicode="s&#x326;" horiz-adv-x="395" 
d="M73 124q23 -15 49 -29.5t55 -13.5q28 0 52 10t24 34q0 36 -21.5 55t-52.5 37q-1 0 -2 1t-1.5 1t-1.5 1l-3 2q-20 13 -39.5 28.5t-36 35t-26.5 44.5t-10 56q0 28 12 49t33 35t49 21t60 7q7 0 21 -1.5t30.5 -5.5t32.5 -10.5t28 -15.5l-36 -70q-20 7 -37.5 11.5t-32.5 4.5
q-28 0 -47.5 -7.5t-19.5 -24.5q0 -32 19 -48.5t46 -31.5l21 -12q20 -12 39 -26.5t34.5 -34t25 -44.5t10.5 -57q0 -32 -14 -56.5t-38 -41t-55.5 -24.5t-66.5 -8q-23 0 -54.5 8.5t-85.5 41.5zM131 -86q0 22 15.5 40.5t37.5 18.5q29 0 46 -20.5t17 -43.5q0 -27 -7.5 -51
t-21.5 -42t-33.5 -29t-43.5 -11v31q16 8 28.5 22.5t16.5 29.5q-21 2 -38 17t-17 38z" />
    <glyph glyph-name="Tcom" unicode="T&#x326;" horiz-adv-x="560" 
d="M227 599h-211v87h518v-87h-212v-599h-95v599zM223 -86q0 22 15.5 40.5t37.5 18.5q29 0 46 -20.5t17 -43.5q0 -27 -7.5 -51t-21.5 -42t-33.5 -29t-43.5 -11v31q16 8 28.5 22.5t16.5 29.5q-21 2 -38 17t-17 38z" />
    <glyph glyph-name="tcom" unicode="t&#x326;" horiz-adv-x="332" 
d="M223 0q-70 0 -106.5 39t-36.5 117v251h-66v86h66v102l93 26v-128h120v-86h-120v-268q0 -25 13 -39t48 -14l14 1h-1l17 2l14 2l23 4l10 -81q-22 -6 -45 -10t-43 -4zM144 -86q0 22 15.5 40.5t37.5 18.5q29 0 46 -20.5t17 -43.5q0 -27 -7.5 -51t-21.5 -42t-33.5 -29
t-43.5 -11v31q16 8 28.5 22.5t16.5 29.5q-21 2 -38 17t-17 38z" />
    <glyph glyph-name="Hcar" unicode="H&#x30c;" horiz-adv-x="653" 
d="M62 686h96v-270h325v270h95v-686h-95v328h-325v-328h-96v686zM352 754h-66l-118 143h68l84 -74l81 74h71z" />
    <glyph glyph-name="hcar" unicode="h&#x30c;" horiz-adv-x="534" 
d="M62 696h94v-242q19 15 52 27t97 12q39 0 71.5 -12.5t55.5 -35.5t36 -55t13 -72v-318h-94v315q0 9 -2 24.5t-12.5 30.5t-34.5 26t-67 11q-24 0 -44.5 -10t-36.5 -24.5t-25 -30.5t-9 -29v-313h-94v696zM375 583h-66l-118 143h68l84 -74l81 74h71z" />
    <glyph glyph-name="Adot" unicode="A&#x307;" horiz-adv-x="624" 
d="M210 283h191l-48 125.5l-47 126.5zM269 686h73l260 -686h-94l-76 195h-252l-76 -195h-94zM257 827q0 22 15 38t38 16q24 0 39 -16t15 -38q0 -23 -15 -39.5t-39 -16.5q-23 0 -38 16.5t-15 39.5z" />
    <glyph glyph-name="adot" unicode="a&#x307;" horiz-adv-x="504" 
d="M150 143q0 -23 11.5 -42.5t41.5 -19.5q42 0 70 12t44.5 33t24 48t8.5 57q-28 -2 -63 -8.5t-65.5 -17.5t-51 -26.5t-20.5 -35.5zM56 139q0 32 14.5 57.5t38.5 44.5t54.5 32.5t63.5 22.5t65 15t58 10v28q0 23 -29.5 41.5t-83.5 18.5q-17 0 -36 -6.5t-36.5 -14.5t-31 -16
l-18.5 -11l-30 71q9 12 25.5 23.5t38 20.5t47.5 14t53 5q24 -1 57 -9t63 -23.5t51 -39t21 -55.5v-368h-85l-7 51q-32 -26 -75 -41t-87 -15q-32 0 -56 12t-41 32.5t-25.5 46.5t-8.5 53zM203 657q0 22 15 38t38 16q24 0 39 -16t15 -38q0 -23 -15 -39.5t-39 -16.5
q-23 0 -38 16.5t-15 39.5z" />
    <glyph glyph-name="Eced" unicode="E&#x327;" horiz-adv-x="458" 
d="M393 686v-87h-237v-195h231v-88h-231v-229h279v-87h-374v686h332zM299 20l-40 -74q42 -11 66.5 -26t24.5 -55q0 -29 -14.5 -46t-37 -26t-48.5 -11.5t-49 -2.5q-14 0 -31 1t-18 1h-2l6 52q15 -2 26 -3t19 0q12 0 23.5 1t21.5 4t16 9t6 16q0 11 -8 17.5t-20 10.5t-26.5 6
t-26.5 4l35 122h77z" />
    <glyph glyph-name="eced" unicode="e&#x327;" horiz-adv-x="500" 
d="M355 315q-2 48 -25 72t-77 24q-53 0 -84 -23.5t-35 -72.5h221zM133 227q2 -75 39 -109.5t117 -34.5q50 0 76.5 8t40.5 13l3 2q5 2 10 3t19 3l12 -65l-26 -12.5t-42.5 -16.5t-52 -14.5t-52.5 -6.5q-63 0 -109 22t-86 72q-11 15 -19 34.5t-13 40.5t-8 42t-3 38
q0 52 11.5 98t37.5 80.5t68 54t103 19.5q67 0 105 -29.5t56.5 -72t22.5 -89t4 -80.5h-314zM310 20l-40 -74q42 -11 66.5 -26t24.5 -55q0 -29 -14.5 -46t-37 -26t-48.5 -11.5t-49 -2.5q-14 0 -31 1t-18 1h-2l6 52q15 -2 26 -3t19 0q12 0 23.5 1t21.5 4t16 9t6 16
q0 11 -8 17.5t-20 10.5t-26.5 6t-26.5 4l35 122h77z" />
    <glyph glyph-name="Odiamac" unicode="O&#x308;&#x304;" horiz-adv-x="770" 
d="M135 352q0 -53 15.5 -101.5t46 -86t75.5 -59.5t103 -22q70 0 117 22t75.5 59.5t40.5 86t12 101.5q0 55 -13.5 101t-43 79.5t-76 52t-112.5 18.5q-60 0 -105 -18.5t-75 -52t-45 -79.5t-15 -101zM375 -5q-70 0 -122.5 17.5t-89.5 46.5t-61 66t-37.5 77t-19 79t-5.5 71
q0 74 24 136t68 107t105.5 70.5t137.5 25.5q88 0 152 -25.5t106 -70.5t62 -107t20 -136q0 -32 -5.5 -71t-20 -79t-39.5 -77t-62.5 -66t-90 -46.5t-122.5 -17.5zM237 792q0 21 15 36t35 15q23 0 37 -15t14 -36t-14 -36.5t-37 -15.5q-21 0 -35.5 15.5t-14.5 36.5zM419 792
q0 21 14.5 36t35.5 15t36 -15t15 -36t-15 -36.5t-36 -15.5t-35.5 15.5t-14.5 36.5zM222 986h310v-77h-310v77z" />
    <glyph glyph-name="odiamac" unicode="o&#x308;&#x304;" horiz-adv-x="563" 
d="M40 246q0 53 18.5 99.5t50 81.5t74 55t90.5 20q49 0 91.5 -20t74.5 -55t50.5 -81.5t18.5 -99.5t-18.5 -99t-50.5 -81t-74.5 -55t-91.5 -20q-48 0 -90.5 20t-74 55t-50 81t-18.5 99zM133 246q0 -35 11 -65.5t30 -53.5t44.5 -36.5t54.5 -13.5t55 13.5t45 36.5t30 53.5
t11 65.5t-11 66t-30 54t-45 36.5t-55 13.5t-54.5 -13.5t-44.5 -36.5t-30 -54t-11 -66zM136 621q0 21 15 36t35 15q23 0 37 -15t14 -36t-14 -36.5t-37 -15.5q-21 0 -35.5 15.5t-14.5 36.5zM318 621q0 21 14.5 36t35.5 15t36 -15t15 -36t-15 -36.5t-36 -15.5t-35.5 15.5
t-14.5 36.5zM121 815h310v-77h-310v77z" />
    <glyph glyph-name="Otilmac" unicode="O&#x303;&#x304;" horiz-adv-x="770" 
d="M135 352q0 -53 15.5 -101.5t46 -86t75.5 -59.5t103 -22q70 0 117 22t75.5 59.5t40.5 86t12 101.5q0 55 -13.5 101t-43 79.5t-76 52t-112.5 18.5q-60 0 -105 -18.5t-75 -52t-45 -79.5t-15 -101zM375 -5q-70 0 -122.5 17.5t-89.5 46.5t-61 66t-37.5 77t-19 79t-5.5 71
q0 74 24 136t68 107t105.5 70.5t137.5 25.5q88 0 152 -25.5t106 -70.5t62 -107t20 -136q0 -32 -5.5 -71t-20 -79t-39.5 -77t-62.5 -66t-90 -46.5t-122.5 -17.5zM203 767q28 47 53.5 63.5t57.5 16.5q27 0 45 -8.5t34 -19.5q13 -8 26.5 -15t29.5 -7q15 0 31.5 18.5t28.5 40.5
l48 -49q-22 -41 -47.5 -57.5t-60.5 -16.5q-32 0 -55 11t-42 22q1 0 -3 2q-11 5 -19.5 9.5t-15.5 4.5q-17 0 -32 -18t-28 -39zM222 986h310v-77h-310v77z" />
    <glyph glyph-name="otilmac" unicode="o&#x303;&#x304;" horiz-adv-x="563" 
d="M40 246q0 53 18.5 99.5t50 81.5t74 55t90.5 20q49 0 91.5 -20t74.5 -55t50.5 -81.5t18.5 -99.5t-18.5 -99t-50.5 -81t-74.5 -55t-91.5 -20q-48 0 -90.5 20t-74 55t-50 81t-18.5 99zM133 246q0 -35 11 -65.5t30 -53.5t44.5 -36.5t54.5 -13.5t55 13.5t45 36.5t30 53.5
t11 65.5t-11 66t-30 54t-45 36.5t-55 13.5t-54.5 -13.5t-44.5 -36.5t-30 -54t-11 -66zM102 596q28 47 53.5 63.5t57.5 16.5q27 0 45 -8.5t34 -19.5q13 -8 26.5 -15t29.5 -7q15 0 31.5 18.5t28.5 40.5l48 -49q-22 -41 -47.5 -57.5t-60.5 -16.5q-32 0 -55 11t-42 22q1 0 -3 2
q-11 5 -19.5 9.5t-15.5 4.5q-17 0 -32 -18t-28 -39zM121 815h310v-77h-310v77z" />
    <glyph glyph-name="Odot" unicode="O&#x307;" horiz-adv-x="770" 
d="M135 352q0 -53 15.5 -101.5t46 -86t75.5 -59.5t103 -22q70 0 117 22t75.5 59.5t40.5 86t12 101.5q0 55 -13.5 101t-43 79.5t-76 52t-112.5 18.5q-60 0 -105 -18.5t-75 -52t-45 -79.5t-15 -101zM375 -5q-70 0 -122.5 17.5t-89.5 46.5t-61 66t-37.5 77t-19 79t-5.5 71
q0 74 24 136t68 107t105.5 70.5t137.5 25.5q88 0 152 -25.5t106 -70.5t62 -107t20 -136q0 -32 -5.5 -71t-20 -79t-39.5 -77t-62.5 -66t-90 -46.5t-122.5 -17.5zM328 827q0 22 15 38t38 16q24 0 39 -16t15 -38q0 -23 -15 -39.5t-39 -16.5q-23 0 -38 16.5t-15 39.5z" />
    <glyph glyph-name="odot" unicode="o&#x307;" horiz-adv-x="563" 
d="M40 246q0 53 18.5 99.5t50 81.5t74 55t90.5 20q49 0 91.5 -20t74.5 -55t50.5 -81.5t18.5 -99.5t-18.5 -99t-50.5 -81t-74.5 -55t-91.5 -20q-48 0 -90.5 20t-74 55t-50 81t-18.5 99zM133 246q0 -35 11 -65.5t30 -53.5t44.5 -36.5t54.5 -13.5t55 13.5t45 36.5t30 53.5
t11 65.5t-11 66t-30 54t-45 36.5t-55 13.5t-54.5 -13.5t-44.5 -36.5t-30 -54t-11 -66zM227 656q0 22 15 38t38 16q24 0 39 -16t15 -38q0 -23 -15 -39.5t-39 -16.5q-23 0 -38 16.5t-15 39.5z" />
    <glyph glyph-name="Odotmac" unicode="O&#x307;&#x304;" horiz-adv-x="770" 
d="M135 352q0 -53 15.5 -101.5t46 -86t75.5 -59.5t103 -22q70 0 117 22t75.5 59.5t40.5 86t12 101.5q0 55 -13.5 101t-43 79.5t-76 52t-112.5 18.5q-60 0 -105 -18.5t-75 -52t-45 -79.5t-15 -101zM375 -5q-70 0 -122.5 17.5t-89.5 46.5t-61 66t-37.5 77t-19 79t-5.5 71
q0 74 24 136t68 107t105.5 70.5t137.5 25.5q88 0 152 -25.5t106 -70.5t62 -107t20 -136q0 -32 -5.5 -71t-20 -79t-39.5 -77t-62.5 -66t-90 -46.5t-122.5 -17.5zM326 792q0 23 16 39t38 16q25 0 39.5 -16t14.5 -39t-14.5 -39t-39.5 -16q-22 0 -38 16t-16 39zM222 986h310v-77
h-310v77z" />
    <glyph glyph-name="odotmac" unicode="o&#x307;&#x304;" horiz-adv-x="563" 
d="M40 246q0 53 18.5 99.5t50 81.5t74 55t90.5 20q49 0 91.5 -20t74.5 -55t50.5 -81.5t18.5 -99.5t-18.5 -99t-50.5 -81t-74.5 -55t-91.5 -20q-48 0 -90.5 20t-74 55t-50 81t-18.5 99zM133 246q0 -35 11 -65.5t30 -53.5t44.5 -36.5t54.5 -13.5t55 13.5t45 36.5t30 53.5
t11 65.5t-11 66t-30 54t-45 36.5t-55 13.5t-54.5 -13.5t-44.5 -36.5t-30 -54t-11 -66zM225 621q0 23 16 39t38 16q25 0 39.5 -16t14.5 -39t-14.5 -39t-39.5 -16q-22 0 -38 16t-16 39zM121 815h310v-77h-310v77z" />
    <glyph glyph-name="Ymac" unicode="Y&#x304;" horiz-adv-x="522" 
d="M208 281l-99 199l-102 206h102l147 -299l105 215v-1l42 85h103l-202 -405v-281h-96v281zM101 864h310v-77h-310v77z" />
    <glyph glyph-name="ymac" unicode="y&#x304;" horiz-adv-x="515" 
d="M163 493l112 -339l57.5 169.5l57.5 169.5h101l-166 -456q-15 -39 -35.5 -85.5t-53.5 -86t-81.5 -66t-117.5 -26.5l-12 86q49 0 82.5 17t56 41.5t36 53t22.5 52.5v1q1 1 1 2t1 3l-33.5 96l-34.5 96l-49.5 138l-47.5 134h104zM125 693h310v-77h-310v77z" />
    <glyph glyph-name="Aslash" unicode="A&#x338;" horiz-adv-x="624" 
d="M106 4l96 188h-23zM86 -34l18 34h-91l256 676h71l45 -121l21 39.5l20 39.5l28.5 57l28.5 56l72 -37l-132 -257l172 -453h-92l-75 192h-137l-132 -263zM209 279h36l28 56l30 57t29 57q-5 11 -8 20.5l-6 19.5l-6.5 16.5l-7.5 19.5zM397 279q-8 20 -14 37q-4 8 -6 15t-7 17
l-15 -30l-20 -39h62z" />
    <glyph glyph-name="Cslash" unicode="C&#x337;" horiz-adv-x="675" 
d="M133 -34l48 95l-10.5 8.5l-10.5 8.5q-51 43 -85 110.5t-34 155.5t36 151.5t91 104.5t120 61t122 20q18 0 36 -1.5t34 -5.5q-3 2 1.5 0.5t6.5 -1.5l3 -1q10 18 19 37.5t19 37.5l72 -37l-32 -60l14 -6q11 -5 20 -10t16 -11l-28 -71q-16 7 -31 12l-29 10l-36 -69
l-100.5 -201l-102.5 -201l3 -1q2 0 4 -1l4 -2q48 -18 99 -18q32 0 59.5 5t51 12.5t42.5 16l34 15.5l25 -74q-13 -9 -33 -20t-46 -20t-58.5 -15t-71.5 -6q-22 0 -44.5 2.5t-42.5 6.5q-14 3 -32 8.5t-34 11.5q-11 -23 -24 -47.5t-24 -47.5zM212 143l1 1zM452 593q0 -1 1 -1h2
h3l-4 6l-3 -5h1zM276 249l87.5 171.5l87.5 172.5q-11 1 -20.5 1.5t-20.5 0.5q-51 0 -100.5 -16.5t-88 -48t-62.5 -78t-24 -107.5q0 -65 22.5 -114t59.5 -82l-4 -5h4.5t4.5 -1l28 53t26 53z" />
    <glyph glyph-name="cslash" unicode="c&#x337;" horiz-adv-x="481" 
d="M84 -42l38 88l-19 19v-1q-31 33 -47.5 78.5t-16.5 102.5t17 103.5t49 80.5t79 52.5t106 18.5h11t12 -1q2 0 2.5 -0.5t2.5 -0.5l4 14l23 51l71 -28l-24 -56l17 -8l-32 -77l-18 7l-67.5 -155.5l-67.5 -155.5q28 -9 64 -9q12 -1 26 1.5t29 7t30 10.5t29 11l8 3l21 -74
q-11 -12 -30.5 -21t-41.5 -14t-41.5 -7.5t-30.5 -2.5q-55 0 -98 15l-16.5 -40l-16.5 -40zM306 414l-15 24l-11 -26q8 2 11.5 2h5.5h9zM182 117l-13 10h1q-5 4 -7 12l-12 -26zM173 373q-41 -38 -41 -119q-2 -73 31 -117l117 276q-68 -5 -106 -40h-1z" />
    <glyph glyph-name="Lbar" unicode="L&#x335;" horiz-adv-x="500" 
d="M17 389h85v287h94v-287h167v-86h-167v-217h274v-86h-368v303h-85v86z" />
    <glyph glyph-name="Tslash" unicode="T&#x338;" horiz-adv-x="560" 
d="M50 -34l175 347v277h-207v86h392l18 35l18 36l71 -37l-17 -34h28v-86h-72l-137 -269v-321h-94v136l-28 -57l-75 -150zM319 498l23.5 45.5l24.5 46.5h-48v-92z" />
    <glyph glyph-name="Ubar" unicode="U&#x335;" horiz-adv-x="660" 
d="M29 412h35v264h94v-264h327v264h93v-264h34v-87h-34v-80q0 -54 -14.5 -93.5t-37.5 -67.5t-51.5 -45.5t-57 -27t-54 -13t-42.5 -3.5q-19 0 -45.5 2.5t-55 10.5t-56.5 24.5t-50 44t-36 69t-14 99.5v80h-35v87zM171 165q20 -47 60 -65.5t90 -18.5q28 0 57 10t53 30.5
t39 51.5t15 72v80h-327v-82q0 -23 3 -43.5t10 -34.5z" />
    <glyph glyph-name="Eslash" unicode="E&#x338;" horiz-adv-x="458" 
d="M8 -34l54 106v604h306l37 71l70 -37l-158 -313h66v-86h-111l-113 -225h271v-86h-315l-6 -12l-30 -59zM156 397h70l50 97l23.5 47l24.5 49h-168v-193zM156 256l27 55h-27v-55z" />
    <glyph glyph-name="eslash" unicode="e&#x338;" horiz-adv-x="500" 
d="M57 -42l49 106q-6 7 -12.5 13.5t-11.5 13.5q-11 15 -19 34.5t-13 40.5t-8 42t-3 38q0 52 11.5 98t37.5 80.5t68 54t103 19.5q11 0 21.5 -1t20.5 -3l31 69l75 -28l-34 -72q8 -7 15 -15v1q21 -22 33 -50.5t17.5 -59t7 -60t1.5 -52.5h-180l-14 -30q-13 -26 -23.5 -49.5
l-23.5 -51.5l11 -3h-1q29 -10 73 -10q50 0 76.5 8t40.5 13l3 2q5 2 10 3t19 3l12 -65l-26 -12.5t-42.5 -16.5t-52 -14.5t-52.5 -6.5q-63 0 -107 20l-33 -76l-2.5 -5l-2.5 -5zM219 315l8.5 19t9.5 20q7 14 12.5 27t13.5 30h-10q-53 0 -84 -23.5t-35 -72.5h85zM133 227
q1 -32 9 -58l2 -8l2 -7l12 24q5 14 9.5 24l11.5 25h-46zM355 315q-2 21 -6 37.5t-13 27.5q-5 -9 -8.5 -16.5t-6.5 -16.5q-4 -9 -7 -16.5t-8 -15.5h49z" />
    <glyph glyph-name="Jbar" unicode="J&#x335;" horiz-adv-x="355" 
d="M25 412h102v264h94v-264h98v-87h-98v-369q0 -39 -15.5 -64t-38 -39.5t-47 -20t-43.5 -5.5q-12 0 -20.5 8t-8.5 16q0 18 24 33q7 4 16.5 12.5t18 22t14.5 32t6 42.5v332h-102v87z" />
    <glyph glyph-name="jbar" unicode="j&#x335;" horiz-adv-x="305" 
d="M25 315h77v178h93v-178h76v-88h-76v-317q0 -13 -5 -35.5t-18.5 -44.5t-38 -38.5t-63.5 -16.5q-17 0 -23 11.5t-6 16.5q0 21 19 35l8 7q13 11 23.5 24.5t10.5 46.5v311h-77v88zM95 626q0 22 14.5 37.5t37.5 15.5q25 0 40 -15.5t15 -37.5q0 -23 -15 -39.5t-40 -16.5
q-23 0 -37.5 16.5t-14.5 39.5z" />
    <glyph glyph-name="ubar" unicode="u&#x335;" horiz-adv-x="619" 
d="M29 315h71v178h93v-178h217v178h94v-178h70v-88h-70v-227h-79l-10 36q-39 -26 -72.5 -33.5t-71.5 -7.5q-88 0 -129.5 46.5t-41.5 136.5v49h-71v88zM203 127q15 -26 42 -36t53 -10q21 0 41 5.5t35.5 16.5t25.5 28.5t10 40.5v55h-217v-55q0 -25 10 -45z" />
    <glyph glyph-name="glo" unicode="&#x20;&#x309;" horiz-adv-x="274" 
d="M65 346q0 31 18.5 61t38.5 55l14 16q14 18 27 37t13 41q0 23 -16.5 30.5t-41.5 7.5q-17 0 -28.5 -6t-19.5 -14l-2 -3q-8 -5 -16.5 -9t-20.5 -4q-10 0 -20 10.5t-10 22.5q0 14 11.5 27.5t30 24.5t40.5 18t43 7q23 0 45 -6.5t41 -19.5q19 -14 31.5 -34.5t12.5 -50.5
q0 -39 -20.5 -71.5t-43.5 -61.5q-9 -11 -17.5 -23t-15.5 -25t-11.5 -27.5t-4.5 -32.5h-78v30z" />
    <glyph glyph-name="cir" unicode="&#x20;&#x302;" horiz-adv-x="360" 
d="M142 727h67l117 -143h-67l-85 73l-80 -73h-71z" />
    <glyph glyph-name="car" unicode="&#x20;&#x30c;" horiz-adv-x="360" 
d="M207 584h-66l-118 143h68l84 -74l81 74h71z" />
    <glyph glyph-name="vli" unicode="&#x20;&#x30d;" horiz-adv-x="148" 
d="M34 737h76v-158h-76v158z" />
    <glyph glyph-name="mac" unicode="&#x20;&#x304;" horiz-adv-x="396" 
d="M38 693h310v-77h-310v77z" />
    <glyph glyph-name="acu" unicode="&#x20;&#x301;" horiz-adv-x="295" 
d="M251 708q0 -10 -24 -30.5t-56 -41.5t-64 -36.5t-47 -16.5q-11 0 -17.5 3.5t-6.5 14.5q0 5 4 12v-1q1 2 11 12.5t26 25l35.5 31t38.5 30t35.5 22.5t26.5 9q19 0 28.5 -7t9.5 -27z" />
    <glyph glyph-name="gra" unicode="&#x20;&#x300;" horiz-adv-x="295" 
d="M36 708q0 20 10 27t27 7q16 0 44.5 -19t57 -42.5t50 -44t22.5 -23.5q4 -7 4 -12q0 -11 -6.5 -14.5t-18.5 -3.5q-15 1 -46.5 16.5t-63.5 36.5t-56 41.5t-24 30.5z" />
    <glyph glyph-name="vlu" unicode="&#x20;&#x329;" horiz-adv-x="148" 
d="M34 -62h76v-158h-76v158z" />
    <glyph glyph-name="mau" unicode="&#x20;&#x331;" horiz-adv-x="396" 
d="M38 -103h310v-77h-310v77z" />
    <glyph glyph-name="bre" unicode="&#x20;&#x306;" horiz-adv-x="396" 
d="M109 726q0 -40 24 -58.5t60 -18.5q35 0 59.5 18.5t24.5 58.5h71q0 -39 -14.5 -66.5t-37 -44.5t-50 -24.5t-54.5 -7.5q-30 0 -57.5 7.5t-49 24.5t-34.5 44.5t-13 66.5h71z" />
    <glyph glyph-name="dot" unicode="&#x20;&#x307;" horiz-adv-x="196" 
d="M35 637q0 26 18 43.5t42 17.5q27 0 44 -17.5t17 -43.5t-17 -44t-44 -18q-24 0 -42 18t-18 44z" />
    <glyph glyph-name="rin" unicode="&#x20;&#x30a;" horiz-adv-x="273" 
d="M83 653q0 -19 15 -33.5t36 -14.5q20 0 34.5 14.5t14.5 33.5q0 21 -14.5 36t-34.5 15q-21 0 -36 -15t-15 -36zM36 655q0 20 7.5 37.5t21 31t31.5 21.5t38 8q18 0 35.5 -8t31 -21.5t21.5 -31t8 -37.5t-8 -37t-21.5 -30.5t-31 -21t-35.5 -7.5q-20 0 -38 7.5t-31.5 21
t-21 30.5t-7.5 37z" />
    <glyph glyph-name="ogo" unicode="&#x20;&#x328;" horiz-adv-x="250" 
d="M168 25q-29 -23 -44 -55t-15 -51q0 -42 52 -42h46v-39q-29 -14 -69 -14q-46 0 -74 19.5t-28 59.5q0 17 5.5 35.5t14.5 35.5t19.5 30.5t21.5 20.5h71z" />
    <glyph glyph-name="til" unicode="&#x20;&#x303;" horiz-adv-x="435" 
d="M34 625q18 30 32 47.5t26 26t24.5 11t28.5 2.5q30 0 49 -11t34 -23q13 -9 25 -16.5t27 -7.5q7 0 15 6.5t16.5 16.5t15.5 21.5l13 21.5l48 -48q-21 -40 -47 -61t-61 -21q-31 0 -53.5 12t-40.5 25q-11 8 -20.5 14t-20.5 6q-17 0 -30 -18t-24 -37l-6 -7z" />
    <glyph glyph-name="dac" unicode="&#x20;&#x30b;" horiz-adv-x="483" 
d="M431 707q0 -10 -24 -30.5t-56 -41t-63.5 -36.5t-46.5 -17q-12 0 -17.5 3.5t-5.5 15.5q0 3 0.5 5.5t1.5 5.5q1 2 11.5 12.5t26.5 24.5l35.5 30.5t38.5 30t35.5 22.5t26.5 9q18 0 27.5 -7t9.5 -27zM253 707q0 -10 -24 -30.5t-56 -41t-63.5 -36.5t-46.5 -17q-12 0 -18 3.5
t-6 15.5q0 3 0.5 5.5t1.5 5.5q1 2 11.5 12.5t26.5 24.5l35.5 30.5t38.5 30t36 22.5t27 9q18 0 27.5 -7t9.5 -27z" />
    <glyph glyph-name="com" unicode="&#x20;&#x326;" horiz-adv-x="191" 
d="M35 -63q0 23 15.5 41.5t37.5 18.5q28 0 45.5 -21t17.5 -44q0 -26 -7.5 -50t-21.5 -42t-33.5 -29t-43.5 -11v31q16 8 28.5 23t16.5 29q-21 2 -38 17t-17 37z" />
    <glyph glyph-name="csii" unicode="&#x1403;&#x307;" 
d="M371 676l236 -601v-75h-554v75l234 601h84zM151 86h358l-63 160l-57.5 145l-58.5 151zM275 865q0 29 21 49t49 20t48 -20t20 -49q0 -28 -20 -48.5t-48 -20.5t-49 20.5t-21 48.5z" />
    <glyph glyph-name="csoo" unicode="&#x1405;&#x307;" horiz-adv-x="694" 
d="M623 305l-494 -305h-76v676h76l494 -305v-66zM144 569v-462l144 89l113.5 70.5l116.5 71.5zM38 865q0 29 20 49t49 20t48.5 -20t19.5 -49q0 -28 -19.5 -48.5t-48.5 -20.5t-49 20.5t-20 48.5z" />
    <glyph glyph-name="csaa" unicode="&#x140a;&#x307;" horiz-adv-x="700" 
d="M53 371l494 305h76v-676h-76l-494 305v66zM158 338l198 -122l175 -109v461zM514 865q0 29 20.5 49t48.5 20q29 0 49 -20t20 -49q0 -28 -20 -48.5t-49 -20.5q-28 0 -48.5 20.5t-20.5 48.5z" />
    <glyph glyph-name="cspii" unicode="&#x1431;&#x307;" 
d="M373 676l239 -649l-88 -31l-194 533l-97.5 -267l-97.5 -266l-86 31l237 649h87zM275 865q0 29 21 49t49 20t48 -20t20 -49q0 -28 -20 -48.5t-48 -20.5t-49 20.5t-21 48.5z" />
    <glyph glyph-name="cspoo" unicode="&#x1433;&#x307;" 
d="M607 295l-516 -300l-43 77l460 266l-105 60l-106 63l-249 144l43 76l516 -300v-86zM60 865q0 29 20 49t49 20t48.5 -20t19.5 -49q0 -28 -19.5 -48.5t-48.5 -20.5t-49 20.5t-20 48.5z" />
    <glyph glyph-name="cspaa" unicode="&#x1438;&#x307;" 
d="M53 381l514 300l45 -76l-460 -267l233 -135l113.5 -66l113.5 -65l-45 -77l-514 300v86zM492 865q0 29 20.5 49t48.5 20q29 0 49 -20t20 -49q0 -28 -20 -48.5t-49 -20.5q-28 0 -48.5 20.5t-20.5 48.5z" />
    <glyph glyph-name="cstii" unicode="&#x144e;&#x307;" 
d="M513 0v335q0 55 -14.5 103t-39 84t-58 56.5t-71.5 20.5t-71.5 -20.5t-58.5 -56.5t-39.5 -84t-14.5 -103v-335h-93v336q0 72 22 135.5t59.5 111t88 75t107.5 27.5t107.5 -27.5t88 -75t59.5 -111t22 -135.5v-336h-94zM275 865q0 29 21 49t49 20t48 -20t20 -49
q0 -28 -20 -48.5t-48 -20.5t-49 20.5t-21 48.5z" />
    <glyph glyph-name="cstoo" unicode="&#x1450;&#x307;" 
d="M53 676h204q72 0 135.5 -26.5t111.5 -72.5t75.5 -107.5t27.5 -131.5t-27.5 -131.5t-75.5 -107.5t-111.5 -72.5t-135.5 -26.5h-204v86h204q53 0 99.5 20t81.5 54.5t55 80t20 97.5t-20 98t-55 80t-81.5 54t-99.5 20h-204v86zM209 865q0 29 21 49t49 20t48 -20t20 -49
q0 -28 -20 -48.5t-48 -20.5t-49 20.5t-21 48.5z" />
    <glyph glyph-name="cstaa" unicode="&#x1455;&#x307;" 
d="M607 0h-204q-72 0 -136 26.5t-111.5 72.5t-75 107.5t-27.5 131.5t27.5 131.5t75 107.5t111.5 72.5t136 26.5h204v-86h-204q-53 0 -99.5 -20t-81.5 -54t-55.5 -80t-20.5 -98t20.5 -97.5t55.5 -80t81.5 -54.5t99.5 -20h204v-86zM342 865q0 29 21 49t49 20t48 -20t20 -49
q0 -28 -20 -48.5t-48 -20.5t-49 20.5t-21 48.5z" />
    <glyph glyph-name="cskii" unicode="&#x146d;&#x307;" horiz-adv-x="544" 
d="M51 471q0 45 17 84t46 68t68 46t83 17t83 -17t68 -46t46 -68t17 -84q0 -44 -17 -82.5t-46 -67.5t-68 -46t-83 -17q-22 0 -43 4t-41 12q-10 5 -19 10t-17 10v-294h-94v471zM145 471q0 -26 9.5 -49.5t25.5 -40.5t38 -27t47 -10t47 10t38 27t25.5 40.5t9.5 49.5
q0 27 -9.5 50.5t-25.5 41t-38 27.5t-47 10t-47 -10t-38 -27.5t-25.5 -41t-9.5 -50.5zM209 865q0 29 19.5 49t48.5 20t48.5 -20t19.5 -49q0 -28 -19.5 -48.5t-48.5 -20.5t-48.5 20.5t-19.5 48.5z" />
    <glyph glyph-name="cskoo" unicode="&#x146f;&#x307;" horiz-adv-x="544" 
d="M479 204q0 -44 -17 -83t-46 -68t-67.5 -46t-82.5 -17q-45 0 -84 17t-68 46t-46 68t-17 83t17 83t46 68t68 46t84 17q32 0 63 -9.5t56 -26.5v294h94v-472zM385 204q0 27 -9.5 50t-25.5 40.5t-37.5 27.5t-46.5 10q-26 0 -48 -10t-38 -27.5t-25.5 -40.5t-9.5 -50
q0 -26 9.5 -49.5t25.5 -40.5t38 -27t48 -10q25 0 46.5 10t37.5 27t25.5 40.5t9.5 49.5zM381 865q0 29 20 49t49 20q28 0 48.5 -20t20.5 -49q0 -28 -20.5 -48.5t-48.5 -20.5q-29 0 -49 20.5t-20 48.5z" />
    <glyph glyph-name="cskaa" unicode="&#x1472;&#x307;" horiz-adv-x="544" 
d="M51 676h94v-294q25 17 56 26.5t64 9.5q44 0 83 -17t68 -46t46 -68t17 -83t-17 -83t-46 -68t-68 -46t-83 -17t-83 17t-68 46t-46 68t-17 83v472zM145 204q0 -26 9.5 -49.5t25.5 -40.5t38 -27t47 -10t47 10t38 27t25.5 40.5t9.5 49.5q0 27 -9.5 50t-25.5 40.5t-38 27.5
t-47 10t-47 -10t-38 -27.5t-25.5 -40.5t-9.5 -50zM35 865q0 29 20.5 49t48.5 20q29 0 49 -20t20 -49q0 -28 -20 -48.5t-49 -20.5q-28 0 -48.5 20.5t-20.5 48.5z" />
    <glyph glyph-name="cscii" unicode="&#x148b;&#x307;" horiz-adv-x="544" 
d="M51 471q0 45 17 84t46 68t68 46t83 17t83 -17t68 -46t46 -68t17 -84v-60h-94v60q0 27 -9.5 50.5t-25.5 41t-38 27.5t-47 10q-23 0 -43.5 -10.5t-37 -27.5t-27 -39.5t-12.5 -46.5v-476h-94v471zM209 865q0 29 19.5 49t48.5 20t48.5 -20t19.5 -49q0 -28 -19.5 -48.5
t-48.5 -20.5t-48.5 20.5t-19.5 48.5z" />
    <glyph glyph-name="cscoo" unicode="&#x148d;&#x307;" horiz-adv-x="544" 
d="M479 204q0 -44 -17 -83t-46 -68t-67.5 -46t-82.5 -17q-45 0 -84 17t-68 46t-46 68t-17 83v62h94v-62q0 -26 9.5 -49.5t25.5 -40.5t38 -27t48 -10q25 0 46.5 10t37.5 27t25.5 40.5t9.5 49.5v472h94v-472zM381 865q0 29 20 49t49 20q28 0 48.5 -20t20.5 -49
q0 -28 -20.5 -48.5t-48.5 -20.5q-29 0 -49 20.5t-20 48.5z" />
    <glyph glyph-name="cscaa" unicode="&#x1490;&#x307;" horiz-adv-x="544" 
d="M51 676h94v-472q0 -26 9.5 -49.5t25.5 -40.5t38 -27t47 -10t47 10t38 27t25.5 40.5t9.5 49.5v62h94v-62q0 -44 -17 -83t-46 -68t-68 -46t-83 -17t-83 17t-68 46t-46 68t-17 83v472zM35 865q0 29 20.5 49t48.5 20q29 0 49 -20t20 -49q0 -28 -20 -48.5t-49 -20.5
q-28 0 -48.5 20.5t-20.5 48.5z" />
    <glyph glyph-name="csmii" unicode="&#x14a5;&#x307;" horiz-adv-x="544" 
d="M479 590h-334v-590h-94v676h428v-86zM209 865q0 29 19.5 49t48.5 20t48.5 -20t19.5 -49q0 -28 -19.5 -48.5t-48.5 -20.5t-48.5 20.5t-19.5 48.5z" />
    <glyph glyph-name="csmoo" unicode="&#x14a7;&#x307;" horiz-adv-x="544" 
d="M51 86h334v590h94v-676h-428v86zM381 865q0 29 20 49t49 20q28 0 48.5 -20t20.5 -49q0 -28 -20.5 -48.5t-48.5 -20.5q-29 0 -49 20.5t-20 48.5z" />
    <glyph glyph-name="csmaa" unicode="&#x14aa;&#x307;" horiz-adv-x="544" 
d="M479 0h-428v676h94v-590h334v-86zM35 865q0 29 20.5 49t48.5 20q29 0 49 -20t20 -49q0 -28 -20 -48.5t-49 -20.5q-28 0 -48.5 20.5t-20.5 48.5z" />
    <glyph glyph-name="csnii" unicode="&#x14c2;&#x307;" 
d="M439 224q0 -47 -15 -89.5t-41.5 -74.5t-61.5 -50.5t-75 -18.5t-75 18.5t-61.5 50.5t-41.5 74.5t-15 89.5q0 48 15 90.5t41.5 74.5t61.5 50.5t75 18.5h361v-87h-210q19 -30 30.5 -69t11.5 -78zM345 224q0 30 -7.5 56.5t-21 46.5t-31.5 32t-39 12t-39.5 -12t-32 -32
t-21 -46.5t-7.5 -56.5t7.5 -56.5t21 -46.5t32 -32t39.5 -12t39 12t31.5 32t21 46.5t7.5 56.5zM275 644q0 28 21 48t49 20t48 -20t20 -48t-20 -49t-48 -21t-49 21t-21 49z" />
    <glyph glyph-name="csnoo" unicode="&#x14c4;&#x307;" 
d="M220 233q0 48 15.5 90.5t41.5 74.5t61.5 50.5t75.5 18.5q39 0 74.5 -18.5t61.5 -50.5t41.5 -74.5t15.5 -90.5q0 -47 -15.5 -89t-41.5 -74t-61.5 -51t-74.5 -19h-361v86h210q-21 31 -32 68.5t-11 78.5zM314 233q0 -29 8 -56t21.5 -47t31.5 -32t39 -12q20 0 38 12t31.5 32
t21.5 47t8 56q0 30 -8 57t-21.5 47t-31.5 32t-38 12q-21 0 -39 -12t-31.5 -32t-21.5 -47t-8 -57zM362 644q0 28 20 48t49 20t49 -20t20 -48t-20 -49t-49 -21t-49 21t-20 49z" />
    <glyph glyph-name="csnaa" unicode="&#x14c7;&#x307;" 
d="M439 233q0 -85 -42 -147h210v-86h-361q-40 0 -75 19t-61.5 51t-41.5 74t-15 89q0 48 15 90.5t41.5 74.5t61.5 50.5t75 18.5t75 -18.5t61.5 -50.5t41.5 -74.5t15 -90.5zM345 233q0 30 -7.5 57t-21 47t-31.5 32t-39 12t-39.5 -12t-32 -32t-21 -47t-7.5 -57q0 -29 7.5 -56
t21 -47t32 -32t39.5 -12t39 12t31.5 32t21 47t7.5 56zM189 644q0 28 20.5 48t49.5 20q28 0 48 -20t20 -48t-20 -49t-48 -21q-29 0 -49.5 21t-20.5 49z" />
    <glyph glyph-name="cslii" unicode="&#x14d5;&#x307;" 
d="M607 371h-361q-21 0 -39.5 -12t-32 -32t-21 -46.5t-7.5 -56.5t7.5 -56.5t21 -46.5t32 -32t39.5 -12h28v-86h-28q-40 0 -75 18.5t-61.5 50.5t-41.5 74.5t-15 89.5q0 48 15 90.5t41.5 74.5t61.5 50.5t75 18.5h361v-87zM275 644q0 28 21 48t49 20t48 -20t20 -48t-20 -49
t-48 -21t-49 21t-21 49z" />
    <glyph glyph-name="csloo" unicode="&#x14d7;&#x307;" 
d="M53 86h361q20 0 38 12t31.5 32t21.5 47t8 56q0 30 -8 57t-21.5 47t-31.5 32t-38 12h-29v86h29q39 0 74.5 -18.5t61.5 -50.5t41.5 -74.5t15.5 -90.5q0 -47 -15.5 -89t-41.5 -74t-61.5 -51t-74.5 -19h-361v86zM362 644q0 28 20 48t49 20t49 -20t20 -48t-20 -49t-49 -21
t-49 21t-20 49z" />
    <glyph glyph-name="cslaa" unicode="&#x14da;&#x307;" 
d="M607 0h-361q-40 0 -75 19t-61.5 51t-41.5 74t-15 89q0 48 15 90.5t41.5 74.5t61.5 50.5t75 18.5h28v-86h-28q-21 0 -39.5 -12t-32 -32t-21 -47t-7.5 -57q0 -29 7.5 -56t21 -47t32 -32t39.5 -12h361v-86zM189 644q0 28 20.5 48t49.5 20q28 0 48 -20t20 -48t-20 -49
t-48 -21q-29 0 -49.5 21t-20.5 49z" />
    <glyph glyph-name="cssii" unicode="&#x14ef;&#x307;" horiz-adv-x="544" 
d="M479 624q0 -72 -26 -136t-71 -114t-106 -82.5t-131 -40.5v-251h-94v335h47q60 0 112 22.5t91 61.5t61.5 91.5t22.5 112.5v53h94v-52v0zM209 865q0 29 19.5 49t48.5 20t48.5 -20t19.5 -49q0 -28 -19.5 -48.5t-48.5 -20.5t-48.5 20.5t-19.5 48.5z" />
    <glyph glyph-name="cssoo" unicode="&#x14f1;&#x307;" horiz-adv-x="544" 
d="M431 341q-60 0 -112 -22.5t-90.5 -61.5t-61 -91.5t-22.5 -112.5v-53h-94v52q0 72 25.5 136t70.5 114t106 82t132 40v252h94v-335h-48zM381 865q0 29 20 49t49 20q28 0 48.5 -20t20.5 -49q0 -28 -20.5 -48.5t-48.5 -20.5q-29 0 -49 20.5t-20 48.5z" />
    <glyph glyph-name="cssaa" unicode="&#x14f4;&#x307;" horiz-adv-x="544" 
d="M51 676h94l-1 -252q71 -8 132 -40.5t106 -82t71 -113.5t26 -136v-52h-94v53q0 60 -22.5 112.5t-61.5 91.5t-91 61.5t-112 22.5h-47v335zM35 865q0 29 20.5 49t48.5 20q29 0 49 -20t20 -49q0 -28 -20 -48.5t-49 -20.5q-28 0 -48.5 20.5t-20.5 48.5z" />
    <glyph glyph-name="csshii" unicode="&#x1511;&#x307;" 
d="M283 548q0 28 13 53t35 43.5t51.5 29.5t62.5 11t62.5 -11t51.5 -29.5t35 -43.5t13 -53v-101h-94v101q0 21 -19.5 36t-48.5 15q-28 0 -48.5 -15t-20.5 -36v-420q0 -28 -12.5 -53t-34.5 -43.5t-51.5 -29.5t-62.5 -11q-34 0 -63.5 11t-51.5 29.5t-34.5 43.5t-12.5 53v95h93
v-95q0 -21 20 -36t49 -15t48.5 15t19.5 36v420zM397 865q0 29 21 49t49 20t48 -20t20 -49q0 -28 -20 -48.5t-48 -20.5t-49 20.5t-21 48.5z" />
    <glyph glyph-name="csshoo" unicode="&#x1513;&#x307;" 
d="M513 228q0 30 -6.5 57.5t-17.5 49t-25.5 34t-31.5 12.5v86q36 0 68 -19.5t56 -52.5t37.5 -76t13.5 -91q0 -47 -13 -90t-35 -75.5t-51.5 -52t-62.5 -19.5t-62.5 17.5t-51.5 48.5t-35 72t-13 89v22q0 30 -5.5 55.5t-14.5 44.5t-21.5 30t-26.5 11t-26.5 -12.5t-22 -34
t-15 -49t-5.5 -57.5t6.5 -57t17.5 -48t25.5 -33.5t31.5 -12.5v-86q-36 0 -67.5 19.5t-55.5 52t-37.5 75.5t-13.5 90q0 48 12.5 91t34.5 76t51.5 52.5t63.5 19.5q33 0 62.5 -17.5t51.5 -48.5t34.5 -72t12.5 -89v-22q0 -30 5.5 -55.5t15 -44.5t22 -30t26.5 -11t26.5 12.5
t21.5 33.5t14.5 48t5.5 57zM275 644q0 28 21 48t49 20t48 -20t20 -48t-20 -49t-48 -21t-49 21t-21 49z" />
    <glyph glyph-name="csshaa" unicode="&#x1515;&#x307;" 
d="M146 228q0 -30 5.5 -57t14.5 -48t21.5 -33.5t26.5 -12.5t26.5 11t21.5 30t14.5 44.5t5.5 55.5v22q0 48 13 89t35 72t52 48.5t63 17.5t62.5 -19.5t51.5 -52.5t35 -76t13 -91q0 -47 -14 -90t-38 -75.5t-56 -52t-68 -19.5v86q17 0 32 12.5t26 33.5t17.5 48t6.5 57t-5.5 57.5
t-14.5 49t-21.5 34t-26.5 12.5t-26.5 -11t-22 -30t-15 -44.5t-5.5 -55.5v-22q0 -48 -12.5 -89t-34.5 -72t-51.5 -48.5t-63.5 -17.5t-63.5 19.5t-51 52t-34 75.5t-12.5 90q0 48 13.5 91t37 76t55.5 52.5t68 19.5v-86q-17 0 -31.5 -12.5t-25.5 -34t-17.5 -49t-6.5 -57.5z
M275 644q0 28 21 48t49 20t48 -20t20 -48t-20 -49t-48 -21t-49 21t-21 49z" />
    <glyph glyph-name="csyii" unicode="&#x1528;&#x307;" 
d="M53 0v335h385l-180 127l-106 74.5l-105 73.5l52 72l508 -362v-71h-461v-249h-93zM275 865q0 29 21 49t49 20t48 -20t20 -49q0 -28 -20 -48.5t-48 -20.5t-49 20.5t-21 48.5z" />
    <glyph glyph-name="csyoo" unicode="&#x152a;&#x307;" 
d="M53 427h460v249h94v-335h-386l75.5 -53l75.5 -53l240 -168l-51 -73l-508 362v71zM514 865q0 29 20.5 49t48.5 20q29 0 49 -20t20 -49q0 -28 -20 -48.5t-49 -20.5q-28 0 -48.5 20.5t-20.5 48.5z" />
    <glyph glyph-name="csyaa" unicode="&#x152d;&#x307;" 
d="M607 356l-508 -362l-52 73l391 274h-385v335h93v-249h461v-71zM38 865q0 29 20 49t49 20t48.5 -20t19.5 -49q0 -28 -19.5 -48.5t-48.5 -20.5t-49 20.5t-20 48.5z" />
    <glyph glyph-name="csrii" unicode="&#x1546;&#x307;" 
d="M607 0h-262v238q0 30 -7.5 56t-21 45.5t-31.5 30.5t-39 11t-39.5 -11t-32 -30.5t-21 -45.5t-7.5 -56v-238h-93v238q0 48 15 89.5t41.5 72.5t61.5 49t75 18t75 -18t61.5 -49t41.5 -72.5t15 -89.5v-152h168v-86zM189 644q0 28 20.5 48t49.5 20q28 0 48 -20t20 -48t-20 -49
t-48 -21q-29 0 -49.5 21t-20.5 49z" />
    <glyph glyph-name="csroo" unicode="&#x1548;&#x307;" 
d="M330 335q38 0 71.5 10t58 27t39 40.5t14.5 50.5q0 26 -14.5 49t-39 40.5t-58 27.5t-71.5 10h-277v86h277q57 0 107.5 -17t88 -46t59.5 -67.5t22 -82.5t-22 -83t-59.5 -68t-88 -46t-107.5 -17h-184v-249h-93v335h277zM275 865q0 29 21 49t49 20t48 -20t20 -49
q0 -28 -20 -48.5t-48 -20.5t-49 20.5t-21 48.5z" />
    <glyph glyph-name="csraa" unicode="&#x154b;&#x307;" 
d="M146 463q0 -27 14 -50.5t39 -40.5t58.5 -27t71.5 -10h278v-335h-94v249h-184q-57 0 -107.5 17t-88 46t-59 68t-21.5 83t21.5 82.5t59 67.5t88 46t107.5 17h278v-86h-278q-38 0 -71.5 -10t-58.5 -27.5t-39 -40.5t-14 -49zM275 865q0 29 21 49t49 20t48 -20t20 -49
q0 -28 -20 -48.5t-48 -20.5t-49 20.5t-21 48.5z" />
    <glyph glyph-name="csfii" unicode="&#x1555;&#x307;" 
d="M53 120q0 14 3.5 27.5t7.5 24.5l87 222l54.5 142l55.5 140h85l266 -645l-87 -35l-220 557l-114 -307q24 -2 45.5 -13t37.5 -28t25.5 -39t9.5 -46q0 -27 -10 -50.5t-27.5 -41t-41 -27.5t-50.5 -10q-26 0 -49.5 10t-40.5 27.5t-27 41t-10 50.5zM146 120q0 -18 10.5 -30.5
t24.5 -12.5t24 12.5t10 30.5q0 17 -10 29t-24 12t-24.5 -12t-10.5 -29zM275 865q0 29 21 49t49 20t48 -20t20 -49q0 -28 -20 -48.5t-48 -20.5t-49 20.5t-21 48.5z" />
    <glyph glyph-name="csfoo" unicode="&#x1557;&#x307;" horiz-adv-x="694" 
d="M623 338l-527 -343l-48 75l470 302l-75.5 52.5l-74.5 50.5h1l-34 24.5l-34 23.5q-5 -22 -16.5 -40.5t-27.5 -32.5t-36.5 -22t-42.5 -8q-26 0 -48.5 10.5t-39.5 28.5t-27 42.5t-10 52.5q0 27 10 51t27 41.5t39.5 28t48.5 10.5q20 0 38 -6.5t34 -17.5l48 -32l325 -222v-69z
M212 553q0 17 -10 30.5t-24 13.5t-23.5 -13.5t-9.5 -30.5q0 -18 9.5 -30.5t23.5 -12.5t24 12.5t10 30.5zM121 865q0 29 20 49t49 20t48.5 -20t19.5 -49q0 -28 -19.5 -48.5t-48.5 -20.5t-49 20.5t-20 48.5z" />
    <glyph glyph-name="csfaa" unicode="&#x1559;&#x307;" horiz-adv-x="694" 
d="M53 407l325 222l48 32q15 11 33 17.5t38 6.5q26 0 49 -10.5t40 -28t27 -41.5t10 -51q0 -28 -10 -52.5t-27 -42.5t-40 -28.5t-49 -10.5q-45 0 -78 29.5t-44 73.5l-29 -20.5l-30 -21.5l-77.5 -53.5l-80.5 -55.5l470 -302l-48 -75l-527 343v69zM465 553q0 -18 9.5 -30.5
t23.5 -12.5t23.5 12.5t9.5 30.5q0 17 -9.5 30.5t-23.5 13.5t-23.5 -13.5t-9.5 -30.5zM431 865q0 29 20.5 49t48.5 20q29 0 49 -20t20 -49q0 -28 -20 -48.5t-49 -20.5q-28 0 -48.5 20.5t-20.5 48.5z" />
    <glyph glyph-name="csthii" unicode="&#x1560;&#x307;" 
d="M513 0v335q0 55 -14.5 103t-39.5 84t-58.5 56.5t-71.5 20.5t-71.5 -20.5t-58.5 -56.5t-39 -84t-14 -103v-92q8 2 17 3t17 1q27 0 50.5 -10t41 -27.5t27.5 -40.5t10 -49q0 -27 -10 -50.5t-27.5 -41t-41 -27.5t-50.5 -10q-26 0 -49.5 10t-40.5 27.5t-27 41t-10 50.5v216
q0 72 21.5 135.5t59 111t88 75t107.5 27.5t108 -27.5t88.5 -75t59.5 -111t22 -135.5v-336h-94zM146 120q0 -18 10.5 -30.5t24.5 -12.5t24 12.5t10 30.5q0 17 -10 29t-24 12t-23.5 -11.5t-11.5 -28.5v-1zM275 865q0 29 21 49t49 20t48 -20t20 -49q0 -28 -20 -48.5t-48 -20.5
t-49 20.5t-21 48.5z" />
    <glyph glyph-name="csncrthii" unicode="&#x1561;&#x307;" 
d="M53 0v336q0 72 22 135.5t59.5 111t88 75t107.5 27.5t107.5 -27.5t88 -75t59.5 -111t22 -135.5v-216q0 -27 -10 -50.5t-27.5 -41t-40.5 -27.5t-50 -10q-26 0 -49.5 10t-41 27.5t-27.5 41t-10 50.5q0 26 10 49t27.5 40.5t41 27.5t49.5 10q8 0 17 -1t17 -3v92
q0 55 -14.5 103t-39 84t-58 56.5t-71.5 20.5t-71.5 -20.5t-58.5 -56.5t-39.5 -84t-14.5 -103v-335h-93zM513 121q-1 17 -10.5 28.5t-23.5 11.5t-24 -12t-10 -29q0 -18 10 -30.5t24 -12.5t24 12.5t10 30.5v1zM275 865q0 29 21 49t49 20t48 -20t20 -49q0 -28 -20 -48.5
t-48 -20.5t-49 20.5t-21 48.5z" />
    <glyph glyph-name="csthoo" unicode="&#x1564;&#x307;" 
d="M53 548q0 26 10 49.5t27 41t40.5 27.5t49.5 10h77q72 0 135.5 -26.5t111.5 -72.5t75.5 -107.5t27.5 -131.5t-27.5 -131.5t-75.5 -107.5t-111.5 -72.5t-135.5 -26.5h-195v86h195q53 0 99.5 20t81.5 54.5t55 80t20 97.5q0 46 -16 87.5t-44 74t-66.5 55t-82.5 30.5l3.5 -18
t1.5 -19q0 -27 -10 -50.5t-27.5 -41t-41 -27.5t-50.5 -10q-26 0 -49.5 10t-40.5 27.5t-27 41t-10 50.5zM181 590q-14 0 -24.5 -12.5t-10.5 -29.5t10.5 -29t24.5 -12t24 12t10 29t-9.5 29t-23.5 13h-1zM209 865q0 29 21 49t49 20t48 -20t20 -49q0 -28 -20 -48.5t-48 -20.5
t-49 20.5t-21 48.5z" />
    <glyph glyph-name="csthaa" unicode="&#x1566;&#x307;" 
d="M607 548q0 -27 -10 -50.5t-27.5 -41t-40.5 -27.5t-50 -10q-26 0 -49.5 10t-41 27.5t-27.5 41t-10 50.5q0 11 1 19.5t4 17.5q-45 -8 -83.5 -30.5t-66.5 -55t-44 -74t-16 -87.5q0 -52 20.5 -97.5t55.5 -80t81.5 -54.5t99.5 -20h195v-86h-195q-72 0 -136 26.5t-111.5 72.5
t-75 107.5t-27.5 131.5t27.5 131.5t75 107.5t111.5 72.5t136 26.5h76q27 0 50 -10t40.5 -27.5t27.5 -41t10 -49.5zM513 548q0 17 -10 29.5t-24 12.5h-2q-14 -1 -23 -13t-9 -29t10 -29t24 -12t24 12t10 29zM342 865q0 29 21 49t49 20t48 -20t20 -49q0 -28 -20 -48.5
t-48 -20.5t-49 20.5t-21 48.5z" />
    <glyph glyph-name="csnukhii" unicode="&#x1575;&#x307;" horiz-adv-x="782" 
d="M280 471q0 45 17 84t46 68t67.5 46t82.5 17q45 0 84 -17t68 -46t46 -68t17 -84q0 -44 -17 -82.5t-46 -67.5t-68 -46t-84 -17q-32 0 -63 9t-57 26v-293h-86l-238 239l64 64l167 -168v336zM373 471q0 -26 9.5 -49.5t25.5 -40.5t38 -27t47 -10t47 10t38.5 27t25.5 40.5
t9 49.5q0 27 -9 50.5t-25.5 41t-38.5 27.5t-47 10t-47 -10t-38 -27.5t-25.5 -41t-9.5 -50.5zM447 865q0 29 21 49t49 20t48 -20t20 -49q0 -28 -20 -48.5t-48 -20.5t-49 20.5t-21 48.5z" />
    <glyph glyph-name="csnukhoo" unicode="&#x1577;&#x307;" horiz-adv-x="782" 
d="M482 204q0 -44 -17 -83t-46 -68t-67.5 -46t-82.5 -17q-45 0 -84 17t-68 46t-46 68t-17 83t17 83t46 68t68 46t84 17q32 0 63 -9.5t56 -26.5v294h86l239 -239l-63 -64l-168 168v-337zM388 204q0 27 -9.5 50t-25.5 40.5t-38 27.5t-46 10q-25 0 -47.5 -10t-39 -27.5
t-26 -40.5t-9.5 -50q0 -26 9.5 -49.5t26 -40.5t39 -27t47.5 -10q24 0 46 10t38 27t25.5 40.5t9.5 49.5zM381 865q0 29 20.5 49t48.5 20q29 0 49 -20t20 -49q0 -28 -20 -48.5t-49 -20.5q-28 0 -48.5 20.5t-20.5 48.5z" />
    <glyph glyph-name="csnukhaa" unicode="&#x1579;&#x307;" horiz-adv-x="782" 
d="M280 541l-167 -168l-64 64l238 239h86v-294q26 17 57 26.5t63 9.5q45 0 84 -17t68 -46t46 -68t17 -83t-17 -83t-46 -68t-68 -46t-84 -17q-44 0 -82.5 17t-67.5 46t-46 68t-17 83v337zM373 204q0 -26 9.5 -49.5t25.5 -40.5t38 -27t47 -10t47 10t38.5 27t25.5 40.5t9 49.5
q0 27 -9 50t-25.5 40.5t-38.5 27.5t-47 10t-47 -10t-38 -27.5t-25.5 -40.5t-9.5 -50zM276 865q0 29 20 49t49 20t48.5 -20t19.5 -49q0 -28 -19.5 -48.5t-48.5 -20.5t-49 20.5t-20 48.5z" />
    <glyph glyph-name="csqii" unicode="&#x157f;&#x307;" horiz-adv-x="876" 
d="M275 676v-75h-82q-26 0 -45.5 -11t-19.5 -27t19.5 -27t45.5 -11h82v-200h-81v124h-1q-30 0 -56 9t-46 24.5t-31.5 36.5t-11.5 44q0 24 11.5 44.5t31.5 35.5t46 24t56 9h82zM382 471q0 45 17 84t46 68t68 46t83 17t83 -17t68 -46t46 -68t17 -84q0 -44 -17 -82.5t-46 -67.5
t-68 -46t-83 -17q-22 0 -43 4t-41 12q-10 5 -19 10t-17 10v-294h-94v471zM476 471q0 -26 9.5 -49.5t25.5 -40.5t38 -27t47 -10t47 10t38 27t25.5 40.5t9.5 49.5q0 27 -9.5 50.5t-25.5 41t-38 27.5t-47 10t-47 -10t-38 -27.5t-25.5 -41t-9.5 -50.5zM541 865q0 29 19.5 49
t48.5 20t48.5 -20t19.5 -49q0 -28 -19.5 -48.5t-48.5 -20.5t-48.5 20.5t-19.5 48.5z" />
    <glyph glyph-name="csqoo" unicode="&#x1581;&#x307;" horiz-adv-x="876" 
d="M275 676v-75h-82q-26 0 -45.5 -11t-19.5 -27t19.5 -27t45.5 -11h82v-200h-81v124h-1q-30 0 -56 9t-46 24.5t-31.5 36.5t-11.5 44q0 24 11.5 44.5t31.5 35.5t46 24t56 9h82zM810 204q0 -44 -17 -83t-46 -68t-67.5 -46t-82.5 -17q-45 0 -84 17t-68 46t-46 68t-17 83t17 83
t46 68t68 46t84 17q32 0 63 -9.5t56 -26.5v294h94v-472zM716 204q0 27 -9.5 50t-25.5 40.5t-37.5 27.5t-46.5 10q-26 0 -48 -10t-38 -27.5t-25.5 -40.5t-9.5 -50q0 -26 9.5 -49.5t25.5 -40.5t38 -27t48 -10q25 0 46.5 10t37.5 27t25.5 40.5t9.5 49.5zM713 865q0 29 20 49
t49 20q28 0 48.5 -20t20.5 -49q0 -28 -20.5 -48.5t-48.5 -20.5q-29 0 -49 20.5t-20 48.5z" />
    <glyph glyph-name="csqaa" unicode="&#x1583;&#x307;" horiz-adv-x="876" 
d="M275 676v-75h-82q-26 0 -45.5 -11t-19.5 -27t19.5 -27t45.5 -11h82v-200h-81v124h-1q-30 0 -56 9t-46 24.5t-31.5 36.5t-11.5 44q0 24 11.5 44.5t31.5 35.5t46 24t56 9h82zM382 676h94v-294q25 17 56 26.5t64 9.5q44 0 83 -17t68 -46t46 -68t17 -83t-17 -83t-46 -68
t-68 -46t-83 -17t-83 17t-68 46t-46 68t-17 83v472zM476 204q0 -26 9.5 -49.5t25.5 -40.5t38 -27t47 -10t47 10t38 27t25.5 40.5t9.5 49.5q0 27 -9.5 50t-25.5 40.5t-38 27.5t-47 10t-47 -10t-38 -27.5t-25.5 -40.5t-9.5 -50zM367 865q0 29 20.5 49t48.5 20q29 0 49 -20
t20 -49q0 -28 -20 -48.5t-49 -20.5q-28 0 -48.5 20.5t-20.5 48.5z" />
    <glyph glyph-name="csngii" unicode="&#x158f;&#x307;" horiz-adv-x="1098" 
d="M262 393v15t1 12l-16 10q-16 -20 -36.5 -32t-45.5 -12q-24 0 -44.5 11.5t-36 31.5t-24.5 46t-9 56t9 56.5t24.5 46t36 31t44.5 11.5q23 0 43.5 -11.5t36 -31t24.5 -46t9 -56.5q0 -7 -0.5 -14t-1.5 -13l6 -3q6 -4 10 -7q16 20 37 32t45 12t44.5 -11.5t36.5 -31t25 -46
t9 -56.5t-9 -56t-25 -45.5t-36.5 -31t-44.5 -11.5q-23 0 -43.5 11.5t-35.5 31t-24 45.5t-9 56zM342 393q0 -29 9.5 -49t22.5 -20q14 0 24 20t10 49t-10 49.5t-24 20.5q-13 0 -22.5 -20.5t-9.5 -49.5zM132 531q0 -29 9.5 -48.5t23.5 -19.5q13 0 22.5 19.5t9.5 48.5t-9.5 49.5
t-22.5 20.5q-14 0 -23.5 -20.5t-9.5 -49.5zM605 471q0 45 17 84t46 68t68 46t83 17t83 -17t68 -46t46 -68t17 -84v-60h-94v60q0 27 -9.5 50.5t-25.5 41t-38 27.5t-47 10q-23 0 -43.5 -10.5t-37 -27.5t-27 -39.5t-12.5 -46.5v-476h-94v471zM763 865q0 29 19.5 49t48.5 20
t48.5 -20t19.5 -49q0 -28 -19.5 -48.5t-48.5 -20.5t-48.5 20.5t-19.5 48.5z" />
    <glyph glyph-name="csngoo" unicode="&#x1591;&#x307;" horiz-adv-x="1098" 
d="M262 393v15t1 12l-16 10q-16 -20 -36.5 -32t-45.5 -12q-24 0 -44.5 11.5t-36 31.5t-24.5 46t-9 56t9 56.5t24.5 46t36 31t44.5 11.5q23 0 43.5 -11.5t36 -31t24.5 -46t9 -56.5q0 -7 -0.5 -14t-1.5 -13l6 -3q6 -4 10 -7q16 20 37 32t45 12t44.5 -11.5t36.5 -31t25 -46
t9 -56.5t-9 -56t-25 -45.5t-36.5 -31t-44.5 -11.5q-23 0 -43.5 11.5t-35.5 31t-24 45.5t-9 56zM342 393q0 -29 9.5 -49t22.5 -20q14 0 24 20t10 49t-10 49.5t-24 20.5q-13 0 -22.5 -20.5t-9.5 -49.5zM132 531q0 -29 9.5 -48.5t23.5 -19.5q13 0 22.5 19.5t9.5 48.5t-9.5 49.5
t-22.5 20.5q-14 0 -23.5 -20.5t-9.5 -49.5zM1033 204q0 -44 -17 -83t-46 -68t-67.5 -46t-82.5 -17q-45 0 -84 17t-68 46t-46 68t-17 83v62h94v-62q0 -26 9.5 -49.5t25.5 -40.5t38 -27t48 -10q25 0 46.5 10t37.5 27t25.5 40.5t9.5 49.5v472h94v-472zM935 865q0 29 20 49
t49 20q28 0 48.5 -20t20.5 -49q0 -28 -20.5 -48.5t-48.5 -20.5q-29 0 -49 20.5t-20 48.5z" />
    <glyph glyph-name="csngaa" unicode="&#x1593;&#x307;" horiz-adv-x="1098" 
d="M262 393v15t1 12l-16 10q-16 -20 -36.5 -32t-45.5 -12q-24 0 -44.5 11.5t-36 31.5t-24.5 46t-9 56t9 56.5t24.5 46t36 31t44.5 11.5q23 0 43.5 -11.5t36 -31t24.5 -46t9 -56.5q0 -7 -0.5 -14t-1.5 -13l6 -3q6 -4 10 -7q16 20 37 32t45 12t44.5 -11.5t36.5 -31t25 -46
t9 -56.5t-9 -56t-25 -45.5t-36.5 -31t-44.5 -11.5q-23 0 -43.5 11.5t-35.5 31t-24 45.5t-9 56zM342 393q0 -29 9.5 -49t22.5 -20q14 0 24 20t10 49t-10 49.5t-24 20.5q-13 0 -22.5 -20.5t-9.5 -49.5zM132 531q0 -29 9.5 -48.5t23.5 -19.5q13 0 22.5 19.5t9.5 48.5t-9.5 49.5
t-22.5 20.5q-14 0 -23.5 -20.5t-9.5 -49.5zM605 676h94v-472q0 -26 9.5 -49.5t25.5 -40.5t38 -27t47 -10t47 10t38 27t25.5 40.5t9.5 49.5v62h94v-62q0 -44 -17 -83t-46 -68t-68 -46t-83 -17t-83 17t-68 46t-46 68t-17 83v472zM589 865q0 29 20.5 49t48.5 20q29 0 49 -20
t20 -49q0 -28 -20 -48.5t-49 -20.5q-28 0 -48.5 20.5t-20.5 48.5z" />
    <glyph glyph-name="cslhii" unicode="&#x15a0;&#x307;" 
d="M607 371h-361q-21 0 -39.5 -12t-32 -32t-21 -46.5t-7.5 -56.5t7.5 -56.5t21 -46.5t32 -32t39.5 -12h28v-86h-28q-40 0 -75 18.5t-61.5 50.5t-41.5 74.5t-15 89.5q0 48 15 90.5t41.5 74.5t61.5 50.5t75 18.5h225l-99 100l64 63l171 -171v-79zM275 865q0 29 21 49t49 20
t48 -20t20 -49q0 -28 -20 -48.5t-48 -20.5t-49 20.5t-21 48.5z" />
    <glyph glyph-name="cslhoo" unicode="&#x15a2;&#x307;" 
d="M53 86h361q20 0 38 12t31.5 32t21.5 47t8 56q0 30 -8 57t-21.5 47t-31.5 32t-38 12h-29v86h29q39 0 74.5 -18.5t61.5 -50.5t41.5 -74.5t15.5 -90.5q0 -47 -15.5 -89t-41.5 -74t-61.5 -51t-74.5 -19h-227l100 -100l-64 -64l-170 172v78zM362 644q0 28 20 48t49 20t49 -20
t20 -48t-20 -49t-49 -21t-49 21t-20 49z" />
    <glyph glyph-name="cslhaa" unicode="&#x15a4;&#x307;" 
d="M607 8l-171 -172l-64 64l99 100h-225q-40 0 -75 19t-61.5 51t-41.5 74t-15 89q0 48 15 90.5t41.5 74.5t61.5 50.5t75 18.5h28v-86h-28q-21 0 -39.5 -12t-32 -32t-21 -47t-7.5 -57q0 -29 7.5 -56t21 -47t32 -32t39.5 -12h361v-78zM189 644q0 28 20.5 48t49.5 20
q28 0 48 -20t20 -48t-20 -49t-48 -21q-29 0 -49.5 21t-20.5 49z" />
    <glyph glyph-name="cstcrthii" unicode="&#x15a8;&#x307;" horiz-adv-x="793" 
d="M717 249h-460v-69h110v-86h-110v-94h-93v94h-109v86h109v155h385l-202 142l-95 66.5l-93 66.5l51 72l507 -362v-71zM391 865q0 29 21 49t49 20t48 -20t20 -49q0 -28 -20 -48.5t-48 -20.5t-49 20.5t-21 48.5z" />
    <glyph glyph-name="cstcrthoo" unicode="&#x15aa;&#x307;" horiz-adv-x="793" 
d="M609 676v-93h108v-87h-108v-155h-387l75.5 -53l75.5 -53l239 -168l-50 -73l-507 362v71h459v69h-108v87h108v93h95zM514 865q0 29 20.5 49t48.5 20q29 0 49 -20t20 -49q0 -28 -20 -48.5t-49 -20.5q-28 0 -48.5 20.5t-20.5 48.5z" />
    <glyph glyph-name="cstcrthaa" unicode="&#x15ac;&#x307;" horiz-adv-x="793" 
d="M154 865q0 29 20 49t49 20t48.5 -20t19.5 -49q0 -28 -19.5 -48.5t-48.5 -20.5t-49 20.5t-20 48.5zM257 676v-94h110v-87h-110v-68h460v-71l-507 -362l-51 73l391 274h-386v154h-109v87h109v94h93z" />
    <glyph glyph-name="csnngii" unicode="&#x1671;&#x307;" horiz-adv-x="1368" 
d="M55 531q0 30 9 56.5t24 46t35.5 31t44.5 11.5q23 0 43.5 -11.5t36 -31t24.5 -46t9 -56.5q0 -37 -13 -68h57q-6 14 -10 32.5t-4 35.5q0 30 9 56.5t24.5 46t36.5 31t44 11.5q24 0 44.5 -11.5t35.5 -31t24 -46t9 -56.5v-14.5t-2 -12.5l4 -1l6 -4t7 -5q15 20 36 32t46 12
q24 0 44.5 -11.5t36 -31t24.5 -46t9 -56.5t-9 -56t-24.5 -45.5t-36 -31t-44.5 -11.5t-44.5 11.5t-36 31t-24.5 45.5t-9 56q0 8 0.5 15t1.5 12l-15 10q-16 -20 -37.5 -32t-45.5 -12h-257q-24 0 -44.5 11.5t-35.5 31.5t-24 46t-9 56zM603 393q0 -29 9 -49t23 -20t23 20t9 49
t-9 49.5t-23 20.5t-23 -20.5t-9 -49.5zM135 531q0 -29 9.5 -48.5t23.5 -19.5t23.5 19.5t9.5 48.5t-9.5 49.5t-23.5 20.5t-23.5 -20.5t-9.5 -49.5zM392 531q0 -29 9.5 -48.5t23.5 -19.5t23.5 19.5t9.5 48.5t-9.5 49.5t-23.5 20.5t-23.5 -20.5t-9.5 -49.5zM875 471q0 45 17 84
t46 68t68 46t83 17t83 -17t68 -46t46 -68t17 -84v-60h-94v60q0 27 -9.5 50.5t-25.5 41t-38 27.5t-47 10q-23 0 -43.5 -10.5t-37 -27.5t-27 -39.5t-12.5 -46.5v-476h-94v471zM1033 865q0 29 19.5 49t48.5 20t48.5 -20t19.5 -49q0 -28 -19.5 -48.5t-48.5 -20.5t-48.5 20.5
t-19.5 48.5z" />
    <glyph glyph-name="csnngoo" unicode="&#x1673;&#x307;" horiz-adv-x="1368" 
d="M55 531q0 30 9 56.5t24 46t35.5 31t44.5 11.5q23 0 43.5 -11.5t36 -31t24.5 -46t9 -56.5q0 -37 -13 -68h57q-6 14 -10 32.5t-4 35.5q0 30 9 56.5t24.5 46t36.5 31t44 11.5q24 0 44.5 -11.5t35.5 -31t24 -46t9 -56.5v-14.5t-2 -12.5l4 -1l6 -4t7 -5q15 20 36 32t46 12
q24 0 44.5 -11.5t36 -31t24.5 -46t9 -56.5t-9 -56t-24.5 -45.5t-36 -31t-44.5 -11.5t-44.5 11.5t-36 31t-24.5 45.5t-9 56q0 8 0.5 15t1.5 12l-15 10q-16 -20 -37.5 -32t-45.5 -12h-257q-24 0 -44.5 11.5t-35.5 31.5t-24 46t-9 56zM603 393q0 -29 9 -49t23 -20t23 20t9 49
t-9 49.5t-23 20.5t-23 -20.5t-9 -49.5zM135 531q0 -29 9.5 -48.5t23.5 -19.5t23.5 19.5t9.5 48.5t-9.5 49.5t-23.5 20.5t-23.5 -20.5t-9.5 -49.5zM392 531q0 -29 9.5 -48.5t23.5 -19.5t23.5 19.5t9.5 48.5t-9.5 49.5t-23.5 20.5t-23.5 -20.5t-9.5 -49.5zM1303 204
q0 -44 -17 -83t-46 -68t-67.5 -46t-82.5 -17q-45 0 -84 17t-68 46t-46 68t-17 83v62h94v-62q0 -26 9.5 -49.5t25.5 -40.5t38 -27t48 -10q25 0 46.5 10t37.5 27t25.5 40.5t9.5 49.5v472h94v-472zM1205 865q0 29 20 49t49 20q28 0 48.5 -20t20.5 -49q0 -28 -20.5 -48.5
t-48.5 -20.5q-29 0 -49 20.5t-20 48.5z" />
    <glyph glyph-name="csnngaa" unicode="&#x1675;&#x307;" horiz-adv-x="1368" 
d="M55 531q0 30 9 56.5t24 46t35.5 31t44.5 11.5q23 0 43.5 -11.5t36 -31t24.5 -46t9 -56.5q0 -37 -13 -68h57q-6 14 -10 32.5t-4 35.5q0 30 9 56.5t24.5 46t36.5 31t44 11.5q24 0 44.5 -11.5t35.5 -31t24 -46t9 -56.5v-14.5t-2 -12.5l4 -1l6 -4t7 -5q15 20 36 32t46 12
q24 0 44.5 -11.5t36 -31t24.5 -46t9 -56.5t-9 -56t-24.5 -45.5t-36 -31t-44.5 -11.5t-44.5 11.5t-36 31t-24.5 45.5t-9 56q0 8 0.5 15t1.5 12l-15 10q-16 -20 -37.5 -32t-45.5 -12h-257q-24 0 -44.5 11.5t-35.5 31.5t-24 46t-9 56zM603 393q0 -29 9 -49t23 -20t23 20t9 49
t-9 49.5t-23 20.5t-23 -20.5t-9 -49.5zM135 531q0 -29 9.5 -48.5t23.5 -19.5t23.5 19.5t9.5 48.5t-9.5 49.5t-23.5 20.5t-23.5 -20.5t-9.5 -49.5zM392 531q0 -29 9.5 -48.5t23.5 -19.5t23.5 19.5t9.5 48.5t-9.5 49.5t-23.5 20.5t-23.5 -20.5t-9.5 -49.5zM875 676h94v-472
q0 -26 9.5 -49.5t25.5 -40.5t38 -27t47 -10t47 10t38 27t25.5 40.5t9.5 49.5v62h94v-62q0 -44 -17 -83t-46 -68t-68 -46t-83 -17t-83 17t-68 46t-46 68t-17 83v472zM859 865q0 29 20.5 49t48.5 20q29 0 49 -20t20 -49q0 -28 -20 -48.5t-49 -20.5q-28 0 -48.5 20.5
t-20.5 48.5z" />
    <glyph glyph-name="pbar" unicode="p&#x335;" horiz-adv-x="576" 
d="M20 302h43v191h94v-46q35 29 72.5 40t76.5 11q44 0 79 -15.5t61 -41t43 -58.5t25 -68v-7l1 -2l1 -4h45v-86h-44q-1 -3 -1.5 -6.5t-1.5 -5.5q-5 -36 -19 -73t-40.5 -67t-66.5 -49.5t-96 -19.5q-39 0 -72.5 15t-62.5 38v-274h-94v442h-43v86zM155 216q2 -10 3.5 -19.5
t3.5 -18.5q14 -42 47 -69.5t85 -27.5q28 0 49.5 9t37 24.5t24.5 36t13 42.5l2 9q1 5 1 6t1 8h-267zM422 302l-4 19q-8 40 -38.5 65t-85.5 25q-59 0 -91 -27t-42 -71l-1.5 -4.5t-1.5 -6.5h264z" />
    <glyph glyph-name="Ariu" unicode="A&#x325;" horiz-adv-x="624" 
d="M210 283h191l-48 125.5l-47 126.5zM269 686h73l260 -686h-94l-76 195h-252l-76 -195h-94zM258 -159q0 -19 15 -33.5t36 -14.5q20 0 34.5 14.5t14.5 33.5q0 20 -14.5 35.5t-34.5 15.5q-21 0 -36 -15.5t-15 -35.5zM211 -157q0 19 7.5 37t21 31t31.5 21t38 8q18 0 35.5 -8
t31 -21t21.5 -31t8 -37q0 -20 -8 -37.5t-21.5 -31t-31 -21t-35.5 -7.5q-20 0 -38 7.5t-31.5 21t-21 31t-7.5 37.5z" />
    <glyph glyph-name="ariu" unicode="a&#x325;" horiz-adv-x="504" 
d="M150 143q0 -23 11.5 -42.5t41.5 -19.5q42 0 70 12t44.5 33t24 48t8.5 57q-28 -2 -63 -8.5t-65.5 -17.5t-51 -26.5t-20.5 -35.5zM56 139q0 32 14.5 57.5t38.5 44.5t54.5 32.5t63.5 22.5t65 15t58 10v28q0 23 -29.5 41.5t-83.5 18.5q-17 0 -36 -6.5t-36.5 -14.5t-31 -16
l-18.5 -11l-30 71q9 12 25.5 23.5t38 20.5t47.5 14t53 5q24 -1 57 -9t63 -23.5t51 -39t21 -55.5v-368h-85l-7 51q-32 -26 -75 -41t-87 -15q-32 0 -56 12t-41 32.5t-25.5 46.5t-8.5 53zM202 -159q0 -19 15 -33.5t36 -14.5q20 0 34.5 14.5t14.5 33.5q0 20 -14.5 35.5
t-34.5 15.5q-21 0 -36 -15.5t-15 -35.5zM155 -157q0 19 7.5 37t21 31t31.5 21t38 8q18 0 35.5 -8t31 -21t21.5 -31t8 -37q0 -20 -8 -37.5t-21.5 -31t-31 -21t-35.5 -7.5q-20 0 -38 7.5t-31.5 21t-21 31t-7.5 37.5z" />
    <glyph glyph-name="Bdot" unicode="B&#x307;" horiz-adv-x="539" 
d="M157 599v-204h33q30 0 59 7.5t52 22.5t37.5 38.5t14.5 55.5q0 30 -19.5 55t-59.5 25h-117zM157 308v-221h128q21 0 40.5 9.5t35.5 24.5t25.5 34t9.5 38q0 36 -20.5 58.5t-50.5 35t-63.5 17t-59.5 4.5h-45zM223 686q40 0 80.5 -4t73 -20t52.5 -46.5t20 -83.5
q0 -36 -8.5 -63t-22 -47t-30 -33.5t-32.5 -22.5q70 -27 102.5 -69t32.5 -102q0 -37 -15.5 -72t-42.5 -62.5t-62.5 -44t-75.5 -16.5h-234v686h162zM198 827q0 22 15 38t38 16q24 0 39 -16t15 -38q0 -23 -15 -39.5t-39 -16.5q-23 0 -38 16.5t-15 39.5z" />
    <glyph glyph-name="bdot" unicode="b&#x307;" horiz-adv-x="585" 
d="M63 0v696h94v-257q20 18 41.5 28.5t42.5 16.5t40 7.5t34 1.5q42 0 81 -15.5t68.5 -46.5t47.5 -78t18 -109q0 -114 -57.5 -181.5t-170.5 -67.5q-36 0 -75 9t-70 34v-38h-94zM296 81q38 0 65 13.5t43.5 36t24 52t7.5 61.5t-7.5 61.5t-24 52t-43 36t-65.5 13.5
q-24 0 -49.5 -9t-46 -28.5t-33.5 -49.5t-13 -71q0 -37 7.5 -68t24.5 -53t44 -34.5t66 -12.5zM265 656q0 22 15 38t38 16q24 0 39 -16t15 -38q0 -23 -15 -39.5t-39 -16.5q-23 0 -38 16.5t-15 39.5z" />
    <glyph glyph-name="Bdou" unicode="B&#x323;" horiz-adv-x="539" 
d="M157 599v-204h33q30 0 59 7.5t52 22.5t37.5 38.5t14.5 55.5q0 30 -19.5 55t-59.5 25h-117zM157 308v-221h128q21 0 40.5 9.5t35.5 24.5t25.5 34t9.5 38q0 36 -20.5 58.5t-50.5 35t-63.5 17t-59.5 4.5h-45zM223 686q40 0 80.5 -4t73 -20t52.5 -46.5t20 -83.5
q0 -36 -8.5 -63t-22 -47t-30 -33.5t-32.5 -22.5q70 -27 102.5 -69t32.5 -102q0 -37 -15.5 -72t-42.5 -62.5t-62.5 -44t-75.5 -16.5h-234v686h162zM186 -137q0 23 16 39.5t38 16.5q25 0 39.5 -16.5t14.5 -39.5t-14.5 -39t-39.5 -16q-22 0 -38 16t-16 39z" />
    <glyph glyph-name="bdou" unicode="b&#x323;" horiz-adv-x="585" 
d="M63 0v696h94v-257q20 18 41.5 28.5t42.5 16.5t40 7.5t34 1.5q42 0 81 -15.5t68.5 -46.5t47.5 -78t18 -109q0 -114 -57.5 -181.5t-170.5 -67.5q-36 0 -75 9t-70 34v-38h-94zM296 81q38 0 65 13.5t43.5 36t24 52t7.5 61.5t-7.5 61.5t-24 52t-43 36t-65.5 13.5
q-24 0 -49.5 -9t-46 -28.5t-33.5 -49.5t-13 -71q0 -37 7.5 -68t24.5 -53t44 -34.5t66 -12.5zM254 -137q0 23 16 39.5t38 16.5q25 0 39.5 -16.5t14.5 -39.5t-14.5 -39t-39.5 -16q-22 0 -38 16t-16 39z" />
    <glyph glyph-name="Bmau" unicode="B&#x331;" horiz-adv-x="539" 
d="M157 599v-204h33q30 0 59 7.5t52 22.5t37.5 38.5t14.5 55.5q0 30 -19.5 55t-59.5 25h-117zM157 308v-221h128q21 0 40.5 9.5t35.5 24.5t25.5 34t9.5 38q0 36 -20.5 58.5t-50.5 35t-63.5 17t-59.5 4.5h-45zM223 686q40 0 80.5 -4t73 -20t52.5 -46.5t20 -83.5
q0 -36 -8.5 -63t-22 -47t-30 -33.5t-32.5 -22.5q70 -27 102.5 -69t32.5 -102q0 -37 -15.5 -72t-42.5 -62.5t-62.5 -44t-75.5 -16.5h-234v686h162zM83 -103h310v-77h-310v77z" />
    <glyph glyph-name="bmau" unicode="b&#x331;" horiz-adv-x="585" 
d="M63 0v696h94v-257q20 18 41.5 28.5t42.5 16.5t40 7.5t34 1.5q42 0 81 -15.5t68.5 -46.5t47.5 -78t18 -109q0 -114 -57.5 -181.5t-170.5 -67.5q-36 0 -75 9t-70 34v-38h-94zM296 81q38 0 65 13.5t43.5 36t24 52t7.5 61.5t-7.5 61.5t-24 52t-43 36t-65.5 13.5
q-24 0 -49.5 -9t-46 -28.5t-33.5 -49.5t-13 -71q0 -37 7.5 -68t24.5 -53t44 -34.5t66 -12.5zM151 -103h310v-77h-310v77z" />
    <glyph glyph-name="Cacuced" unicode="C&#x301;&#x327;" horiz-adv-x="675" 
d="M39 349q0 59 17 107.5t46 86.5t66.5 66t79.5 46t84.5 27t81.5 9q37 0 71 -6.5t62.5 -16t49 -19.5t29.5 -17l-29 -72q-30 13 -54.5 21.5t-45.5 13.5t-41 7t-42 2q-52 0 -102.5 -16.5t-90 -49t-63.5 -80t-24 -108.5q0 -65 23 -115t61.5 -84t87 -51t99.5 -17q32 0 60 5
t52 12.5t43.5 16l34.5 15.5l26 -75q-14 -9 -34 -20t-46.5 -20.5t-60 -15.5t-72.5 -6q-66 0 -131.5 20.5t-118.5 64t-86 110t-33 159.5zM543 878q0 -10 -24 -30.5t-56 -41.5t-64 -36.5t-47 -16.5q-11 0 -17.5 3.5t-6.5 14.5q0 5 4 12v-1q1 2 11 12.5t26 25l35.5 31t38.5 30
t35.5 22.5t26.5 9q19 0 28.5 -7t9.5 -27zM426 20l-40 -74q42 -11 66.5 -26t24.5 -55q0 -29 -14.5 -46t-37 -26t-48.5 -11.5t-49 -2.5q-14 0 -31 1t-18 1h-2l6 52q15 -2 26 -3t19 0q12 0 23.5 1t21.5 4t16 9t6 16q0 11 -8 17.5t-20 10.5t-26.5 6t-26.5 4l35 122h77z" />
    <glyph glyph-name="cacuced" unicode="c&#x301;&#x327;" horiz-adv-x="481" 
d="M39 245q0 57 17 103.5t49 80.5t79 52.5t106 18.5q8 0 22.5 -1.5t32 -5.5t34.5 -9.5t30 -12.5l-33 -78q-31 12 -50 16.5t-29 4.5q-81 0 -123 -39.5t-42 -120.5q-1 -39 8.5 -71t29 -55t49.5 -35.5t69 -11.5q13 -1 28 2t31 8t32 11l31 12l21 -74q-11 -12 -30.5 -21
t-41.5 -14t-41.5 -7.5t-30.5 -2.5q-60 0 -106 18t-77.5 50.5t-48 78.5t-16.5 103zM420 707q0 -10 -24 -30.5t-56 -41.5t-64 -36.5t-47 -16.5q-11 0 -17.5 3.5t-6.5 14.5q0 5 4 12v-1q1 2 11 12.5t26 25l35.5 31t38.5 30t35.5 22.5t26.5 9q19 0 28.5 -7t9.5 -27zM323 20
l-40 -74q42 -11 66.5 -26t24.5 -55q0 -29 -14.5 -46t-37 -26t-48.5 -11.5t-49 -2.5q-14 0 -31 1t-18 1h-2l6 52q15 -2 26 -3t19 0q12 0 23.5 1t21.5 4t16 9t6 16q0 11 -8 17.5t-20 10.5t-26.5 6t-26.5 4l35 122h77z" />
    <glyph glyph-name="Ddot" unicode="D&#x307;" horiz-adv-x="709" 
d="M159 599v-512h69q68 0 128.5 10t106 37.5t72 77.5t26.5 131q0 87 -24 138t-68 77t-105.5 33.5t-135.5 7.5h-69zM63 686h165q102 0 181.5 -17t134 -57t83 -106t28.5 -163q0 -101 -34.5 -167.5t-93 -105.5t-135.5 -54.5t-163 -15.5h-166v686zM265 827q0 22 15 38t38 16
q24 0 39 -16t15 -38q0 -23 -15 -39.5t-39 -16.5q-23 0 -38 16.5t-15 39.5z" />
    <glyph glyph-name="ddot" unicode="d&#x307;" horiz-adv-x="585" 
d="M425 0l-8 41q-32 -26 -72.5 -36t-76.5 -10q-113 0 -170.5 67.5t-57.5 181.5q0 67 20 114t51.5 77t69.5 44t74 14q15 0 34 -1.5t40 -6.5t42.5 -16t41.5 -30v257h94v-696h-82zM133 244q0 -32 7.5 -61.5t24.5 -52t43.5 -36t64.5 -13.5q43 0 71.5 14t45.5 37t23.5 53.5
t6.5 63.5q0 29 -10 57.5t-29 51t-46.5 36t-61.5 13.5q-39 0 -65.5 -13.5t-43 -36t-24 -52t-7.5 -61.5zM207 656q0 22 15 38t38 16q24 0 39 -16t15 -38q0 -23 -15 -39.5t-39 -16.5q-23 0 -38 16.5t-15 39.5z" />
    <glyph glyph-name="Ddou" unicode="D&#x323;" horiz-adv-x="709" 
d="M159 599v-512h69q68 0 128.5 10t106 37.5t72 77.5t26.5 131q0 87 -24 138t-68 77t-105.5 33.5t-135.5 7.5h-69zM63 686h165q102 0 181.5 -17t134 -57t83 -106t28.5 -163q0 -101 -34.5 -167.5t-93 -105.5t-135.5 -54.5t-163 -15.5h-166v686zM212 -137q0 23 16 39.5
t38 16.5q25 0 39.5 -16.5t14.5 -39.5t-14.5 -39t-39.5 -16q-22 0 -38 16t-16 39z" />
    <glyph glyph-name="ddou" unicode="d&#x323;" horiz-adv-x="585" 
d="M425 0l-8 41q-32 -26 -72.5 -36t-76.5 -10q-113 0 -170.5 67.5t-57.5 181.5q0 67 20 114t51.5 77t69.5 44t74 14q15 0 34 -1.5t40 -6.5t42.5 -16t41.5 -30v257h94v-696h-82zM133 244q0 -32 7.5 -61.5t24.5 -52t43.5 -36t64.5 -13.5q43 0 71.5 14t45.5 37t23.5 53.5
t6.5 63.5q0 29 -10 57.5t-29 51t-46.5 36t-61.5 13.5q-39 0 -65.5 -13.5t-43 -36t-24 -52t-7.5 -61.5zM237 -137q0 23 16 39.5t38 16.5q25 0 39.5 -16.5t14.5 -39.5t-14.5 -39t-39.5 -16q-22 0 -38 16t-16 39z" />
    <glyph glyph-name="Dmau" unicode="D&#x331;" horiz-adv-x="709" 
d="M159 599v-512h69q68 0 128.5 10t106 37.5t72 77.5t26.5 131q0 87 -24 138t-68 77t-105.5 33.5t-135.5 7.5h-69zM63 686h165q102 0 181.5 -17t134 -57t83 -106t28.5 -163q0 -101 -34.5 -167.5t-93 -105.5t-135.5 -54.5t-163 -15.5h-166v686zM109 -103h310v-77h-310v77z
" />
    <glyph glyph-name="dmau" unicode="d&#x331;" horiz-adv-x="585" 
d="M425 0l-8 41q-32 -26 -72.5 -36t-76.5 -10q-113 0 -170.5 67.5t-57.5 181.5q0 67 20 114t51.5 77t69.5 44t74 14q15 0 34 -1.5t40 -6.5t42.5 -16t41.5 -30v257h94v-696h-82zM133 244q0 -32 7.5 -61.5t24.5 -52t43.5 -36t64.5 -13.5q43 0 71.5 14t45.5 37t23.5 53.5
t6.5 63.5q0 29 -10 57.5t-29 51t-46.5 36t-61.5 13.5q-39 0 -65.5 -13.5t-43 -36t-24 -52t-7.5 -61.5zM134 -103h310v-77h-310v77z" />
    <glyph glyph-name="Dced" unicode="D&#x327;" horiz-adv-x="709" 
d="M159 599v-512h69q68 0 128.5 10t106 37.5t72 77.5t26.5 131q0 87 -24 138t-68 77t-105.5 33.5t-135.5 7.5h-69zM63 686h165q102 0 181.5 -17t134 -57t83 -106t28.5 -163q0 -101 -34.5 -167.5t-93 -105.5t-135.5 -54.5t-163 -15.5h-166v686zM314 20l-40 -74
q42 -11 66.5 -26t24.5 -55q0 -29 -14.5 -46t-37 -26t-48.5 -11.5t-49 -2.5q-14 0 -31 1t-18 1h-2l6 52q15 -2 26 -3t19 0q12 0 23.5 1t21.5 4t16 9t6 16q0 11 -8 17.5t-20 10.5t-26.5 6t-26.5 4l35 122h77z" />
    <glyph glyph-name="dced" unicode="d&#x327;" horiz-adv-x="585" 
d="M425 0l-8 41q-32 -26 -72.5 -36t-76.5 -10q-113 0 -170.5 67.5t-57.5 181.5q0 67 20 114t51.5 77t69.5 44t74 14q15 0 34 -1.5t40 -6.5t42.5 -16t41.5 -30v257h94v-696h-82zM133 244q0 -32 7.5 -61.5t24.5 -52t43.5 -36t64.5 -13.5q43 0 71.5 14t45.5 37t23.5 53.5
t6.5 63.5q0 29 -10 57.5t-29 51t-46.5 36t-61.5 13.5q-39 0 -65.5 -13.5t-43 -36t-24 -52t-7.5 -61.5zM340 20l-40 -74q42 -11 66.5 -26t24.5 -55q0 -29 -14.5 -46t-37 -26t-48.5 -11.5t-49 -2.5q-14 0 -31 1t-18 1h-2l6 52q15 -2 26 -3t19 0q12 0 23.5 1t21.5 4t16 9t6 16
q0 11 -8 17.5t-20 10.5t-26.5 6t-26.5 4l35 122h77z" />
    <glyph glyph-name="Dciu" unicode="D&#x32d;" horiz-adv-x="709" 
d="M159 599v-512h69q68 0 128.5 10t106 37.5t72 77.5t26.5 131q0 87 -24 138t-68 77t-105.5 33.5t-135.5 7.5h-69zM63 686h165q102 0 181.5 -17t134 -57t83 -106t28.5 -163q0 -101 -34.5 -167.5t-93 -105.5t-135.5 -54.5t-163 -15.5h-166v686zM231 -55h67l117 -144h-67
l-85 74l-80 -74h-71z" />
    <glyph glyph-name="dciu" unicode="d&#x32d;" horiz-adv-x="585" 
d="M425 0l-8 41q-32 -26 -72.5 -36t-76.5 -10q-113 0 -170.5 67.5t-57.5 181.5q0 67 20 114t51.5 77t69.5 44t74 14q15 0 34 -1.5t40 -6.5t42.5 -16t41.5 -30v257h94v-696h-82zM133 244q0 -32 7.5 -61.5t24.5 -52t43.5 -36t64.5 -13.5q43 0 71.5 14t45.5 37t23.5 53.5
t6.5 63.5q0 29 -10 57.5t-29 51t-46.5 36t-61.5 13.5q-39 0 -65.5 -13.5t-43 -36t-24 -52t-7.5 -61.5zM256 -55h67l117 -144h-67l-85 74l-80 -74h-71z" />
    <glyph glyph-name="Emacgra" unicode="E&#x304;&#x300;" horiz-adv-x="458" 
d="M393 686v-87h-237v-195h231v-88h-231v-229h279v-87h-374v686h332zM76 830h310v-77h-310v77zM98 975q0 20 10 27.5t27 7.5q15 0 42.5 -11.5t55 -26t49.5 -28t27 -17.5q4 -10 4 -12q0 -12 -6.5 -15.5t-18.5 -3.5q-15 1 -46.5 9t-63.5 20t-56 25.5t-24 24.5z" />
    <glyph glyph-name="emacgra" unicode="e&#x304;&#x300;" horiz-adv-x="500" 
d="M355 315q-2 48 -25 72t-77 24q-53 0 -84 -23.5t-35 -72.5h221zM133 227q2 -75 39 -109.5t117 -34.5q50 0 76.5 8t40.5 13l3 2q5 2 10 3t19 3l12 -65l-26 -12.5t-42.5 -16.5t-52 -14.5t-52.5 -6.5q-63 0 -109 22t-86 72q-11 15 -19 34.5t-13 40.5t-8 42t-3 38
q0 52 11.5 98t37.5 80.5t68 54t103 19.5q67 0 105 -29.5t56.5 -72t22.5 -89t4 -80.5h-314zM100 659h310v-77h-310v77zM122 804q0 20 10 27.5t27 7.5q15 0 42.5 -11.5t55 -26t49.5 -28t27 -17.5q4 -10 4 -12q0 -12 -6.5 -15.5t-18.5 -3.5q-15 1 -46.5 9t-63.5 20t-56 25.5
t-24 24.5z" />
    <glyph glyph-name="Emacacu" unicode="E&#x304;&#x301;" horiz-adv-x="458" 
d="M393 686v-87h-237v-195h231v-88h-231v-229h279v-87h-374v686h332zM76 830h310v-77h-310v77zM357 975q0 -11 -24 -24.5t-56 -25.5t-64 -20t-47 -9q-11 0 -17.5 3.5t-6.5 15.5q0 6 4 11q1 3 22.5 16.5t50 28.5t57 27t43.5 12q19 0 28.5 -7.5t9.5 -27.5z" />
    <glyph glyph-name="emacacu" unicode="e&#x304;&#x301;" horiz-adv-x="500" 
d="M355 315q-2 48 -25 72t-77 24q-53 0 -84 -23.5t-35 -72.5h221zM133 227q2 -75 39 -109.5t117 -34.5q50 0 76.5 8t40.5 13l3 2q5 2 10 3t19 3l12 -65l-26 -12.5t-42.5 -16.5t-52 -14.5t-52.5 -6.5q-63 0 -109 22t-86 72q-11 15 -19 34.5t-13 40.5t-8 42t-3 38
q0 52 11.5 98t37.5 80.5t68 54t103 19.5q67 0 105 -29.5t56.5 -72t22.5 -89t4 -80.5h-314zM100 659h310v-77h-310v77zM380 804q0 -11 -24 -24.5t-56 -25.5t-64 -20t-47 -9q-11 0 -17.5 3.5t-6.5 15.5q0 6 4 11q1 3 22.5 16.5t50 28.5t57 27t43.5 12q19 0 28.5 -7.5
t9.5 -27.5z" />
    <glyph glyph-name="Eciu" unicode="E&#x32d;" horiz-adv-x="458" 
d="M393 686v-87h-237v-195h231v-88h-231v-229h279v-87h-374v686h332zM215 -55h67l117 -144h-67l-85 74l-80 -74h-71z" />
    <glyph glyph-name="eciu" unicode="e&#x32d;" horiz-adv-x="500" 
d="M355 315q-2 48 -25 72t-77 24q-53 0 -84 -23.5t-35 -72.5h221zM133 227q2 -75 39 -109.5t117 -34.5q50 0 76.5 8t40.5 13l3 2q5 2 10 3t19 3l12 -65l-26 -12.5t-42.5 -16.5t-52 -14.5t-52.5 -6.5q-63 0 -109 22t-86 72q-11 15 -19 34.5t-13 40.5t-8 42t-3 38
q0 52 11.5 98t37.5 80.5t68 54t103 19.5q67 0 105 -29.5t56.5 -72t22.5 -89t4 -80.5h-314zM227 -55h67l117 -144h-67l-85 74l-80 -74h-71z" />
    <glyph glyph-name="Etiu" unicode="E&#x330;" horiz-adv-x="458" 
d="M393 686v-87h-237v-195h231v-88h-231v-229h279v-87h-374v686h332zM69 -163q18 30 32 47.5t26 26.5t24.5 11.5t28.5 2.5q30 0 49 -11t34 -24l25 -15.5t27 -7.5q7 0 15 6.5t16.5 16t15.5 21l13 21.5l48 -47q-21 -40 -47 -61t-61 -21q-31 0 -53.5 12t-40.5 25
q-11 8 -20.5 14t-20.5 6q-17 0 -30 -18.5t-24 -36.5l-6 -9z" />
    <glyph glyph-name="etiu" unicode="e&#x330;" horiz-adv-x="500" 
d="M355 315q-2 48 -25 72t-77 24q-53 0 -84 -23.5t-35 -72.5h221zM133 227q2 -75 39 -109.5t117 -34.5q50 0 76.5 8t40.5 13l3 2q5 2 10 3t19 3l12 -65l-26 -12.5t-42.5 -16.5t-52 -14.5t-52.5 -6.5q-63 0 -109 22t-86 72q-11 15 -19 34.5t-13 40.5t-8 42t-3 38
q0 52 11.5 98t37.5 80.5t68 54t103 19.5q67 0 105 -29.5t56.5 -72t22.5 -89t4 -80.5h-314zM81 -163q18 30 32 47.5t26 26.5t24.5 11.5t28.5 2.5q30 0 49 -11t34 -24l25 -15.5t27 -7.5q7 0 15 6.5t16.5 16t15.5 21l13 21.5l48 -47q-21 -40 -47 -61t-61 -21q-31 0 -53.5 12
t-40.5 25q-11 8 -20.5 14t-20.5 6q-17 0 -30 -18.5t-24 -36.5l-6 -9z" />
    <glyph glyph-name="Ebreced" unicode="E&#x306;&#x327;" horiz-adv-x="458" 
d="M393 686v-87h-237v-195h231v-88h-231v-229h279v-87h-374v686h332zM147 897q0 -40 24 -58.5t60 -18.5q35 0 59.5 18.5t24.5 58.5h71q0 -39 -14.5 -66.5t-37 -44.5t-50 -24.5t-54.5 -7.5q-30 0 -57.5 7.5t-49 24.5t-34.5 44.5t-13 66.5h71zM299 20l-40 -74q42 -11 66.5 -26
t24.5 -55q0 -29 -14.5 -46t-37 -26t-48.5 -11.5t-49 -2.5q-14 0 -31 1t-18 1h-2l6 52q15 -2 26 -3t19 0q12 0 23.5 1t21.5 4t16 9t6 16q0 11 -8 17.5t-20 10.5t-26.5 6t-26.5 4l35 122h77z" />
    <glyph glyph-name="ebreced" unicode="e&#x306;&#x327;" horiz-adv-x="500" 
d="M355 315q-2 48 -25 72t-77 24q-53 0 -84 -23.5t-35 -72.5h221zM133 227q2 -75 39 -109.5t117 -34.5q50 0 76.5 8t40.5 13l3 2q5 2 10 3t19 3l12 -65l-26 -12.5t-42.5 -16.5t-52 -14.5t-52.5 -6.5q-63 0 -109 22t-86 72q-11 15 -19 34.5t-13 40.5t-8 42t-3 38
q0 52 11.5 98t37.5 80.5t68 54t103 19.5q67 0 105 -29.5t56.5 -72t22.5 -89t4 -80.5h-314zM171 726q0 -40 24 -58.5t60 -18.5q35 0 59.5 18.5t24.5 58.5h71q0 -39 -14.5 -66.5t-37 -44.5t-50 -24.5t-54.5 -7.5q-30 0 -57.5 7.5t-49 24.5t-34.5 44.5t-13 66.5h71zM310 20
l-40 -74q42 -11 66.5 -26t24.5 -55q0 -29 -14.5 -46t-37 -26t-48.5 -11.5t-49 -2.5q-14 0 -31 1t-18 1h-2l6 52q15 -2 26 -3t19 0q12 0 23.5 1t21.5 4t16 9t6 16q0 11 -8 17.5t-20 10.5t-26.5 6t-26.5 4l35 122h77z" />
    <glyph glyph-name="Fdot" unicode="F&#x307;" horiz-adv-x="414" 
d="M392 686v-87h-236v-228h228v-88h-228v-283h-95v686h331zM185 827q0 22 15 38t38 16q24 0 39 -16t15 -38q0 -23 -15 -39.5t-39 -16.5q-23 0 -38 16.5t-15 39.5z" />
    <glyph glyph-name="fdot" unicode="f&#x307;" horiz-adv-x="317" 
d="M83 0v408h-69v85h69v13q0 53 11 89.5t32 59t51 32t69 9.5q22 0 35 -13t13 -31q0 -17 -9.5 -29.5t-31.5 -12.5q-19 0 -33.5 -2.5t-24 -11t-14 -24t-4.5 -41.5v-38h109v-85h-109v-408h-94zM167 827q0 22 15 38t38 16q24 0 39 -16t15 -38q0 -23 -15 -39.5t-39 -16.5
q-23 0 -38 16.5t-15 39.5z" />
    <glyph glyph-name="Gmac" unicode="G&#x304;" horiz-adv-x="675" 
d="M39 349q0 59 17 107.5t46 86.5t66.5 66t79.5 46t84.5 27t81.5 9q37 0 71 -6.5t62.5 -16t49 -19.5t29.5 -17l-29 -72q-30 13 -54.5 21.5t-45.5 13.5t-41 7t-42 2q-52 0 -102.5 -16.5t-90 -49t-63.5 -80t-24 -108.5q0 -65 23 -115t61.5 -84t87 -51t99.5 -17q32 0 59 4.5
t48 11.5l8 3h4v216h94v-263q-13 -9 -33 -19.5t-46 -19.5t-59 -15t-72 -6q-66 0 -131.5 20.5t-118.5 64t-86 110t-33 159.5zM246 864h310v-77h-310v77z" />
    <glyph glyph-name="gmac" unicode="g&#x304;" horiz-adv-x="579" 
d="M501 493v-438q0 -46 -1 -70.5t-4 -34.5q-12 -42 -34.5 -74.5t-54 -55.5t-70 -35t-81.5 -12q-8 0 -30.5 3t-50.5 9t-56.5 14.5t-49.5 19.5l20 75q8 -2 22.5 -6l24.5 -7q29 -8 61 -15.5t57 -6.5q5 0 9.5 -0.5t8.5 -0.5q58 0 97 38t39 112v49q-38 -39 -79 -50t-76 -11
q-57 0 -97 22.5t-66 59t-38 83.5t-12 96q0 46 17 89.5t48 77.5t73.5 54t92.5 20q51 0 82 -10t55 -32v37h93zM133 259q0 -33 6.5 -65t22.5 -57t43.5 -40t68.5 -15q34 0 59.5 14.5t42 39t24.5 57.5t8 71q0 73 -35 110t-99 37q-70 0 -104.5 -38t-36.5 -114zM135 693h310v-77
h-310v77z" />
    <glyph glyph-name="Hdot" unicode="H&#x307;" horiz-adv-x="653" 
d="M62 686h96v-270h325v270h95v-686h-95v328h-325v-328h-96v686zM272 827q0 22 15 38t38 16q24 0 39 -16t15 -38q0 -23 -15 -39.5t-39 -16.5q-23 0 -38 16.5t-15 39.5z" />
    <glyph glyph-name="hdot" unicode="h&#x307;" horiz-adv-x="534" 
d="M62 696h94v-242q19 15 52 27t97 12q39 0 71.5 -12.5t55.5 -35.5t36 -55t13 -72v-318h-94v315q0 9 -2 24.5t-12.5 30.5t-34.5 26t-67 11q-24 0 -44.5 -10t-36.5 -24.5t-25 -30.5t-9 -29v-313h-94v696zM265 656q0 22 15 38t38 16q24 0 39 -16t15 -38q0 -23 -15 -39.5
t-39 -16.5q-23 0 -38 16.5t-15 39.5z" />
    <glyph glyph-name="Hdou" unicode="H&#x323;" horiz-adv-x="653" 
d="M62 686h96v-270h325v270h95v-686h-95v328h-325v-328h-96v686zM271 -137q0 23 16 39.5t38 16.5q25 0 39.5 -16.5t14.5 -39.5t-14.5 -39t-39.5 -16q-22 0 -38 16t-16 39z" />
    <glyph glyph-name="hdou" unicode="h&#x323;" horiz-adv-x="534" 
d="M62 696h94v-242q19 15 52 27t97 12q39 0 71.5 -12.5t55.5 -35.5t36 -55t13 -72v-318h-94v315q0 9 -2 24.5t-12.5 30.5t-34.5 26t-67 11q-24 0 -44.5 -10t-36.5 -24.5t-25 -30.5t-9 -29v-313h-94v696zM222 -137q0 23 16 39.5t38 16.5q25 0 39.5 -16.5t14.5 -39.5
t-14.5 -39t-39.5 -16q-22 0 -38 16t-16 39z" />
    <glyph glyph-name="Hdia" unicode="H&#x308;" horiz-adv-x="653" 
d="M62 686h96v-270h325v270h95v-686h-95v328h-325v-328h-96v686zM183 827q0 21 15 36t35 15q23 0 37 -15t14 -36q0 -22 -14 -37t-37 -15q-21 0 -35.5 15t-14.5 37zM365 827q0 21 14.5 36t35.5 15t36 -15t15 -36q0 -22 -15 -37t-36 -15t-35.5 15t-14.5 37z" />
    <glyph glyph-name="hdia" unicode="h&#x308;" horiz-adv-x="534" 
d="M62 696h94v-242q19 15 52 27t97 12q39 0 71.5 -12.5t55.5 -35.5t36 -55t13 -72v-318h-94v315q0 9 -2 24.5t-12.5 30.5t-34.5 26t-67 11q-24 0 -44.5 -10t-36.5 -24.5t-25 -30.5t-9 -29v-313h-94v696zM148 827q0 21 15 36t35 15q23 0 37 -15t14 -36q0 -22 -14 -37t-37 -15
q-21 0 -35.5 15t-14.5 37zM330 827q0 21 14.5 36t35.5 15t36 -15t15 -36q0 -22 -15 -37t-36 -15t-35.5 15t-14.5 37z" />
    <glyph glyph-name="Hced" unicode="H&#x327;" horiz-adv-x="653" 
d="M62 686h96v-270h325v270h95v-686h-95v328h-325v-328h-96v686zM373 20l-40 -74q42 -11 66.5 -26t24.5 -55q0 -29 -14.5 -46t-37 -26t-48.5 -11.5t-49 -2.5q-14 0 -31 1t-18 1h-2l6 52q15 -2 26 -3t19 0q12 0 23.5 1t21.5 4t16 9t6 16q0 11 -8 17.5t-20 10.5t-26.5 6
t-26.5 4l35 122h77z" />
    <glyph glyph-name="hced" unicode="h&#x327;" horiz-adv-x="534" 
d="M62 696h94v-242q19 15 52 27t97 12q39 0 71.5 -12.5t55.5 -35.5t36 -55t13 -72v-318h-94v315q0 9 -2 24.5t-12.5 30.5t-34.5 26t-67 11q-24 0 -44.5 -10t-36.5 -24.5t-25 -30.5t-9 -29v-313h-94v696zM324 20l-40 -74q42 -11 66.5 -26t24.5 -55q0 -29 -14.5 -46t-37 -26
t-48.5 -11.5t-49 -2.5q-14 0 -31 1t-18 1h-2l6 52q15 -2 26 -3t19 0q12 0 23.5 1t21.5 4t16 9t6 16q0 11 -8 17.5t-20 10.5t-26.5 6t-26.5 4l35 122h77z" />
    <glyph glyph-name="Hbru" unicode="H&#x32e;" horiz-adv-x="653" 
d="M62 686h96v-270h325v270h95v-686h-95v328h-325v-328h-96v686zM238 -98q0 -39 24 -57t60 -18q35 0 59.5 18t24.5 57h71q0 -39 -14.5 -66.5t-37 -44.5t-50 -24.5t-54.5 -7.5q-30 0 -57.5 7.5t-49 24.5t-34.5 44.5t-13 66.5h71z" />
    <glyph glyph-name="hbru" unicode="h&#x32e;" horiz-adv-x="534" 
d="M62 696h94v-242q19 15 52 27t97 12q39 0 71.5 -12.5t55.5 -35.5t36 -55t13 -72v-318h-94v315q0 9 -2 24.5t-12.5 30.5t-34.5 26t-67 11q-24 0 -44.5 -10t-36.5 -24.5t-25 -30.5t-9 -29v-313h-94v696zM189 -98q0 -39 24 -57t60 -18q35 0 59.5 18t24.5 57h71
q0 -39 -14.5 -66.5t-37 -44.5t-50 -24.5t-54.5 -7.5q-30 0 -57.5 7.5t-49 24.5t-34.5 44.5t-13 66.5h71z" />
    <glyph glyph-name="Itiu" unicode="I&#x330;" horiz-adv-x="216" 
d="M59 686h94v-686h-94v686zM-77 -163q18 30 32 47.5t26 26.5t24.5 11.5t28.5 2.5q30 0 49 -11t34 -24l25 -15.5t27 -7.5q7 0 15 6.5t16.5 16t15.5 21l13 21.5l48 -47q-21 -40 -47 -61t-61 -21q-31 0 -53.5 12t-40.5 25q-11 8 -20.5 14t-20.5 6q-17 0 -30 -18.5t-24 -36.5
l-6 -9z" />
    <glyph glyph-name="itiu" unicode="i&#x330;" horiz-adv-x="201" 
d="M44 626q0 22 14.5 37.5t37.5 15.5t39 -15.5t16 -37.5q0 -23 -16 -39.5t-39 -16.5t-37.5 16.5t-14.5 39.5zM144 493v-493h-94v493h94zM-84 -163q18 30 32 47.5t26 26.5t24.5 11.5t28.5 2.5q30 0 49 -11t34 -24l25 -15.5t27 -7.5q7 0 15 6.5t16.5 16t15.5 21l13 21.5
l48 -47q-21 -40 -47 -61t-61 -21q-31 0 -53.5 12t-40.5 25q-11 8 -20.5 14t-20.5 6q-17 0 -30 -18.5t-24 -36.5l-6 -9z" />
    <glyph glyph-name="Idiaacu" unicode="I&#x308;&#x301;" horiz-adv-x="216" 
d="M59 686h94v-686h-94v686zM-39 792q0 21 15 36t35 15q23 0 37 -15t14 -36t-14 -36.5t-37 -15.5q-21 0 -35.5 15.5t-14.5 36.5zM143 792q0 21 14.5 36t35.5 15t36 -15t15 -36t-15 -36.5t-36 -15.5t-35.5 15.5t-14.5 36.5zM227 975q0 -11 -24 -24.5t-56 -25.5t-64 -20
t-47 -9q-11 0 -17.5 3.5t-6.5 15.5q0 6 4 11q1 3 22.5 16.5t50 28.5t57 27t43.5 12q19 0 28.5 -7.5t9.5 -27.5z" />
    <glyph glyph-name="idiaacu" unicode="i&#x308;&#x301;" horiz-adv-x="186" 
d="M45 0v493h94v-493h-94zM-53 621q0 21 15 36t35 15q23 0 37 -15t14 -36t-14 -36.5t-37 -15.5q-21 0 -35.5 15.5t-14.5 36.5zM129 621q0 21 14.5 36t35.5 15t36 -15t15 -36t-15 -36.5t-36 -15.5t-35.5 15.5t-14.5 36.5zM214 804q0 -11 -24 -24.5t-56 -25.5t-64 -20t-47 -9
q-11 0 -17.5 3.5t-6.5 15.5q0 6 4 11q1 3 22.5 16.5t50 28.5t57 27t43.5 12q19 0 28.5 -7.5t9.5 -27.5z" />
    <glyph glyph-name="Kacu" unicode="K&#x301;" horiz-adv-x="555" 
d="M170 314l-13 -13v-301h-95v686h95v-268l280 279l78 -48l-280 -276l303 -336l-90 -41zM422 878q0 -10 -24 -30.5t-56 -41.5t-64 -36.5t-47 -16.5q-11 0 -17.5 3.5t-6.5 14.5q0 5 4 12v-1q1 2 11 12.5t26 25l35.5 31t38.5 30t35.5 22.5t26.5 9q19 0 28.5 -7t9.5 -27z" />
    <glyph glyph-name="kacu" unicode="k&#x301;" horiz-adv-x="482" 
d="M62 0v696h93v-378l175 175h122l-224 -225l230 -268h-114l-178 209l-11 -11v-198h-93zM391 878q0 -10 -24 -30.5t-56 -41.5t-64 -36.5t-47 -16.5q-11 0 -17.5 3.5t-6.5 14.5q0 5 4 12v-1q1 2 11 12.5t26 25l35.5 31t38.5 30t35.5 22.5t26.5 9q19 0 28.5 -7t9.5 -27z" />
    <glyph glyph-name="Kdou" unicode="K&#x323;" horiz-adv-x="555" 
d="M170 314l-13 -13v-301h-95v686h95v-268l280 279l78 -48l-280 -276l303 -336l-90 -41zM222 -137q0 23 16 39.5t38 16.5q25 0 39.5 -16.5t14.5 -39.5t-14.5 -39t-39.5 -16q-22 0 -38 16t-16 39z" />
    <glyph glyph-name="kdou" unicode="k&#x323;" horiz-adv-x="482" 
d="M62 0v696h93v-378l175 175h122l-224 -225l230 -268h-114l-178 209l-11 -11v-198h-93zM189 -137q0 23 16 39.5t38 16.5q25 0 39.5 -16.5t14.5 -39.5t-14.5 -39t-39.5 -16q-22 0 -38 16t-16 39z" />
    <glyph glyph-name="Kmau" unicode="K&#x331;" horiz-adv-x="555" 
d="M170 314l-13 -13v-301h-95v686h95v-268l280 279l78 -48l-280 -276l303 -336l-90 -41zM119 -103h310v-77h-310v77z" />
    <glyph glyph-name="kmau" unicode="k&#x331;" horiz-adv-x="482" 
d="M62 0v696h93v-378l175 175h122l-224 -225l230 -268h-114l-178 209l-11 -11v-198h-93zM86 -103h310v-77h-310v77z" />
    <glyph glyph-name="Ldou" unicode="L&#x323;" horiz-adv-x="458" 
d="M61 686h95v-599h279v-87h-374v686zM197 -137q0 23 16 39.5t38 16.5q25 0 39.5 -16.5t14.5 -39.5t-14.5 -39t-39.5 -16q-22 0 -38 16t-16 39z" />
    <glyph glyph-name="ldou" unicode="l&#x323;" horiz-adv-x="216" 
d="M58 696h94v-696h-94v696zM49 -137q0 23 16 39.5t38 16.5q25 0 39.5 -16.5t14.5 -39.5t-14.5 -39t-39.5 -16q-22 0 -38 16t-16 39z" />
    <glyph glyph-name="Lmacdou" unicode="L&#x304;&#x323;" horiz-adv-x="458" 
d="M61 686h95v-599h279v-87h-374v686zM-50 864h310v-77h-310v77zM197 -137q0 23 16 39.5t38 16.5q25 0 39.5 -16.5t14.5 -39.5t-14.5 -39t-39.5 -16q-22 0 -38 16t-16 39z" />
    <glyph glyph-name="lmacdou" unicode="l&#x304;&#x323;" horiz-adv-x="216" 
d="M58 696h94v-696h-94v696zM-54 864h310v-77h-310v77zM49 -137q0 23 16 39.5t38 16.5q25 0 39.5 -16.5t14.5 -39.5t-14.5 -39t-39.5 -16q-22 0 -38 16t-16 39z" />
    <glyph glyph-name="Lmau" unicode="L&#x331;" horiz-adv-x="458" 
d="M61 686h95v-599h279v-87h-374v686zM94 -103h310v-77h-310v77z" />
    <glyph glyph-name="lmau" unicode="l&#x331;" horiz-adv-x="216" 
d="M58 696h94v-696h-94v696zM-54 -103h310v-77h-310v77z" />
    <glyph glyph-name="Lciu" unicode="L&#x32d;" horiz-adv-x="458" 
d="M61 686h95v-599h279v-87h-374v686zM215 -55h67l117 -144h-67l-85 74l-80 -74h-71z" />
    <glyph glyph-name="lciu" unicode="l&#x32d;" horiz-adv-x="216" 
d="M58 696h94v-696h-94v696zM69 -55h67l117 -144h-67l-85 74l-80 -74h-71z" />
    <glyph glyph-name="Macu" unicode="M&#x301;" horiz-adv-x="873" 
d="M182 686l244 -521l244 521h123v-686h-97v521l-31 -66l-104.5 -221.5l-102.5 -220.5h-63l-234 502v-515h-96v686h117zM569 878q0 -10 -24 -30.5t-56 -41.5t-64 -36.5t-47 -16.5q-11 0 -17.5 3.5t-6.5 14.5q0 5 4 12v-1q1 2 11 12.5t26 25l35.5 31t38.5 30t35.5 22.5
t26.5 9q19 0 28.5 -7t9.5 -27z" />
    <glyph glyph-name="macu" unicode="m&#x301;" horiz-adv-x="877" 
d="M67 493h94v-39q18 15 51.5 27t96.5 12q38 0 71 -12t56 -35q5 -5 9.5 -11t8.5 -12q3 3 5 5.5t4 5.5l6 5q10 10 22 19.5t30.5 17t45.5 12.5t66 5t71.5 -12.5t56 -35.5t36.5 -55t13 -72v-318h-94v315q0 9 -2 24.5t-12.5 30.5t-34 26t-66.5 11q-24 0 -45 -10t-37 -24.5
t-25 -30.5t-9 -29v-313h-94v315q0 9 -2 24.5t-12.5 30.5t-34.5 26t-67 11q-23 0 -44 -10t-36.5 -24.5t-24.5 -30.5t-9 -29v-313h-94v493zM601 707q0 -10 -24 -30.5t-56 -41.5t-64 -36.5t-47 -16.5q-11 0 -17.5 3.5t-6.5 14.5q0 5 4 12v-1q1 2 11 12.5t26 25l35.5 31t38.5 30
t35.5 22.5t26.5 9q19 0 28.5 -7t9.5 -27z" />
    <glyph glyph-name="Mdot" unicode="M&#x307;" horiz-adv-x="873" 
d="M182 686l244 -521l244 521h123v-686h-97v521l-31 -66l-104.5 -221.5l-102.5 -220.5h-63l-234 502v-515h-96v686h117zM379 827q0 22 15 38t38 16q24 0 39 -16t15 -38q0 -23 -15 -39.5t-39 -16.5q-23 0 -38 16.5t-15 39.5z" />
    <glyph glyph-name="mdot" unicode="m&#x307;" horiz-adv-x="877" 
d="M67 493h94v-39q18 15 51.5 27t96.5 12q38 0 71 -12t56 -35q5 -5 9.5 -11t8.5 -12q3 3 5 5.5t4 5.5l6 5q10 10 22 19.5t30.5 17t45.5 12.5t66 5t71.5 -12.5t56 -35.5t36.5 -55t13 -72v-318h-94v315q0 9 -2 24.5t-12.5 30.5t-34 26t-66.5 11q-24 0 -45 -10t-37 -24.5
t-25 -30.5t-9 -29v-313h-94v315q0 9 -2 24.5t-12.5 30.5t-34.5 26t-67 11q-23 0 -44 -10t-36.5 -24.5t-24.5 -30.5t-9 -29v-313h-94v493zM410 656q0 22 15 38t38 16q24 0 39 -16t15 -38q0 -23 -15 -39.5t-39 -16.5q-23 0 -38 16.5t-15 39.5z" />
    <glyph glyph-name="Mdou" unicode="M&#x323;" horiz-adv-x="873" 
d="M182 686l244 -521l244 521h123v-686h-97v521l-31 -66l-104.5 -221.5l-102.5 -220.5h-63l-234 502v-515h-96v686h117zM378 -137q0 23 16 39.5t38 16.5q25 0 39.5 -16.5t14.5 -39.5t-14.5 -39t-39.5 -16q-22 0 -38 16t-16 39z" />
    <glyph glyph-name="mdou" unicode="m&#x323;" horiz-adv-x="877" 
d="M67 493h94v-39q18 15 51.5 27t96.5 12q38 0 71 -12t56 -35q5 -5 9.5 -11t8.5 -12q3 3 5 5.5t4 5.5l6 5q10 10 22 19.5t30.5 17t45.5 12.5t66 5t71.5 -12.5t56 -35.5t36.5 -55t13 -72v-318h-94v315q0 9 -2 24.5t-12.5 30.5t-34 26t-66.5 11q-24 0 -45 -10t-37 -24.5
t-25 -30.5t-9 -29v-313h-94v315q0 9 -2 24.5t-12.5 30.5t-34.5 26t-67 11q-23 0 -44 -10t-36.5 -24.5t-24.5 -30.5t-9 -29v-313h-94v493zM394 -137q0 23 16 39.5t38 16.5q25 0 39.5 -16.5t14.5 -39.5t-14.5 -39t-39.5 -16q-22 0 -38 16t-16 39z" />
    <glyph glyph-name="Ndot" unicode="N&#x307;" horiz-adv-x="752" 
d="M131 686l447 -517v517h96v-686h-69l-445 517v-517h-97v686h68zM312 827q0 22 15 38t38 16q24 0 39 -16t15 -38q0 -23 -15 -39.5t-39 -16.5q-23 0 -38 16.5t-15 39.5z" />
    <glyph glyph-name="ndot" unicode="n&#x307;" horiz-adv-x="534" 
d="M62 493h94v-39q19 15 52 27t97 12q39 0 71.5 -12.5t55.5 -35.5t36 -55t13 -72v-318h-94v315q0 9 -2 24.5t-12.5 30.5t-34.5 26t-67 11q-24 0 -44.5 -10t-36.5 -24.5t-25 -30.5t-9 -29v-313h-94v493zM236 656q0 22 15 38t38 16q24 0 39 -16t15 -38q0 -23 -15 -39.5
t-39 -16.5q-23 0 -38 16.5t-15 39.5z" />
    <glyph glyph-name="Ndou" unicode="N&#x323;" horiz-adv-x="752" 
d="M131 686l447 -517v517h96v-686h-69l-445 517v-517h-97v686h68zM311 -137q0 23 16 39.5t38 16.5q25 0 39.5 -16.5t14.5 -39.5t-14.5 -39t-39.5 -16q-22 0 -38 16t-16 39z" />
    <glyph glyph-name="ndou" unicode="n&#x323;" horiz-adv-x="534" 
d="M62 493h94v-39q19 15 52 27t97 12q39 0 71.5 -12.5t55.5 -35.5t36 -55t13 -72v-318h-94v315q0 9 -2 24.5t-12.5 30.5t-34.5 26t-67 11q-24 0 -44.5 -10t-36.5 -24.5t-25 -30.5t-9 -29v-313h-94v493zM222 -137q0 23 16 39.5t38 16.5q25 0 39.5 -16.5t14.5 -39.5t-14.5 -39
t-39.5 -16q-22 0 -38 16t-16 39z" />
    <glyph glyph-name="Nmau" unicode="N&#x331;" horiz-adv-x="752" 
d="M131 686l447 -517v517h96v-686h-69l-445 517v-517h-97v686h68zM208 -103h310v-77h-310v77z" />
    <glyph glyph-name="nmau" unicode="n&#x331;" horiz-adv-x="534" 
d="M62 493h94v-39q19 15 52 27t97 12q39 0 71.5 -12.5t55.5 -35.5t36 -55t13 -72v-318h-94v315q0 9 -2 24.5t-12.5 30.5t-34.5 26t-67 11q-24 0 -44.5 -10t-36.5 -24.5t-25 -30.5t-9 -29v-313h-94v493zM119 -103h310v-77h-310v77z" />
    <glyph glyph-name="Nciu" unicode="N&#x32d;" horiz-adv-x="752" 
d="M131 686l447 -517v517h96v-686h-69l-445 517v-517h-97v686h68zM330 -55h67l117 -144h-67l-85 74l-80 -74h-71z" />
    <glyph glyph-name="nciu" unicode="n&#x32d;" horiz-adv-x="534" 
d="M62 493h94v-39q19 15 52 27t97 12q39 0 71.5 -12.5t55.5 -35.5t36 -55t13 -72v-318h-94v315q0 9 -2 24.5t-12.5 30.5t-34.5 26t-67 11q-24 0 -44.5 -10t-36.5 -24.5t-25 -30.5t-9 -29v-313h-94v493zM242 -55h67l117 -144h-67l-85 74l-80 -74h-71z" />
    <glyph glyph-name="Otilacu" unicode="O&#x303;&#x301;" horiz-adv-x="770" 
d="M135 352q0 -53 15.5 -101.5t46 -86t75.5 -59.5t103 -22q70 0 117 22t75.5 59.5t40.5 86t12 101.5q0 55 -13.5 101t-43 79.5t-76 52t-112.5 18.5q-60 0 -105 -18.5t-75 -52t-45 -79.5t-15 -101zM375 -5q-70 0 -122.5 17.5t-89.5 46.5t-61 66t-37.5 77t-19 79t-5.5 71
q0 74 24 136t68 107t105.5 70.5t137.5 25.5q88 0 152 -25.5t106 -70.5t62 -107t20 -136q0 -32 -5.5 -71t-20 -79t-39.5 -77t-62.5 -66t-90 -46.5t-122.5 -17.5zM203 767q28 47 53.5 63.5t57.5 16.5q27 0 45 -8.5t34 -19.5q13 -8 26.5 -15t29.5 -7q15 0 31.5 18.5t28.5 40.5
l48 -49q-22 -41 -47.5 -57.5t-60.5 -16.5q-32 0 -55 11t-42 22q1 0 -3 2q-11 5 -19.5 9.5t-15.5 4.5q-17 0 -32 -18t-28 -39zM504 975q0 -11 -24 -24.5t-56 -25.5t-64 -20t-47 -9q-11 0 -17.5 3.5t-6.5 15.5q0 6 4 11q1 3 22.5 16.5t50 28.5t57 27t43.5 12q19 0 28.5 -7.5
t9.5 -27.5z" />
    <glyph glyph-name="otilacu" unicode="o&#x303;&#x301;" horiz-adv-x="563" 
d="M40 246q0 53 18.5 99.5t50 81.5t74 55t90.5 20q49 0 91.5 -20t74.5 -55t50.5 -81.5t18.5 -99.5t-18.5 -99t-50.5 -81t-74.5 -55t-91.5 -20q-48 0 -90.5 20t-74 55t-50 81t-18.5 99zM133 246q0 -35 11 -65.5t30 -53.5t44.5 -36.5t54.5 -13.5t55 13.5t45 36.5t30 53.5
t11 65.5t-11 66t-30 54t-45 36.5t-55 13.5t-54.5 -13.5t-44.5 -36.5t-30 -54t-11 -66zM102 596q28 47 53.5 63.5t57.5 16.5q27 0 45 -8.5t34 -19.5q13 -8 26.5 -15t29.5 -7q15 0 31.5 18.5t28.5 40.5l48 -49q-22 -41 -47.5 -57.5t-60.5 -16.5q-32 0 -55 11t-42 22q1 0 -3 2
q-11 5 -19.5 9.5t-15.5 4.5q-17 0 -32 -18t-28 -39zM403 804q0 -11 -24 -24.5t-56 -25.5t-64 -20t-47 -9q-11 0 -17.5 3.5t-6.5 15.5q0 6 4 11q1 3 22.5 16.5t50 28.5t57 27t43.5 12q19 0 28.5 -7.5t9.5 -27.5z" />
    <glyph glyph-name="Otildia" unicode="O&#x303;&#x308;" horiz-adv-x="770" 
d="M135 352q0 -53 15.5 -101.5t46 -86t75.5 -59.5t103 -22q70 0 117 22t75.5 59.5t40.5 86t12 101.5q0 55 -13.5 101t-43 79.5t-76 52t-112.5 18.5q-60 0 -105 -18.5t-75 -52t-45 -79.5t-15 -101zM375 -5q-70 0 -122.5 17.5t-89.5 46.5t-61 66t-37.5 77t-19 79t-5.5 71
q0 74 24 136t68 107t105.5 70.5t137.5 25.5q88 0 152 -25.5t106 -70.5t62 -107t20 -136q0 -32 -5.5 -71t-20 -79t-39.5 -77t-62.5 -66t-90 -46.5t-122.5 -17.5zM203 767q28 47 53.5 63.5t57.5 16.5q27 0 45 -8.5t34 -19.5q13 -8 26.5 -15t29.5 -7q15 0 31.5 18.5t28.5 40.5
l48 -49q-22 -41 -47.5 -57.5t-60.5 -16.5q-32 0 -55 11t-42 22q1 0 -3 2q-11 5 -19.5 9.5t-15.5 4.5q-17 0 -32 -18t-28 -39zM237 949q0 20 15 35t35 15q23 0 37 -15t14 -35q0 -23 -14 -37.5t-37 -14.5q-21 0 -35.5 14.5t-14.5 37.5zM419 949q0 20 14.5 35t35.5 15t36 -15
t15 -35q0 -23 -15 -37.5t-36 -14.5t-35.5 14.5t-14.5 37.5z" />
    <glyph glyph-name="otildia" unicode="o&#x303;&#x308;" horiz-adv-x="563" 
d="M40 246q0 53 18.5 99.5t50 81.5t74 55t90.5 20q49 0 91.5 -20t74.5 -55t50.5 -81.5t18.5 -99.5t-18.5 -99t-50.5 -81t-74.5 -55t-91.5 -20q-48 0 -90.5 20t-74 55t-50 81t-18.5 99zM133 246q0 -35 11 -65.5t30 -53.5t44.5 -36.5t54.5 -13.5t55 13.5t45 36.5t30 53.5
t11 65.5t-11 66t-30 54t-45 36.5t-55 13.5t-54.5 -13.5t-44.5 -36.5t-30 -54t-11 -66zM102 596q28 47 53.5 63.5t57.5 16.5q27 0 45 -8.5t34 -19.5q13 -8 26.5 -15t29.5 -7q15 0 31.5 18.5t28.5 40.5l48 -49q-22 -41 -47.5 -57.5t-60.5 -16.5q-32 0 -55 11t-42 22q1 0 -3 2
q-11 5 -19.5 9.5t-15.5 4.5q-17 0 -32 -18t-28 -39zM136 778q0 20 15 35t35 15q23 0 37 -15t14 -35q0 -23 -14 -37.5t-37 -14.5q-21 0 -35.5 14.5t-14.5 37.5zM318 778q0 20 14.5 35t35.5 15t36 -15t15 -35q0 -23 -15 -37.5t-36 -14.5t-35.5 14.5t-14.5 37.5z" />
    <glyph glyph-name="Omacgra" unicode="O&#x304;&#x300;" horiz-adv-x="770" 
d="M135 352q0 -53 15.5 -101.5t46 -86t75.5 -59.5t103 -22q70 0 117 22t75.5 59.5t40.5 86t12 101.5q0 55 -13.5 101t-43 79.5t-76 52t-112.5 18.5q-60 0 -105 -18.5t-75 -52t-45 -79.5t-15 -101zM375 -5q-70 0 -122.5 17.5t-89.5 46.5t-61 66t-37.5 77t-19 79t-5.5 71
q0 74 24 136t68 107t105.5 70.5t137.5 25.5q88 0 152 -25.5t106 -70.5t62 -107t20 -136q0 -32 -5.5 -71t-20 -79t-39.5 -77t-62.5 -66t-90 -46.5t-122.5 -17.5zM222 830h310v-77h-310v77zM245 975q0 20 10 27.5t27 7.5q15 0 42.5 -11.5t55 -26t49.5 -28t27 -17.5
q4 -10 4 -12q0 -12 -6.5 -15.5t-18.5 -3.5q-15 1 -46.5 9t-63.5 20t-56 25.5t-24 24.5z" />
    <glyph glyph-name="omacgra" unicode="o&#x304;&#x300;" horiz-adv-x="563" 
d="M40 246q0 53 18.5 99.5t50 81.5t74 55t90.5 20q49 0 91.5 -20t74.5 -55t50.5 -81.5t18.5 -99.5t-18.5 -99t-50.5 -81t-74.5 -55t-91.5 -20q-48 0 -90.5 20t-74 55t-50 81t-18.5 99zM133 246q0 -35 11 -65.5t30 -53.5t44.5 -36.5t54.5 -13.5t55 13.5t45 36.5t30 53.5
t11 65.5t-11 66t-30 54t-45 36.5t-55 13.5t-54.5 -13.5t-44.5 -36.5t-30 -54t-11 -66zM121 659h310v-77h-310v77zM144 804q0 20 10 27.5t27 7.5q15 0 42.5 -11.5t55 -26t49.5 -28t27 -17.5q4 -10 4 -12q0 -12 -6.5 -15.5t-18.5 -3.5q-15 1 -46.5 9t-63.5 20t-56 25.5
t-24 24.5z" />
    <glyph glyph-name="Omacacu" unicode="O&#x304;&#x301;" horiz-adv-x="770" 
d="M135 352q0 -53 15.5 -101.5t46 -86t75.5 -59.5t103 -22q70 0 117 22t75.5 59.5t40.5 86t12 101.5q0 55 -13.5 101t-43 79.5t-76 52t-112.5 18.5q-60 0 -105 -18.5t-75 -52t-45 -79.5t-15 -101zM375 -5q-70 0 -122.5 17.5t-89.5 46.5t-61 66t-37.5 77t-19 79t-5.5 71
q0 74 24 136t68 107t105.5 70.5t137.5 25.5q88 0 152 -25.5t106 -70.5t62 -107t20 -136q0 -32 -5.5 -71t-20 -79t-39.5 -77t-62.5 -66t-90 -46.5t-122.5 -17.5zM222 830h310v-77h-310v77zM504 975q0 -11 -24 -24.5t-56 -25.5t-64 -20t-47 -9q-11 0 -17.5 3.5t-6.5 15.5
q0 6 4 11q1 3 22.5 16.5t50 28.5t57 27t43.5 12q19 0 28.5 -7.5t9.5 -27.5z" />
    <glyph glyph-name="omacacu" unicode="o&#x304;&#x301;" horiz-adv-x="563" 
d="M40 246q0 53 18.5 99.5t50 81.5t74 55t90.5 20q49 0 91.5 -20t74.5 -55t50.5 -81.5t18.5 -99.5t-18.5 -99t-50.5 -81t-74.5 -55t-91.5 -20q-48 0 -90.5 20t-74 55t-50 81t-18.5 99zM133 246q0 -35 11 -65.5t30 -53.5t44.5 -36.5t54.5 -13.5t55 13.5t45 36.5t30 53.5
t11 65.5t-11 66t-30 54t-45 36.5t-55 13.5t-54.5 -13.5t-44.5 -36.5t-30 -54t-11 -66zM121 659h310v-77h-310v77zM403 804q0 -11 -24 -24.5t-56 -25.5t-64 -20t-47 -9q-11 0 -17.5 3.5t-6.5 15.5q0 6 4 11q1 3 22.5 16.5t50 28.5t57 27t43.5 12q19 0 28.5 -7.5t9.5 -27.5z
" />
    <glyph glyph-name="Pacu" unicode="P&#x301;" horiz-adv-x="510" 
d="M156 599v-258h38q34 0 65 8.5t55 26t38.5 44.5t14.5 64q0 25 -9 46t-25 36.5t-37.5 24t-45.5 8.5h-94zM61 686h127q49 0 98 -6t88 -27t63.5 -61t24.5 -108q0 -58 -23.5 -101.5t-61.5 -72t-86.5 -42.5t-98.5 -14h-36v-254h-95v686zM374 878q0 -10 -24 -30.5t-56 -41.5
t-64 -36.5t-47 -16.5q-11 0 -17.5 3.5t-6.5 14.5q0 5 4 12v-1q1 2 11 12.5t26 25l35.5 31t38.5 30t35.5 22.5t26.5 9q19 0 28.5 -7t9.5 -27z" />
    <glyph glyph-name="pacu" unicode="p&#x301;" horiz-adv-x="576" 
d="M157 493v-46q35 29 72.5 40t76.5 11q54 0 94 -22t66.5 -56.5t39.5 -76.5t13 -83q0 -39 -10 -85t-35.5 -86t-69.5 -67t-112 -27q-39 0 -72.5 15t-62.5 38v-274h-94v719h94zM154 247q0 -74 34.5 -120t105.5 -46q39 0 64.5 16t40 41.5t20.5 57.5t6 64t-6.5 59.5t-21.5 48
t-40 32t-63 11.5q-40 0 -66.5 -12.5t-43 -35t-23.5 -52.5t-7 -64zM439 707q0 -10 -24 -30.5t-56 -41.5t-64 -36.5t-47 -16.5q-11 0 -17.5 3.5t-6.5 14.5q0 5 4 12v-1q1 2 11 12.5t26 25l35.5 31t38.5 30t35.5 22.5t26.5 9q19 0 28.5 -7t9.5 -27z" />
    <glyph glyph-name="Pdot" unicode="P&#x307;" horiz-adv-x="510" 
d="M156 599v-258h38q34 0 65 8.5t55 26t38.5 44.5t14.5 64q0 25 -9 46t-25 36.5t-37.5 24t-45.5 8.5h-94zM61 686h127q49 0 98 -6t88 -27t63.5 -61t24.5 -108q0 -58 -23.5 -101.5t-61.5 -72t-86.5 -42.5t-98.5 -14h-36v-254h-95v686zM184 827q0 22 15 38t38 16q24 0 39 -16
t15 -38q0 -23 -15 -39.5t-39 -16.5q-23 0 -38 16.5t-15 39.5z" />
    <glyph glyph-name="pdot" unicode="p&#x307;" horiz-adv-x="576" 
d="M157 493v-46q35 29 72.5 40t76.5 11q54 0 94 -22t66.5 -56.5t39.5 -76.5t13 -83q0 -39 -10 -85t-35.5 -86t-69.5 -67t-112 -27q-39 0 -72.5 15t-62.5 38v-274h-94v719h94zM154 247q0 -74 34.5 -120t105.5 -46q39 0 64.5 16t40 41.5t20.5 57.5t6 64t-6.5 59.5t-21.5 48
t-40 32t-63 11.5q-40 0 -66.5 -12.5t-43 -35t-23.5 -52.5t-7 -64zM249 656q0 22 15 38t38 16q24 0 39 -16t15 -38q0 -23 -15 -39.5t-39 -16.5q-23 0 -38 16.5t-15 39.5z" />
    <glyph glyph-name="Rdot" unicode="R&#x307;" horiz-adv-x="537" 
d="M157 599v-255h39q34 0 65 8t54.5 25.5t37.5 44t14 63.5q0 25 -9 46t-24.5 36t-37 23.5t-45.5 8.5h-94zM61 686h127q50 0 99 -6t88 -27t63 -61t24 -108q0 -74 -35 -121.5t-90 -73.5l159 -269l-90 -29l-160 269q-14 -2 -32.5 -2.5t-56.5 -0.5v-257h-96v686zM189 827
q0 22 15 38t38 16q24 0 39 -16t15 -38q0 -23 -15 -39.5t-39 -16.5q-23 0 -38 16.5t-15 39.5z" />
    <glyph glyph-name="rdot" unicode="r&#x307;" horiz-adv-x="346" 
d="M61 493h93v-39q25 23 48.5 35.5t45.5 12.5q10 0 23 -2.5t24.5 -8.5t19.5 -16.5t8 -25.5q0 -12 -11.5 -24t-25.5 -16q-6 -2 -14.5 -2.5t-17.5 -1.5t-17 -1h-13q-23 0 -36.5 -18.5t-21 -42.5t-10 -47.5t-2.5 -33.5v-262h-93v493zM137 656q0 22 15 38t38 16q24 0 39 -16
t15 -38q0 -23 -15 -39.5t-39 -16.5q-23 0 -38 16.5t-15 39.5z" />
    <glyph glyph-name="Rdou" unicode="R&#x323;" horiz-adv-x="537" 
d="M157 599v-255h39q34 0 65 8t54.5 25.5t37.5 44t14 63.5q0 25 -9 46t-24.5 36t-37 23.5t-45.5 8.5h-94zM61 686h127q50 0 99 -6t88 -27t63 -61t24 -108q0 -74 -35 -121.5t-90 -73.5l159 -269l-90 -29l-160 269q-14 -2 -32.5 -2.5t-56.5 -0.5v-257h-96v686zM207 -137
q0 23 16 39.5t38 16.5q25 0 39.5 -16.5t14.5 -39.5t-14.5 -39t-39.5 -16q-22 0 -38 16t-16 39z" />
    <glyph glyph-name="rdou" unicode="r&#x323;" horiz-adv-x="346" 
d="M61 493h93v-39q25 23 48.5 35.5t45.5 12.5q10 0 23 -2.5t24.5 -8.5t19.5 -16.5t8 -25.5q0 -12 -11.5 -24t-25.5 -16q-6 -2 -14.5 -2.5t-17.5 -1.5t-17 -1h-13q-23 0 -36.5 -18.5t-21 -42.5t-10 -47.5t-2.5 -33.5v-262h-93v493zM54 -137q0 23 16 39.5t38 16.5
q25 0 39.5 -16.5t14.5 -39.5t-14.5 -39t-39.5 -16q-22 0 -38 16t-16 39z" />
    <glyph glyph-name="Rmacdou" unicode="R&#x304;&#x323;" horiz-adv-x="537" 
d="M157 599v-255h39q34 0 65 8t54.5 25.5t37.5 44t14 63.5q0 25 -9 46t-24.5 36t-37 23.5t-45.5 8.5h-94zM61 686h127q50 0 99 -6t88 -27t63 -61t24 -108q0 -74 -35 -121.5t-90 -73.5l159 -269l-90 -29l-160 269q-14 -2 -32.5 -2.5t-56.5 -0.5v-257h-96v686zM84 864h310v-77
h-310v77zM207 -137q0 23 16 39.5t38 16.5q25 0 39.5 -16.5t14.5 -39.5t-14.5 -39t-39.5 -16q-22 0 -38 16t-16 39z" />
    <glyph glyph-name="rmacdou" unicode="r&#x304;&#x323;" horiz-adv-x="346" 
d="M61 493h93v-39q25 23 48.5 35.5t45.5 12.5q10 0 23 -2.5t24.5 -8.5t19.5 -16.5t8 -25.5q0 -12 -11.5 -24t-25.5 -16q-6 -2 -14.5 -2.5t-17.5 -1.5t-17 -1h-13q-23 0 -36.5 -18.5t-21 -42.5t-10 -47.5t-2.5 -33.5v-262h-93v493zM33 693h310v-77h-310v77zM54 -137
q0 23 16 39.5t38 16.5q25 0 39.5 -16.5t14.5 -39.5t-14.5 -39t-39.5 -16q-22 0 -38 16t-16 39z" />
    <glyph glyph-name="Rmau" unicode="R&#x331;" horiz-adv-x="537" 
d="M157 599v-255h39q34 0 65 8t54.5 25.5t37.5 44t14 63.5q0 25 -9 46t-24.5 36t-37 23.5t-45.5 8.5h-94zM61 686h127q50 0 99 -6t88 -27t63 -61t24 -108q0 -74 -35 -121.5t-90 -73.5l159 -269l-90 -29l-160 269q-14 -2 -32.5 -2.5t-56.5 -0.5v-257h-96v686zM104 -103h310
v-77h-310v77z" />
    <glyph glyph-name="rmau" unicode="r&#x331;" horiz-adv-x="346" 
d="M61 493h93v-39q25 23 48.5 35.5t45.5 12.5q10 0 23 -2.5t24.5 -8.5t19.5 -16.5t8 -25.5q0 -12 -11.5 -24t-25.5 -16q-6 -2 -14.5 -2.5t-17.5 -1.5t-17 -1h-13q-23 0 -36.5 -18.5t-21 -42.5t-10 -47.5t-2.5 -33.5v-262h-93v493zM-48 -103h310v-77h-310v77z" />
    <glyph glyph-name="Sdot" unicode="S&#x307;" horiz-adv-x="465" 
d="M213 -5q-15 0 -40 5t-52.5 14.5t-54 23t-45.5 30.5l57 72q34 -23 67.5 -40t71.5 -17q25 0 46 5t37 15.5t25 27.5t9 41q0 27 -11 48.5t-28.5 39.5t-40 33.5l-45.5 30.5q-28 17 -56.5 36.5t-51 44.5t-37 57t-14.5 74q0 26 12.5 53.5t37 50t60 37t80.5 14.5q36 0 64 -5.5
t49 -14t36 -18.5t24 -19l-45 -73q-28 15 -57.5 26.5t-59.5 11.5q-20 0 -39 -4t-34 -12.5t-24 -21t-9 -30.5t9.5 -34t25.5 -31.5t35.5 -30t40.5 -28.5q29 -20 60 -44t56 -52.5t41 -63t16 -76.5t-19.5 -75t-50 -55.5t-69 -34t-77.5 -11.5zM191 827q0 22 15 38t38 16
q24 0 39 -16t15 -38q0 -23 -15 -39.5t-39 -16.5q-23 0 -38 16.5t-15 39.5z" />
    <glyph glyph-name="sdot" unicode="s&#x307;" horiz-adv-x="395" 
d="M73 124q23 -15 49 -29.5t55 -13.5q28 0 52 10t24 34q0 36 -21.5 55t-52.5 37q-1 0 -2 1t-1.5 1t-1.5 1l-3 2q-20 13 -39.5 28.5t-36 35t-26.5 44.5t-10 56q0 28 12 49t33 35t49 21t60 7q7 0 21 -1.5t30.5 -5.5t32.5 -10.5t28 -15.5l-36 -70q-20 7 -37.5 11.5t-32.5 4.5
q-28 0 -47.5 -7.5t-19.5 -24.5q0 -32 19 -48.5t46 -31.5l21 -12q20 -12 39 -26.5t34.5 -34t25 -44.5t10.5 -57q0 -32 -14 -56.5t-38 -41t-55.5 -24.5t-66.5 -8q-23 0 -54.5 8.5t-85.5 41.5zM153 656q0 22 15 38t38 16q24 0 39 -16t15 -38q0 -23 -15 -39.5t-39 -16.5
q-23 0 -38 16.5t-15 39.5z" />
    <glyph glyph-name="Sdou" unicode="S&#x323;" horiz-adv-x="465" 
d="M213 -5q-15 0 -40 5t-52.5 14.5t-54 23t-45.5 30.5l57 72q34 -23 67.5 -40t71.5 -17q25 0 46 5t37 15.5t25 27.5t9 41q0 27 -11 48.5t-28.5 39.5t-40 33.5l-45.5 30.5q-28 17 -56.5 36.5t-51 44.5t-37 57t-14.5 74q0 26 12.5 53.5t37 50t60 37t80.5 14.5q36 0 64 -5.5
t49 -14t36 -18.5t24 -19l-45 -73q-28 15 -57.5 26.5t-59.5 11.5q-20 0 -39 -4t-34 -12.5t-24 -21t-9 -30.5t9.5 -34t25.5 -31.5t35.5 -30t40.5 -28.5q29 -20 60 -44t56 -52.5t41 -63t16 -76.5t-19.5 -75t-50 -55.5t-69 -34t-77.5 -11.5zM169 -137q0 23 16 39.5t38 16.5
q25 0 39.5 -16.5t14.5 -39.5t-14.5 -39t-39.5 -16q-22 0 -38 16t-16 39z" />
    <glyph glyph-name="sdou" unicode="s&#x323;" horiz-adv-x="395" 
d="M73 124q23 -15 49 -29.5t55 -13.5q28 0 52 10t24 34q0 36 -21.5 55t-52.5 37q-1 0 -2 1t-1.5 1t-1.5 1l-3 2q-20 13 -39.5 28.5t-36 35t-26.5 44.5t-10 56q0 28 12 49t33 35t49 21t60 7q7 0 21 -1.5t30.5 -5.5t32.5 -10.5t28 -15.5l-36 -70q-20 7 -37.5 11.5t-32.5 4.5
q-28 0 -47.5 -7.5t-19.5 -24.5q0 -32 19 -48.5t46 -31.5l21 -12q20 -12 39 -26.5t34.5 -34t25 -44.5t10.5 -57q0 -32 -14 -56.5t-38 -41t-55.5 -24.5t-66.5 -8q-23 0 -54.5 8.5t-85.5 41.5zM131 -137q0 23 16 39.5t38 16.5q25 0 39.5 -16.5t14.5 -39.5t-14.5 -39t-39.5 -16
q-22 0 -38 16t-16 39z" />
    <glyph glyph-name="Sacudot" unicode="S&#x301;&#x307;" horiz-adv-x="465" 
d="M213 -5q-15 0 -40 5t-52.5 14.5t-54 23t-45.5 30.5l57 72q34 -23 67.5 -40t71.5 -17q25 0 46 5t37 15.5t25 27.5t9 41q0 27 -11 48.5t-28.5 39.5t-40 33.5l-45.5 30.5q-28 17 -56.5 36.5t-51 44.5t-37 57t-14.5 74q0 26 12.5 53.5t37 50t60 37t80.5 14.5q36 0 64 -5.5
t49 -14t36 -18.5t24 -19l-45 -73q-28 15 -57.5 26.5t-59.5 11.5q-20 0 -39 -4t-34 -12.5t-24 -21t-9 -30.5t9.5 -34t25.5 -31.5t35.5 -30t40.5 -28.5q29 -20 60 -44t56 -52.5t41 -63t16 -76.5t-19.5 -75t-50 -55.5t-69 -34t-77.5 -11.5zM118 827q0 22 15 38t38 16
q24 0 39 -16t15 -38q0 -23 -15 -39.5t-39 -16.5q-23 0 -38 16.5t-15 39.5zM453 878q0 -10 -24 -30.5t-56 -41.5t-64 -36.5t-47 -16.5q-11 0 -17.5 3.5t-6.5 14.5q0 5 4 12v-1q1 2 11 12.5t26 25l35.5 31t38.5 30t35.5 22.5t26.5 9q19 0 28.5 -7t9.5 -27z" />
    <glyph glyph-name="sacudot" unicode="s&#x301;&#x307;" horiz-adv-x="395" 
d="M73 124q23 -15 49 -29.5t55 -13.5q28 0 52 10t24 34q0 36 -21.5 55t-52.5 37q-1 0 -2 1t-1.5 1t-1.5 1l-3 2q-20 13 -39.5 28.5t-36 35t-26.5 44.5t-10 56q0 28 12 49t33 35t49 21t60 7q7 0 21 -1.5t30.5 -5.5t32.5 -10.5t28 -15.5l-36 -70q-20 7 -37.5 11.5t-32.5 4.5
q-28 0 -47.5 -7.5t-19.5 -24.5q0 -32 19 -48.5t46 -31.5l21 -12q20 -12 39 -26.5t34.5 -34t25 -44.5t10.5 -57q0 -32 -14 -56.5t-38 -41t-55.5 -24.5t-66.5 -8q-23 0 -54.5 8.5t-85.5 41.5zM80 656q0 22 15 38t38 16q24 0 39 -16t15 -38q0 -23 -15 -39.5t-39 -16.5
q-23 0 -38 16.5t-15 39.5zM415 707q0 -10 -24 -30.5t-56 -41.5t-64 -36.5t-47 -16.5q-11 0 -17.5 3.5t-6.5 14.5q0 5 4 12v-1q1 2 11 12.5t26 25l35.5 31t38.5 30t35.5 22.5t26.5 9q19 0 28.5 -7t9.5 -27z" />
    <glyph glyph-name="Scardot" unicode="S&#x30c;&#x307;" horiz-adv-x="465" 
d="M213 -5q-15 0 -40 5t-52.5 14.5t-54 23t-45.5 30.5l57 72q34 -23 67.5 -40t71.5 -17q25 0 46 5t37 15.5t25 27.5t9 41q0 27 -11 48.5t-28.5 39.5t-40 33.5l-45.5 30.5q-28 17 -56.5 36.5t-51 44.5t-37 57t-14.5 74q0 26 12.5 53.5t37 50t60 37t80.5 14.5q36 0 64 -5.5
t49 -14t36 -18.5t24 -19l-45 -73q-28 15 -57.5 26.5t-59.5 11.5q-20 0 -39 -4t-34 -12.5t-24 -21t-9 -30.5t9.5 -34t25.5 -31.5t35.5 -30t40.5 -28.5q29 -20 60 -44t56 -52.5t41 -63t16 -76.5t-19.5 -75t-50 -55.5t-69 -34t-77.5 -11.5zM271 729h-65l-137 116h92l78 -48
l25.5 16l24.5 16l27 16h93zM189 949q0 23 16 38.5t38 15.5q25 0 39.5 -15.5t14.5 -38.5q0 -24 -14.5 -40t-39.5 -16q-22 0 -38 16t-16 40z" />
    <glyph glyph-name="scardot" unicode="s&#x30c;&#x307;" horiz-adv-x="395" 
d="M73 124q23 -15 49 -29.5t55 -13.5q28 0 52 10t24 34q0 36 -21.5 55t-52.5 37q-1 0 -2 1t-1.5 1t-1.5 1l-3 2q-20 13 -39.5 28.5t-36 35t-26.5 44.5t-10 56q0 28 12 49t33 35t49 21t60 7q7 0 21 -1.5t30.5 -5.5t32.5 -10.5t28 -15.5l-36 -70q-20 7 -37.5 11.5t-32.5 4.5
q-28 0 -47.5 -7.5t-19.5 -24.5q0 -32 19 -48.5t46 -31.5l21 -12q20 -12 39 -26.5t34.5 -34t25 -44.5t10.5 -57q0 -32 -14 -56.5t-38 -41t-55.5 -24.5t-66.5 -8q-23 0 -54.5 8.5t-85.5 41.5zM233 558h-65l-137 116h92l78 -48l25.5 16l24.5 16l27 16h93zM151 778q0 23 16 38.5
t38 15.5q25 0 39.5 -15.5t14.5 -38.5q0 -24 -14.5 -40t-39.5 -16q-22 0 -38 16t-16 40z" />
    </font>
</defs>
</svg>
